<?xml version="1.0" encoding="UTF-8" standalone="no"?>
<!DOCTYPE svg PUBLIC "-//W3C//DTD SVG 1.1//EN"
 "http://www.w3.org/Graphics/SVG/1.1/DTD/svg11.dtd">
<!-- Generated by graphviz version 3.0.1~dev.20220405.0544 (20220405.0544)
 -->
<!-- Title: G Pages: 1 -->
<svg width="744pt" height="704pt"
 viewBox="0.00 0.00 743.85 704.29" xmlns="http://www.w3.org/2000/svg" xmlns:xlink="http://www.w3.org/1999/xlink">
<g id="graph0" class="graph" transform="scale(1 1) rotate(0) translate(4 700.29)">
<title>G</title><style>.edge>path:hover{stroke-width:8}</style>
<polygon fill="white" stroke="transparent" points="-4,4 -4,-700.29 739.85,-700.29 739.85,4 -4,4"/>
<!-- __main__ -->
<g id="node1" class="node">
<title>__main__</title><style>.edge>path:hover{stroke-width:8}</style>
<ellipse fill="#723131" stroke="black" cx="175.37" cy="-678.29" rx="36.07" ry="18"/>
<text text-anchor="middle" x="175.37" y="-675.29" font-family="Helvetica,sans-Serif" font-size="10.00" fill="#ffffff">__main__</text>
</g>
<!-- pkg_resources -->
<g id="node2" class="node">
<title>pkg_resources</title><style>.edge>path:hover{stroke-width:8}</style>
<ellipse fill="#7ab83d" stroke="black" cx="175.37" cy="-593.18" rx="49.13" ry="18"/>
<text text-anchor="middle" x="175.37" y="-590.18" font-family="Helvetica,sans-Serif" font-size="10.00" fill="#000000">pkg_resources</text>
</g>
<!-- __main__&#45;&gt;pkg_resources -->
<g id="edge1" class="edge">
<title>__main__&#45;&gt;pkg_resources</title><style>.edge>path:hover{stroke-width:8}</style>
<path fill="none" stroke="black" d="M175.37,-660.07C175.37,-648.93 175.37,-634.18 175.37,-621.46"/>
<polygon fill="#723131" stroke="black" points="178.87,-621.38 175.37,-611.38 171.87,-621.38 178.87,-621.38"/>
</g>
<!-- vmklib_resources -->
<g id="node13" class="node">
<title>vmklib_resources</title><style>.edge>path:hover{stroke-width:8}</style>
<ellipse fill="#753ab0" stroke="black" cx="262.37" cy="-449.47" rx="42.22" ry="22.76"/>
<text text-anchor="middle" x="262.37" y="-452.47" font-family="Helvetica,sans-Serif" font-size="10.00" fill="#ffffff">vmklib.</text>
<text text-anchor="middle" x="262.37" y="-440.47" font-family="Helvetica,sans-Serif" font-size="10.00" fill="#ffffff">resources</text>
</g>
<!-- pkg_resources&#45;&gt;vmklib_resources -->
<g id="edge2" class="edge">
<title>pkg_resources&#45;&gt;vmklib_resources</title><style>.edge>path:hover{stroke-width:8}</style>
<path fill="none" stroke="black" d="M201.05,-577.75C230.1,-561.05 273.63,-534.74 275.37,-526.07"/>
<path fill="none" stroke="black" d="M275.37,-525.07C278.24,-510.79 276.2,-494.91 272.95,-481.47"/>
<polygon fill="#7ab83d" stroke="black" points="276.3,-480.47 270.29,-471.75 269.55,-482.32 276.3,-480.47"/>
</g>
<!-- vcorelib -->
<g id="node3" class="node">
<title>vcorelib</title><style>.edge>path:hover{stroke-width:8}</style>
<ellipse fill="#10f9f9" stroke="black" cx="384.37" cy="-593.18" rx="30.19" ry="18"/>
<text text-anchor="middle" x="384.37" y="-590.18" font-family="Helvetica,sans-Serif" font-size="10.00" fill="#000000">vcorelib</text>
</g>
<!-- vmklib_app -->
<g id="node11" class="node">
<title>vmklib_app</title><style>.edge>path:hover{stroke-width:8}</style>
<ellipse fill="#6b35a1" stroke="black" cx="248.37" cy="-342.76" rx="38.23" ry="18"/>
<text text-anchor="middle" x="248.37" y="-339.76" font-family="Helvetica,sans-Serif" font-size="10.00" fill="#ffffff">vmklib.app</text>
</g>
<!-- vcorelib&#45;&gt;vmklib_app -->
<g id="edge3" class="edge">
<title>vcorelib&#45;&gt;vmklib_app</title><style>.edge>path:hover{stroke-width:8}</style>
<path fill="none" stroke="black" d="M332.37,-525.07C305.54,-480.65 336.88,-456.13 313.37,-409.87 304.47,-392.36 289.28,-376.52 275.83,-364.74"/>
<polygon fill="#10f9f9" stroke="black" points="278.07,-362.05 268.16,-358.28 273.56,-367.4 278.07,-362.05"/>
</g>
<!-- vcorelib&#45;&gt;vmklib_resources -->
<g id="edge4" class="edge">
<title>vcorelib&#45;&gt;vmklib_resources</title><style>.edge>path:hover{stroke-width:8}</style>
<path fill="none" stroke="black" d="M370.61,-576.95C359.39,-564.03 343.62,-544.69 332.37,-526.07"/>
<path fill="none" stroke="black" d="M332.37,-525.07C321.45,-506.98 305.56,-489.6 291.68,-476.16"/>
<polygon fill="#10f9f9" stroke="black" points="293.9,-473.44 284.22,-469.13 289.09,-478.54 293.9,-473.44"/>
</g>
<!-- vmklib_tasks_mixins_concrete -->
<g id="node15" class="node">
<title>vmklib_tasks_mixins_concrete</title><style>.edge>path:hover{stroke-width:8}</style>
<ellipse fill="#753ab0" stroke="black" cx="394.37" cy="-236.05" rx="38.37" ry="39.7"/>
<text text-anchor="middle" x="394.37" y="-251.05" font-family="Helvetica,sans-Serif" font-size="10.00" fill="#ffffff">vmklib.</text>
<text text-anchor="middle" x="394.37" y="-239.05" font-family="Helvetica,sans-Serif" font-size="10.00" fill="#ffffff">tasks.</text>
<text text-anchor="middle" x="394.37" y="-227.05" font-family="Helvetica,sans-Serif" font-size="10.00" fill="#ffffff">mixins.</text>
<text text-anchor="middle" x="394.37" y="-215.05" font-family="Helvetica,sans-Serif" font-size="10.00" fill="#ffffff">concrete</text>
</g>
<!-- vcorelib&#45;&gt;vmklib_tasks_mixins_concrete -->
<g id="edge5" class="edge">
<title>vcorelib&#45;&gt;vmklib_tasks_mixins_concrete</title><style>.edge>path:hover{stroke-width:8}</style>
<path fill="none" stroke="black" d="M381.6,-575.18C380.04,-561.57 379.28,-542.16 384.37,-526.07"/>
</g>
<!-- vmklib_tasks_venv -->
<g id="node17" class="node">
<title>vmklib_tasks_venv</title><style>.edge>path:hover{stroke-width:8}</style>
<ellipse fill="#4c2e6b" stroke="black" cx="509.37" cy="-31.11" rx="33.13" ry="31.23"/>
<text text-anchor="middle" x="509.37" y="-40.11" font-family="Helvetica,sans-Serif" font-size="10.00" fill="#ffffff">vmklib.</text>
<text text-anchor="middle" x="509.37" y="-28.11" font-family="Helvetica,sans-Serif" font-size="10.00" fill="#ffffff">tasks.</text>
<text text-anchor="middle" x="509.37" y="-16.11" font-family="Helvetica,sans-Serif" font-size="10.00" fill="#ffffff">venv</text>
</g>
<!-- vcorelib&#45;&gt;vmklib_tasks_venv -->
<g id="edge6" class="edge">
<title>vcorelib&#45;&gt;vmklib_tasks_venv</title><style>.edge>path:hover{stroke-width:8}</style>
<path fill="none" stroke="black" d="M399.02,-577.05C421.11,-552.57 460.37,-501.84 460.37,-450.47 460.37,-450.47 460.37,-450.47 460.37,-341.76 460.37,-294.7 431.13,-174.13 448.37,-130.34"/>
</g>
<!-- vcorelib_dict -->
<g id="node4" class="node">
<title>vcorelib_dict</title><style>.edge>path:hover{stroke-width:8}</style>
<ellipse fill="#47c2c2" stroke="black" cx="41.37" cy="-678.29" rx="41.24" ry="18"/>
<text text-anchor="middle" x="41.37" y="-675.29" font-family="Helvetica,sans-Serif" font-size="10.00" fill="#000000">vcorelib.dict</text>
</g>
<!-- vcorelib_task -->
<g id="node6" class="node">
<title>vcorelib_task</title><style>.edge>path:hover{stroke-width:8}</style>
<ellipse fill="#18dddd" stroke="black" cx="475.37" cy="-593.18" rx="43.08" ry="18"/>
<text text-anchor="middle" x="475.37" y="-590.18" font-family="Helvetica,sans-Serif" font-size="10.00" fill="#000000">vcorelib.task</text>
</g>
<!-- vcorelib_dict&#45;&gt;vcorelib_task -->
<g id="edge7" class="edge">
<title>vcorelib_dict&#45;&gt;vcorelib_task</title><style>.edge>path:hover{stroke-width:8}</style>
<path fill="none" stroke="black" d="M78.08,-669.71C94.1,-666.55 113.12,-663 130.37,-660.29 259.99,-639.97 298.98,-666.01 423.37,-624.29 430.78,-621.81 438.31,-618.2 445.25,-614.33"/>
<polygon fill="#47c2c2" stroke="black" points="447.46,-617.09 454.29,-608.99 443.9,-611.07 447.46,-617.09"/>
</g>
<!-- vcorelib_dict&#45;&gt;vmklib_tasks_venv -->
<g id="edge8" class="edge">
<title>vcorelib_dict&#45;&gt;vmklib_tasks_venv</title><style>.edge>path:hover{stroke-width:8}</style>
<path fill="none" stroke="black" d="M33.27,-660.56C28.79,-650.34 23.66,-636.87 21.37,-624.29 16.41,-597.09 18.38,-589.56 21.37,-562.07 32.1,-463.31 29.75,-434.86 69.37,-343.76"/>
<path fill="none" stroke="black" d="M69.37,-341.76C90.64,-288.61 134.74,-293.48 144.37,-237.05"/>
<path fill="none" stroke="black" d="M144.37,-235.05C155.34,-170.76 147.7,-140.49 197.37,-98.23 237.44,-64.13 389.99,-44.22 465.91,-36.23"/>
<polygon fill="#47c2c2" stroke="black" points="466.51,-39.68 476.1,-35.18 465.79,-32.72 466.51,-39.68"/>
</g>
<!-- vcorelib_paths -->
<g id="node5" class="node">
<title>vcorelib_paths</title><style>.edge>path:hover{stroke-width:8}</style>
<ellipse fill="#40bfc0" stroke="black" cx="289.37" cy="-593.18" rx="46.95" ry="18"/>
<text text-anchor="middle" x="289.37" y="-590.18" font-family="Helvetica,sans-Serif" font-size="10.00" fill="#000000">vcorelib.paths</text>
</g>
<!-- vcorelib_paths&#45;&gt;vmklib_resources -->
<g id="edge9" class="edge">
<title>vcorelib_paths&#45;&gt;vmklib_resources</title><style>.edge>path:hover{stroke-width:8}</style>
<path fill="none" stroke="black" d="M281.97,-575.35C277.02,-562 271.99,-542.86 275.37,-526.07"/>
</g>
<!-- vcorelib_paths&#45;&gt;vmklib_tasks_mixins_concrete -->
<g id="edge10" class="edge">
<title>vcorelib_paths&#45;&gt;vmklib_tasks_mixins_concrete</title><style>.edge>path:hover{stroke-width:8}</style>
<path fill="none" stroke="black" d="M316.41,-578.26C342.72,-563.94 379.46,-541.59 384.37,-526.07"/>
<path fill="none" stroke="black" d="M384.37,-525.07C409.98,-444.06 406.02,-343.8 400.44,-285.47"/>
<polygon fill="#40bfc0" stroke="black" points="403.92,-285.02 399.43,-275.43 396.95,-285.73 403.92,-285.02"/>
</g>
<!-- vcorelib_task&#45;&gt;vmklib_app -->
<g id="edge11" class="edge">
<title>vcorelib_task&#45;&gt;vmklib_app</title><style>.edge>path:hover{stroke-width:8}</style>
<path fill="none" stroke="black" d="M464.19,-575.55C441.37,-542.21 386.87,-465.6 331.37,-409.87 314.65,-393.09 293.79,-376.48 277.16,-364.12"/>
<polygon fill="#18dddd" stroke="black" points="279.03,-361.15 268.9,-358.05 274.89,-366.79 279.03,-361.15"/>
</g>
<!-- vcorelib_task&#45;&gt;vmklib_tasks_mixins_concrete -->
<g id="edge12" class="edge">
<title>vcorelib_task&#45;&gt;vmklib_tasks_mixins_concrete</title><style>.edge>path:hover{stroke-width:8}</style>
<path fill="none" stroke="black" d="M511.94,-583.57C541.07,-574.57 579.92,-557.26 598.37,-526.07"/>
<path fill="none" stroke="black" d="M598.37,-525.07C613.82,-498.95 561.5,-510.85 540.37,-489.07 480.59,-427.44 435.88,-336.69 412.55,-282.56"/>
<polygon fill="#18dddd" stroke="black" points="415.71,-281.06 408.58,-273.22 409.27,-283.79 415.71,-281.06"/>
</g>
<!-- vcorelib_task&#45;&gt;vmklib_tasks_venv -->
<g id="edge13" class="edge">
<title>vcorelib_task&#45;&gt;vmklib_tasks_venv</title><style>.edge>path:hover{stroke-width:8}</style>
<path fill="none" stroke="black" d="M598.37,-525.07C612.86,-498.41 640.94,-515.19 656.37,-489.07 744.79,-339.36 770.65,-242.33 673.37,-98.23 646.57,-58.52 591.5,-42.65 552.59,-36.32"/>
<polygon fill="#18dddd" stroke="black" points="552.98,-32.84 542.57,-34.84 551.95,-39.76 552.98,-32.84"/>
</g>
<!-- vcorelib_task_manager -->
<g id="node7" class="node">
<title>vcorelib_task_manager</title><style>.edge>path:hover{stroke-width:8}</style>
<ellipse fill="#3db8b8" stroke="black" cx="69.37" cy="-593.18" rx="39.44" ry="31.23"/>
<text text-anchor="middle" x="69.37" y="-602.18" font-family="Helvetica,sans-Serif" font-size="10.00" fill="#000000">vcorelib.</text>
<text text-anchor="middle" x="69.37" y="-590.18" font-family="Helvetica,sans-Serif" font-size="10.00" fill="#000000">task.</text>
<text text-anchor="middle" x="69.37" y="-578.18" font-family="Helvetica,sans-Serif" font-size="10.00" fill="#000000">manager</text>
</g>
<!-- vcorelib_task_manager&#45;&gt;vmklib_app -->
<g id="edge14" class="edge">
<title>vcorelib_task_manager&#45;&gt;vmklib_app</title><style>.edge>path:hover{stroke-width:8}</style>
<path fill="none" stroke="black" d="M69.37,-448.47C92.28,-385.51 142.87,-408.26 200.37,-373.87 206.02,-370.49 212,-366.82 217.75,-363.24"/>
<polygon fill="#3db8b8" stroke="black" points="219.89,-366.03 226.51,-357.75 216.18,-360.1 219.89,-366.03"/>
</g>
<!-- vcorelib_task_manager&#45;&gt;vmklib_tasks_venv -->
<g id="edge15" class="edge">
<title>vcorelib_task_manager&#45;&gt;vmklib_tasks_venv</title><style>.edge>path:hover{stroke-width:8}</style>
<path fill="none" stroke="black" d="M63.61,-562.4C59.23,-532.99 56,-487.23 69.37,-450.47"/>
<path fill="none" stroke="black" d="M69.37,-448.47C87.83,-405.75 50.81,-386.44 69.37,-343.76"/>
</g>
<!-- vcorelib_task_subprocess -->
<g id="node8" class="node">
<title>vcorelib_task_subprocess</title><style>.edge>path:hover{stroke-width:8}</style>
<ellipse fill="#53b6b6" stroke="black" cx="144.37" cy="-342.76" rx="47.45" ry="31.23"/>
<text text-anchor="middle" x="144.37" y="-351.76" font-family="Helvetica,sans-Serif" font-size="10.00" fill="#000000">vcorelib.</text>
<text text-anchor="middle" x="144.37" y="-339.76" font-family="Helvetica,sans-Serif" font-size="10.00" fill="#000000">task.</text>
<text text-anchor="middle" x="144.37" y="-327.76" font-family="Helvetica,sans-Serif" font-size="10.00" fill="#000000">subprocess</text>
</g>
<!-- vcorelib_task_subprocess&#45;&gt;vmklib_tasks_venv -->
<g id="edge16" class="edge">
<title>vcorelib_task_subprocess&#45;&gt;vmklib_tasks_venv</title><style>.edge>path:hover{stroke-width:8}</style>
<path fill="none" stroke="black" d="M141.68,-311.29C140.48,-290.27 140.15,-261.78 144.37,-237.05"/>
</g>
<!-- vcorelib_task_subprocess_run -->
<g id="node9" class="node">
<title>vcorelib_task_subprocess_run</title><style>.edge>path:hover{stroke-width:8}</style>
<ellipse fill="#49acac" stroke="black" cx="598.37" cy="-449.47" rx="49.38" ry="39.7"/>
<text text-anchor="middle" x="598.37" y="-464.47" font-family="Helvetica,sans-Serif" font-size="10.00" fill="#000000">vcorelib.</text>
<text text-anchor="middle" x="598.37" y="-452.47" font-family="Helvetica,sans-Serif" font-size="10.00" fill="#000000">task.</text>
<text text-anchor="middle" x="598.37" y="-440.47" font-family="Helvetica,sans-Serif" font-size="10.00" fill="#000000">subprocess.</text>
<text text-anchor="middle" x="598.37" y="-428.47" font-family="Helvetica,sans-Serif" font-size="10.00" fill="#000000">run</text>
</g>
<!-- vcorelib_task_subprocess_run&#45;&gt;vmklib_tasks_venv -->
<g id="edge17" class="edge">
<title>vcorelib_task_subprocess_run&#45;&gt;vmklib_tasks_venv</title><style>.edge>path:hover{stroke-width:8}</style>
<path fill="none" stroke="black" d="M598.54,-409.61C597.66,-343.58 590.73,-206.15 551.37,-98.23 547.23,-86.86 540.89,-75.41 534.39,-65.31"/>
<polygon fill="#49acac" stroke="black" points="537.16,-63.17 528.68,-56.82 531.35,-67.07 537.16,-63.17"/>
</g>
<!-- vmklib___main__ -->
<g id="node10" class="node">
<title>vmklib___main__</title><style>.edge>path:hover{stroke-width:8}</style>
<ellipse fill="#7a49ac" stroke="black" cx="248.37" cy="-129.34" rx="42.24" ry="22.76"/>
<text text-anchor="middle" x="248.37" y="-132.34" font-family="Helvetica,sans-Serif" font-size="10.00" fill="#ffffff">vmklib.</text>
<text text-anchor="middle" x="248.37" y="-120.34" font-family="Helvetica,sans-Serif" font-size="10.00" fill="#ffffff">__main__</text>
</g>
<!-- vmklib_entry -->
<g id="node12" class="node">
<title>vmklib_entry</title><style>.edge>path:hover{stroke-width:8}</style>
<ellipse fill="#7a3db8" stroke="black" cx="248.37" cy="-236.05" rx="41.9" ry="18"/>
<text text-anchor="middle" x="248.37" y="-233.05" font-family="Helvetica,sans-Serif" font-size="10.00" fill="#ffffff">vmklib.entry</text>
</g>
<!-- vmklib_app&#45;&gt;vmklib_entry -->
<g id="edge18" class="edge">
<title>vmklib_app&#45;&gt;vmklib_entry</title><style>.edge>path:hover{stroke-width:8}</style>
<path fill="none" stroke="black" d="M248.37,-324.47C248.37,-308.17 248.37,-283.49 248.37,-264.51"/>
<polygon fill="#6b35a1" stroke="black" points="251.87,-264.37 248.37,-254.37 244.87,-264.37 251.87,-264.37"/>
</g>
<!-- vmklib_entry&#45;&gt;vmklib___main__ -->
<g id="edge19" class="edge">
<title>vmklib_entry&#45;&gt;vmklib___main__</title><style>.edge>path:hover{stroke-width:8}</style>
<path fill="none" stroke="black" d="M248.37,-217.76C248.37,-202.71 248.37,-180.5 248.37,-162.23"/>
<polygon fill="#7a3db8" stroke="black" points="251.87,-162.01 248.37,-152.01 244.87,-162.01 251.87,-162.01"/>
</g>
<!-- vmklib_resources&#45;&gt;vmklib_app -->
<g id="edge20" class="edge">
<title>vmklib_resources&#45;&gt;vmklib_app</title><style>.edge>path:hover{stroke-width:8}</style>
<path fill="none" stroke="black" d="M259.47,-426.77C257.31,-410.6 254.34,-388.4 252.02,-371.03"/>
<polygon fill="#753ab0" stroke="black" points="255.46,-370.38 250.67,-360.93 248.52,-371.31 255.46,-370.38"/>
</g>
<!-- vmklib_tasks_mixins -->
<g id="node14" class="node">
<title>vmklib_tasks_mixins</title><style>.edge>path:hover{stroke-width:8}</style>
<ellipse fill="#8547c2" stroke="black" cx="509.37" cy="-129.34" rx="33.13" ry="31.23"/>
<text text-anchor="middle" x="509.37" y="-138.34" font-family="Helvetica,sans-Serif" font-size="10.00" fill="#ffffff">vmklib.</text>
<text text-anchor="middle" x="509.37" y="-126.34" font-family="Helvetica,sans-Serif" font-size="10.00" fill="#ffffff">tasks.</text>
<text text-anchor="middle" x="509.37" y="-114.34" font-family="Helvetica,sans-Serif" font-size="10.00" fill="#ffffff">mixins</text>
</g>
<!-- vmklib_tasks_mixins&#45;&gt;vmklib_tasks_venv -->
<g id="edge21" class="edge">
<title>vmklib_tasks_mixins&#45;&gt;vmklib_tasks_venv</title><style>.edge>path:hover{stroke-width:8}</style>
<path fill="none" stroke="black" d="M509.37,-98.16C509.37,-90.08 509.37,-81.23 509.37,-72.69"/>
<polygon fill="#8547c2" stroke="black" points="512.87,-72.52 509.37,-62.52 505.87,-72.52 512.87,-72.52"/>
</g>
<!-- vmklib_tasks_mixins_concrete&#45;&gt;vmklib_tasks_venv -->
<g id="edge22" class="edge">
<title>vmklib_tasks_mixins_concrete&#45;&gt;vmklib_tasks_venv</title><style>.edge>path:hover{stroke-width:8}</style>
<path fill="none" stroke="black" d="M413.92,-201.43C425.07,-181.29 438.71,-154.89 448.37,-130.34"/>
<path fill="none" stroke="black" d="M448.37,-128.34C457.21,-105.88 471.49,-82.97 484,-65.14"/>
<polygon fill="#753ab0" stroke="black" points="486.99,-66.98 489.98,-56.82 481.3,-62.9 486.99,-66.98"/>
</g>
<!-- vmklib_tasks_python -->
<g id="node16" class="node">
<title>vmklib_tasks_python</title><style>.edge>path:hover{stroke-width:8}</style>
<ellipse fill="#8547c2" stroke="black" cx="631.37" cy="-129.34" rx="33.13" ry="31.23"/>
<text text-anchor="middle" x="631.37" y="-138.34" font-family="Helvetica,sans-Serif" font-size="10.00" fill="#ffffff">vmklib.</text>
<text text-anchor="middle" x="631.37" y="-126.34" font-family="Helvetica,sans-Serif" font-size="10.00" fill="#ffffff">tasks.</text>
<text text-anchor="middle" x="631.37" y="-114.34" font-family="Helvetica,sans-Serif" font-size="10.00" fill="#ffffff">python</text>
</g>
<!-- vmklib_tasks_python&#45;&gt;vmklib_tasks_venv -->
<g id="edge23" class="edge">
<title>vmklib_tasks_python&#45;&gt;vmklib_tasks_venv</title><style>.edge>path:hover{stroke-width:8}</style>
<path fill="none" stroke="black" d="M606.39,-108.63C587.88,-94.04 562.49,-74.01 542.33,-58.11"/>
<polygon fill="#8547c2" stroke="black" points="544.34,-55.24 534.32,-51.79 540,-60.73 544.34,-55.24"/>
</g>
</g>
</svg>
