<?xml version="1.0" encoding="UTF-8" standalone="no"?>
<!DOCTYPE svg PUBLIC "-//W3C//DTD SVG 1.1//EN"
 "http://www.w3.org/Graphics/SVG/1.1/DTD/svg11.dtd">
<!-- Generated by graphviz version 3.0.1~dev.20220405.0544 (20220405.0544)
 -->
<!-- Title: G Pages: 1 -->
<svg width="644pt" height="704pt"
 viewBox="0.00 0.00 643.69 704.29" xmlns="http://www.w3.org/2000/svg" xmlns:xlink="http://www.w3.org/1999/xlink">
<g id="graph0" class="graph" transform="scale(1 1) rotate(0) translate(4 700.29)">
<title>G</title><style>.edge>path:hover{stroke-width:8}</style>
<polygon fill="white" stroke="transparent" points="-4,4 -4,-700.29 639.69,-700.29 639.69,4 -4,4"/>
<!-- __main__ -->
<g id="node1" class="node">
<title>__main__</title><style>.edge>path:hover{stroke-width:8}</style>
<ellipse fill="#723131" stroke="black" cx="327.22" cy="-678.29" rx="36.07" ry="18"/>
<text text-anchor="middle" x="327.22" y="-675.29" font-family="Helvetica,sans-Serif" font-size="10.00" fill="#ffffff">__main__</text>
</g>
<!-- pkg_resources -->
<g id="node2" class="node">
<title>pkg_resources</title><style>.edge>path:hover{stroke-width:8}</style>
<ellipse fill="#7ab83d" stroke="black" cx="327.22" cy="-593.18" rx="49.13" ry="18"/>
<text text-anchor="middle" x="327.22" y="-590.18" font-family="Helvetica,sans-Serif" font-size="10.00" fill="#000000">pkg_resources</text>
</g>
<!-- __main__&#45;&gt;pkg_resources -->
<g id="edge1" class="edge">
<title>__main__&#45;&gt;pkg_resources</title><style>.edge>path:hover{stroke-width:8}</style>
<path fill="none" stroke="black" d="M327.22,-660.07C327.22,-648.93 327.22,-634.18 327.22,-621.46"/>
<polygon fill="#723131" stroke="black" points="330.72,-621.38 327.22,-611.38 323.72,-621.38 330.72,-621.38"/>
</g>
<!-- vmklib_resources -->
<g id="node13" class="node">
<title>vmklib_resources</title><style>.edge>path:hover{stroke-width:8}</style>
<ellipse fill="#752fbc" stroke="black" cx="337.22" cy="-449.47" rx="42.22" ry="22.76"/>
<text text-anchor="middle" x="337.22" y="-452.47" font-family="Helvetica,sans-Serif" font-size="10.00" fill="#ffffff">vmklib.</text>
<text text-anchor="middle" x="337.22" y="-440.47" font-family="Helvetica,sans-Serif" font-size="10.00" fill="#ffffff">resources</text>
</g>
<!-- pkg_resources&#45;&gt;vmklib_resources -->
<g id="edge2" class="edge">
<title>pkg_resources&#45;&gt;vmklib_resources</title><style>.edge>path:hover{stroke-width:8}</style>
<path fill="none" stroke="black" d="M328.43,-575.09C330.04,-552.24 332.93,-511.3 334.95,-482.6"/>
<polygon fill="#7ab83d" stroke="black" points="338.47,-482.49 335.68,-472.26 331.49,-481.99 338.47,-482.49"/>
</g>
<!-- vcorelib -->
<g id="node3" class="node">
<title>vcorelib</title><style>.edge>path:hover{stroke-width:8}</style>
<ellipse fill="#10f9f9" stroke="black" cx="230.22" cy="-593.18" rx="30.19" ry="18"/>
<text text-anchor="middle" x="230.22" y="-590.18" font-family="Helvetica,sans-Serif" font-size="10.00" fill="#000000">vcorelib</text>
</g>
<!-- vmklib_app -->
<g id="node11" class="node">
<title>vmklib_app</title><style>.edge>path:hover{stroke-width:8}</style>
<ellipse fill="#6b35a1" stroke="black" cx="201.22" cy="-342.76" rx="38.23" ry="18"/>
<text text-anchor="middle" x="201.22" y="-339.76" font-family="Helvetica,sans-Serif" font-size="10.00" fill="#ffffff">vmklib.app</text>
</g>
<!-- vcorelib&#45;&gt;vmklib_app -->
<g id="edge3" class="edge">
<title>vcorelib&#45;&gt;vmklib_app</title><style>.edge>path:hover{stroke-width:8}</style>
<path fill="none" stroke="black" d="M239.91,-575.83C247.63,-562.58 258.54,-543.34 267.22,-526.07"/>
<path fill="none" stroke="black" d="M267.22,-525.07C282.12,-495.45 268.67,-483.59 267.22,-450.47"/>
<path fill="none" stroke="black" d="M267.22,-448.47C265.82,-416.44 243.64,-386.18 225.37,-366.5"/>
<polygon fill="#10f9f9" stroke="black" points="227.83,-364.01 218.36,-359.25 222.79,-368.87 227.83,-364.01"/>
</g>
<!-- vcorelib&#45;&gt;vmklib_resources -->
<g id="edge4" class="edge">
<title>vcorelib&#45;&gt;vmklib_resources</title><style>.edge>path:hover{stroke-width:8}</style>
<path fill="none" stroke="black" d="M267.22,-525.07C276.71,-506.19 292.5,-488.75 306.68,-475.48"/>
<polygon fill="#10f9f9" stroke="black" points="309.27,-477.86 314.35,-468.56 304.58,-472.67 309.27,-477.86"/>
</g>
<!-- vmklib_tasks_mixins_concrete -->
<g id="node15" class="node">
<title>vmklib_tasks_mixins_concrete</title><style>.edge>path:hover{stroke-width:8}</style>
<ellipse fill="#753ab0" stroke="black" cx="341.22" cy="-236.05" rx="38.37" ry="39.7"/>
<text text-anchor="middle" x="341.22" y="-251.05" font-family="Helvetica,sans-Serif" font-size="10.00" fill="#ffffff">vmklib.</text>
<text text-anchor="middle" x="341.22" y="-239.05" font-family="Helvetica,sans-Serif" font-size="10.00" fill="#ffffff">tasks.</text>
<text text-anchor="middle" x="341.22" y="-227.05" font-family="Helvetica,sans-Serif" font-size="10.00" fill="#ffffff">mixins.</text>
<text text-anchor="middle" x="341.22" y="-215.05" font-family="Helvetica,sans-Serif" font-size="10.00" fill="#ffffff">concrete</text>
</g>
<!-- vcorelib&#45;&gt;vmklib_tasks_mixins_concrete -->
<g id="edge5" class="edge">
<title>vcorelib&#45;&gt;vmklib_tasks_mixins_concrete</title><style>.edge>path:hover{stroke-width:8}</style>
<path fill="none" stroke="black" d="M267.22,-448.47C265.06,-399.01 295.38,-392.28 305.22,-343.76"/>
</g>
<!-- vmklib_tasks_venv -->
<g id="node17" class="node">
<title>vmklib_tasks_venv</title><style>.edge>path:hover{stroke-width:8}</style>
<ellipse fill="#4c2e6b" stroke="black" cx="462.22" cy="-31.11" rx="33.13" ry="31.23"/>
<text text-anchor="middle" x="462.22" y="-40.11" font-family="Helvetica,sans-Serif" font-size="10.00" fill="#ffffff">vmklib.</text>
<text text-anchor="middle" x="462.22" y="-28.11" font-family="Helvetica,sans-Serif" font-size="10.00" fill="#ffffff">tasks.</text>
<text text-anchor="middle" x="462.22" y="-16.11" font-family="Helvetica,sans-Serif" font-size="10.00" fill="#ffffff">venv</text>
</g>
<!-- vcorelib&#45;&gt;vmklib_tasks_venv -->
<g id="edge6" class="edge">
<title>vcorelib&#45;&gt;vmklib_tasks_venv</title><style>.edge>path:hover{stroke-width:8}</style>
<path fill="none" stroke="black" d="M267.22,-448.47C262.31,-335.93 254.29,-301.78 294.22,-196.45 307,-162.74 325.72,-162.89 341.22,-130.34"/>
<path fill="none" stroke="black" d="M341.22,-128.34C357.65,-92.71 394.77,-66.39 423.59,-50.37"/>
<polygon fill="#10f9f9" stroke="black" points="425.46,-53.34 432.62,-45.53 422.16,-47.17 425.46,-53.34"/>
</g>
<!-- vcorelib_dict -->
<g id="node4" class="node">
<title>vcorelib_dict</title><style>.edge>path:hover{stroke-width:8}</style>
<ellipse fill="#47c2c2" stroke="black" cx="186.22" cy="-678.29" rx="41.24" ry="18"/>
<text text-anchor="middle" x="186.22" y="-675.29" font-family="Helvetica,sans-Serif" font-size="10.00" fill="#000000">vcorelib.dict</text>
</g>
<!-- vcorelib_task -->
<g id="node6" class="node">
<title>vcorelib_task</title><style>.edge>path:hover{stroke-width:8}</style>
<ellipse fill="#18dddd" stroke="black" cx="139.22" cy="-593.18" rx="43.08" ry="18"/>
<text text-anchor="middle" x="139.22" y="-590.18" font-family="Helvetica,sans-Serif" font-size="10.00" fill="#000000">vcorelib.task</text>
</g>
<!-- vcorelib_dict&#45;&gt;vcorelib_task -->
<g id="edge7" class="edge">
<title>vcorelib_dict&#45;&gt;vcorelib_task</title><style>.edge>path:hover{stroke-width:8}</style>
<path fill="none" stroke="black" d="M176.71,-660.47C170.15,-648.87 161.3,-633.22 153.85,-620.04"/>
<polygon fill="#47c2c2" stroke="black" points="156.69,-617.96 148.72,-610.97 150.59,-621.4 156.69,-617.96"/>
</g>
<!-- vcorelib_dict&#45;&gt;vmklib_tasks_venv -->
<g id="edge8" class="edge">
<title>vcorelib_dict&#45;&gt;vmklib_tasks_venv</title><style>.edge>path:hover{stroke-width:8}</style>
<path fill="none" stroke="black" d="M224.05,-670.51C241.72,-667.36 263.04,-663.6 282.22,-660.29 329.96,-652.07 465.92,-661.27 497.22,-624.29 515.09,-603.18 504.39,-588.78 497.22,-562.07 476.97,-486.6 460.78,-468.58 409.22,-409.87 391.86,-390.1 373.87,-397.47 362.22,-373.87 349.98,-349.07 353.71,-337.96 362.22,-311.65 374.13,-274.81 413.21,-275.3 407.22,-237.05"/>
<path fill="none" stroke="black" d="M407.22,-235.05C403.59,-216.28 398.01,-212.87 388.22,-196.45 369.76,-165.49 326.13,-163.08 341.22,-130.34"/>
</g>
<!-- vcorelib_paths -->
<g id="node5" class="node">
<title>vcorelib_paths</title><style>.edge>path:hover{stroke-width:8}</style>
<ellipse fill="#33cccc" stroke="black" cx="441.22" cy="-593.18" rx="46.95" ry="18"/>
<text text-anchor="middle" x="441.22" y="-590.18" font-family="Helvetica,sans-Serif" font-size="10.00" fill="#000000">vcorelib.paths</text>
</g>
<!-- vcorelib_paths&#45;&gt;vmklib_resources -->
<g id="edge9" class="edge">
<title>vcorelib_paths&#45;&gt;vmklib_resources</title><style>.edge>path:hover{stroke-width:8}</style>
<path fill="none" stroke="black" d="M432.31,-575.46C425.3,-562.16 415.39,-543.05 407.22,-526.07"/>
<path fill="none" stroke="black" d="M407.22,-525.07C398.06,-506.03 382.3,-488.57 368.04,-475.34"/>
<polygon fill="#33cccc" stroke="black" points="370.12,-472.51 360.33,-468.45 365.45,-477.72 370.12,-472.51"/>
</g>
<!-- vcorelib_paths&#45;&gt;vmklib_tasks_mixins_concrete -->
<g id="edge10" class="edge">
<title>vcorelib_paths&#45;&gt;vmklib_tasks_mixins_concrete</title><style>.edge>path:hover{stroke-width:8}</style>
<path fill="none" stroke="black" d="M407.22,-525.07C384.72,-478.31 417.23,-452.9 388.22,-409.87 361.86,-370.77 296.71,-390.15 305.22,-343.76"/>
</g>
<!-- vcorelib_paths&#45;&gt;vmklib_tasks_venv -->
<g id="edge11" class="edge">
<title>vcorelib_paths&#45;&gt;vmklib_tasks_venv</title><style>.edge>path:hover{stroke-width:8}</style>
<path fill="none" stroke="black" d="M473.73,-580.21C510.08,-564.99 567.61,-535.02 596.22,-489.07 630.65,-433.78 598.97,-406.83 615.22,-343.76"/>
</g>
<!-- vcorelib_task&#45;&gt;vmklib_app -->
<g id="edge12" class="edge">
<title>vcorelib_task&#45;&gt;vmklib_app</title><style>.edge>path:hover{stroke-width:8}</style>
<path fill="none" stroke="black" d="M146.22,-525.07C154.56,-498.22 177.65,-508.23 198.22,-489.07 214.32,-474.07 218.19,-469.51 229.22,-450.47"/>
<path fill="none" stroke="black" d="M229.22,-448.47C243.66,-423.54 230.81,-390.97 218.15,-368.82"/>
<polygon fill="#18dddd" stroke="black" points="220.99,-366.75 212.81,-360.02 215,-370.38 220.99,-366.75"/>
</g>
<!-- vcorelib_task&#45;&gt;vmklib_tasks_mixins_concrete -->
<g id="edge13" class="edge">
<title>vcorelib_task&#45;&gt;vmklib_tasks_mixins_concrete</title><style>.edge>path:hover{stroke-width:8}</style>
<path fill="none" stroke="black" d="M229.22,-448.47C239.35,-430.99 241.63,-426.41 253.22,-409.87 274.68,-379.26 297.79,-380.4 305.22,-343.76"/>
<path fill="none" stroke="black" d="M305.22,-341.76C309.27,-321.8 316.13,-300.42 322.79,-282.22"/>
<polygon fill="#18dddd" stroke="black" points="326.11,-283.34 326.34,-272.74 319.56,-280.88 326.11,-283.34"/>
</g>
<!-- vcorelib_task&#45;&gt;vmklib_tasks_venv -->
<g id="edge14" class="edge">
<title>vcorelib_task&#45;&gt;vmklib_tasks_venv</title><style>.edge>path:hover{stroke-width:8}</style>
<path fill="none" stroke="black" d="M139.22,-574.96C139.65,-561.4 141.22,-542.16 146.22,-526.07"/>
<path fill="none" stroke="black" d="M146.22,-525.07C156.06,-493.41 143.87,-483.54 146.22,-450.47"/>
</g>
<!-- vcorelib_task_manager -->
<g id="node7" class="node">
<title>vcorelib_task_manager</title><style>.edge>path:hover{stroke-width:8}</style>
<ellipse fill="#3db8b8" stroke="black" cx="39.22" cy="-593.18" rx="39.44" ry="31.23"/>
<text text-anchor="middle" x="39.22" y="-602.18" font-family="Helvetica,sans-Serif" font-size="10.00" fill="#000000">vcorelib.</text>
<text text-anchor="middle" x="39.22" y="-590.18" font-family="Helvetica,sans-Serif" font-size="10.00" fill="#000000">task.</text>
<text text-anchor="middle" x="39.22" y="-578.18" font-family="Helvetica,sans-Serif" font-size="10.00" fill="#000000">manager</text>
</g>
<!-- vcorelib_task_manager&#45;&gt;vmklib_app -->
<g id="edge15" class="edge">
<title>vcorelib_task_manager&#45;&gt;vmklib_app</title><style>.edge>path:hover{stroke-width:8}</style>
<path fill="none" stroke="black" d="M108.22,-525.07C126.74,-503.92 143.89,-511.94 160.22,-489.07 185.7,-453.39 195.39,-402.29 199.04,-371.16"/>
<polygon fill="#3db8b8" stroke="black" points="202.54,-371.35 200.1,-361.04 195.58,-370.63 202.54,-371.35"/>
</g>
<!-- vcorelib_task_manager&#45;&gt;vmklib_tasks_venv -->
<g id="edge16" class="edge">
<title>vcorelib_task_manager&#45;&gt;vmklib_tasks_venv</title><style>.edge>path:hover{stroke-width:8}</style>
<path fill="none" stroke="black" d="M65.38,-569.48C78.83,-557.23 95.12,-541.49 108.22,-526.07"/>
<path fill="none" stroke="black" d="M108.22,-525.07C132.31,-496.71 143.58,-487.58 146.22,-450.47"/>
<path fill="none" stroke="black" d="M146.22,-448.47C157.26,-293.16 54.98,-218.2 154.22,-98.23 187.43,-58.08 341.83,-41.07 418.62,-35"/>
<polygon fill="#3db8b8" stroke="black" points="419.21,-38.46 428.92,-34.21 418.68,-31.48 419.21,-38.46"/>
</g>
<!-- vcorelib_task_subprocess -->
<g id="node8" class="node">
<title>vcorelib_task_subprocess</title><style>.edge>path:hover{stroke-width:8}</style>
<ellipse fill="#53b6b6" stroke="black" cx="418.22" cy="-342.76" rx="47.45" ry="31.23"/>
<text text-anchor="middle" x="418.22" y="-351.76" font-family="Helvetica,sans-Serif" font-size="10.00" fill="#000000">vcorelib.</text>
<text text-anchor="middle" x="418.22" y="-339.76" font-family="Helvetica,sans-Serif" font-size="10.00" fill="#000000">task.</text>
<text text-anchor="middle" x="418.22" y="-327.76" font-family="Helvetica,sans-Serif" font-size="10.00" fill="#000000">subprocess</text>
</g>
<!-- vcorelib_task_subprocess&#45;&gt;vmklib_tasks_venv -->
<g id="edge17" class="edge">
<title>vcorelib_task_subprocess&#45;&gt;vmklib_tasks_venv</title><style>.edge>path:hover{stroke-width:8}</style>
<path fill="none" stroke="black" d="M415.85,-311.41C414.01,-290.45 411.12,-261.97 407.22,-237.05"/>
</g>
<!-- vcorelib_task_subprocess_run -->
<g id="node9" class="node">
<title>vcorelib_task_subprocess_run</title><style>.edge>path:hover{stroke-width:8}</style>
<ellipse fill="#49acac" stroke="black" cx="538.22" cy="-449.47" rx="49.38" ry="39.7"/>
<text text-anchor="middle" x="538.22" y="-464.47" font-family="Helvetica,sans-Serif" font-size="10.00" fill="#000000">vcorelib.</text>
<text text-anchor="middle" x="538.22" y="-452.47" font-family="Helvetica,sans-Serif" font-size="10.00" fill="#000000">task.</text>
<text text-anchor="middle" x="538.22" y="-440.47" font-family="Helvetica,sans-Serif" font-size="10.00" fill="#000000">subprocess.</text>
<text text-anchor="middle" x="538.22" y="-428.47" font-family="Helvetica,sans-Serif" font-size="10.00" fill="#000000">run</text>
</g>
<!-- vcorelib_task_subprocess_run&#45;&gt;vmklib_tasks_venv -->
<g id="edge18" class="edge">
<title>vcorelib_task_subprocess_run&#45;&gt;vmklib_tasks_venv</title><style>.edge>path:hover{stroke-width:8}</style>
<path fill="none" stroke="black" d="M570.89,-419.65C589.47,-400.43 610.05,-373.32 615.22,-343.76"/>
<path fill="none" stroke="black" d="M615.22,-341.76C633.92,-234.82 657.09,-188.12 596.22,-98.23 575.22,-67.21 535.29,-50.15 504.46,-41.17"/>
<polygon fill="#49acac" stroke="black" points="505.37,-37.79 494.8,-38.53 503.53,-44.54 505.37,-37.79"/>
</g>
<!-- vmklib___main__ -->
<g id="node10" class="node">
<title>vmklib___main__</title><style>.edge>path:hover{stroke-width:8}</style>
<ellipse fill="#7a49ac" stroke="black" cx="205.22" cy="-129.34" rx="42.24" ry="22.76"/>
<text text-anchor="middle" x="205.22" y="-132.34" font-family="Helvetica,sans-Serif" font-size="10.00" fill="#ffffff">vmklib.</text>
<text text-anchor="middle" x="205.22" y="-120.34" font-family="Helvetica,sans-Serif" font-size="10.00" fill="#ffffff">__main__</text>
</g>
<!-- vmklib_entry -->
<g id="node12" class="node">
<title>vmklib_entry</title><style>.edge>path:hover{stroke-width:8}</style>
<ellipse fill="#7a3db8" stroke="black" cx="205.22" cy="-236.05" rx="41.9" ry="18"/>
<text text-anchor="middle" x="205.22" y="-233.05" font-family="Helvetica,sans-Serif" font-size="10.00" fill="#ffffff">vmklib.entry</text>
</g>
<!-- vmklib_app&#45;&gt;vmklib_entry -->
<g id="edge19" class="edge">
<title>vmklib_app&#45;&gt;vmklib_entry</title><style>.edge>path:hover{stroke-width:8}</style>
<path fill="none" stroke="black" d="M201.88,-324.47C202.5,-308.17 203.45,-283.49 204.17,-264.51"/>
<polygon fill="#6b35a1" stroke="black" points="207.68,-264.49 204.56,-254.37 200.68,-264.22 207.68,-264.49"/>
</g>
<!-- vmklib_entry&#45;&gt;vmklib___main__ -->
<g id="edge20" class="edge">
<title>vmklib_entry&#45;&gt;vmklib___main__</title><style>.edge>path:hover{stroke-width:8}</style>
<path fill="none" stroke="black" d="M205.22,-217.76C205.22,-202.71 205.22,-180.5 205.22,-162.23"/>
<polygon fill="#7a3db8" stroke="black" points="208.72,-162.01 205.22,-152.01 201.72,-162.01 208.72,-162.01"/>
</g>
<!-- vmklib_resources&#45;&gt;vmklib_app -->
<g id="edge21" class="edge">
<title>vmklib_resources&#45;&gt;vmklib_app</title><style>.edge>path:hover{stroke-width:8}</style>
<path fill="none" stroke="black" d="M313.84,-430.47C290.1,-412.19 253.36,-383.9 228.35,-364.64"/>
<polygon fill="#752fbc" stroke="black" points="230.41,-361.81 220.35,-358.49 226.14,-367.36 230.41,-361.81"/>
</g>
<!-- vmklib_resources&#45;&gt;vmklib_tasks_venv -->
<g id="edge22" class="edge">
<title>vmklib_resources&#45;&gt;vmklib_tasks_venv</title><style>.edge>path:hover{stroke-width:8}</style>
<path fill="none" stroke="black" d="M375.31,-439.36C407.96,-429.31 452.99,-409.61 474.22,-373.87 531.48,-277.5 497.75,-137.38 476.1,-70.47"/>
<polygon fill="#752fbc" stroke="black" points="479.35,-69.15 472.88,-60.76 472.71,-71.35 479.35,-69.15"/>
</g>
<!-- vmklib_tasks_mixins -->
<g id="node14" class="node">
<title>vmklib_tasks_mixins</title><style>.edge>path:hover{stroke-width:8}</style>
<ellipse fill="#8547c2" stroke="black" cx="432.22" cy="-129.34" rx="33.13" ry="31.23"/>
<text text-anchor="middle" x="432.22" y="-138.34" font-family="Helvetica,sans-Serif" font-size="10.00" fill="#ffffff">vmklib.</text>
<text text-anchor="middle" x="432.22" y="-126.34" font-family="Helvetica,sans-Serif" font-size="10.00" fill="#ffffff">tasks.</text>
<text text-anchor="middle" x="432.22" y="-114.34" font-family="Helvetica,sans-Serif" font-size="10.00" fill="#ffffff">mixins</text>
</g>
<!-- vmklib_tasks_mixins&#45;&gt;vmklib_tasks_venv -->
<g id="edge23" class="edge">
<title>vmklib_tasks_mixins&#45;&gt;vmklib_tasks_venv</title><style>.edge>path:hover{stroke-width:8}</style>
<path fill="none" stroke="black" d="M441.3,-99.21C444.09,-90.26 447.21,-80.26 450.17,-70.78"/>
<polygon fill="#8547c2" stroke="black" points="453.54,-71.73 453.17,-61.15 446.85,-69.65 453.54,-71.73"/>
</g>
<!-- vmklib_tasks_mixins_concrete&#45;&gt;vmklib_tasks_venv -->
<g id="edge24" class="edge">
<title>vmklib_tasks_mixins_concrete&#45;&gt;vmklib_tasks_venv</title><style>.edge>path:hover{stroke-width:8}</style>
<path fill="none" stroke="black" d="M333.55,-196.97C331.22,-176.3 331.45,-150.85 341.22,-130.34"/>
</g>
<!-- vmklib_tasks_python -->
<g id="node16" class="node">
<title>vmklib_tasks_python</title><style>.edge>path:hover{stroke-width:8}</style>
<ellipse fill="#8547c2" stroke="black" cx="554.22" cy="-129.34" rx="33.13" ry="31.23"/>
<text text-anchor="middle" x="554.22" y="-138.34" font-family="Helvetica,sans-Serif" font-size="10.00" fill="#ffffff">vmklib.</text>
<text text-anchor="middle" x="554.22" y="-126.34" font-family="Helvetica,sans-Serif" font-size="10.00" fill="#ffffff">tasks.</text>
<text text-anchor="middle" x="554.22" y="-114.34" font-family="Helvetica,sans-Serif" font-size="10.00" fill="#ffffff">python</text>
</g>
<!-- vmklib_tasks_python&#45;&gt;vmklib_tasks_venv -->
<g id="edge25" class="edge">
<title>vmklib_tasks_python&#45;&gt;vmklib_tasks_venv</title><style>.edge>path:hover{stroke-width:8}</style>
<path fill="none" stroke="black" d="M532.42,-105.53C520.13,-92.69 504.63,-76.47 491.32,-62.55"/>
<polygon fill="#8547c2" stroke="black" points="493.63,-59.9 484.19,-55.09 488.57,-64.73 493.63,-59.9"/>
</g>
</g>
</svg>
