<?xml version="1.0" encoding="UTF-8" standalone="no"?>
<!DOCTYPE svg PUBLIC "-//W3C//DTD SVG 1.1//EN"
 "http://www.w3.org/Graphics/SVG/1.1/DTD/svg11.dtd">
<!-- Generated by graphviz version 3.0.1~dev.20220405.0544 (20220405.0544)
 -->
<!-- Title: G Pages: 1 -->
<svg width="629pt" height="704pt"
 viewBox="0.00 0.00 629.24 704.29" xmlns="http://www.w3.org/2000/svg" xmlns:xlink="http://www.w3.org/1999/xlink">
<g id="graph0" class="graph" transform="scale(1 1) rotate(0) translate(4 700.29)">
<title>G</title><style>.edge>path:hover{stroke-width:8}</style>
<polygon fill="white" stroke="transparent" points="-4,4 -4,-700.29 625.24,-700.29 625.24,4 -4,4"/>
<!-- __main__ -->
<g id="node1" class="node">
<title>__main__</title><style>.edge>path:hover{stroke-width:8}</style>
<ellipse fill="#723131" stroke="black" cx="361.52" cy="-678.29" rx="36.07" ry="18"/>
<text text-anchor="middle" x="361.52" y="-675.29" font-family="Helvetica,sans-Serif" font-size="10.00" fill="#ffffff">__main__</text>
</g>
<!-- pkg_resources -->
<g id="node2" class="node">
<title>pkg_resources</title><style>.edge>path:hover{stroke-width:8}</style>
<ellipse fill="#7ab83d" stroke="black" cx="361.52" cy="-593.18" rx="49.13" ry="18"/>
<text text-anchor="middle" x="361.52" y="-590.18" font-family="Helvetica,sans-Serif" font-size="10.00" fill="#000000">pkg_resources</text>
</g>
<!-- __main__&#45;&gt;pkg_resources -->
<g id="edge1" class="edge">
<title>__main__&#45;&gt;pkg_resources</title><style>.edge>path:hover{stroke-width:8}</style>
<path fill="none" stroke="black" d="M361.52,-660.07C361.52,-648.93 361.52,-634.18 361.52,-621.46"/>
<polygon fill="#723131" stroke="black" points="365.02,-621.38 361.52,-611.38 358.02,-621.38 365.02,-621.38"/>
</g>
<!-- vmklib_resources -->
<g id="node13" class="node">
<title>vmklib_resources</title><style>.edge>path:hover{stroke-width:8}</style>
<ellipse fill="#752fbc" stroke="black" cx="265.52" cy="-449.47" rx="42.22" ry="22.76"/>
<text text-anchor="middle" x="265.52" y="-452.47" font-family="Helvetica,sans-Serif" font-size="10.00" fill="#ffffff">vmklib.</text>
<text text-anchor="middle" x="265.52" y="-440.47" font-family="Helvetica,sans-Serif" font-size="10.00" fill="#ffffff">resources</text>
</g>
<!-- pkg_resources&#45;&gt;vmklib_resources -->
<g id="edge2" class="edge">
<title>pkg_resources&#45;&gt;vmklib_resources</title><style>.edge>path:hover{stroke-width:8}</style>
<path fill="none" stroke="black" d="M350.32,-575.65C334.36,-552.09 304.84,-508.52 285.19,-479.51"/>
<polygon fill="#7ab83d" stroke="black" points="287.94,-477.33 279.43,-471.01 282.14,-481.25 287.94,-477.33"/>
</g>
<!-- vcorelib -->
<g id="node3" class="node">
<title>vcorelib</title><style>.edge>path:hover{stroke-width:8}</style>
<ellipse fill="#10f9f9" stroke="black" cx="264.52" cy="-593.18" rx="30.19" ry="18"/>
<text text-anchor="middle" x="264.52" y="-590.18" font-family="Helvetica,sans-Serif" font-size="10.00" fill="#000000">vcorelib</text>
</g>
<!-- vmklib_app -->
<g id="node11" class="node">
<title>vmklib_app</title><style>.edge>path:hover{stroke-width:8}</style>
<ellipse fill="#6b35a1" stroke="black" cx="298.52" cy="-342.76" rx="38.23" ry="18"/>
<text text-anchor="middle" x="298.52" y="-339.76" font-family="Helvetica,sans-Serif" font-size="10.00" fill="#ffffff">vmklib.app</text>
</g>
<!-- vcorelib&#45;&gt;vmklib_app -->
<g id="edge3" class="edge">
<title>vcorelib&#45;&gt;vmklib_app</title><style>.edge>path:hover{stroke-width:8}</style>
<path fill="none" stroke="black" d="M204.52,-525.07C203.98,-491.68 181.02,-480.55 195.52,-450.47"/>
</g>
<!-- vcorelib&#45;&gt;vmklib_resources -->
<g id="edge4" class="edge">
<title>vcorelib&#45;&gt;vmklib_resources</title><style>.edge>path:hover{stroke-width:8}</style>
<path fill="none" stroke="black" d="M204.52,-525.07C204.19,-505.03 217.53,-487.4 231.82,-474.33"/>
<polygon fill="#10f9f9" stroke="black" points="234.44,-476.7 239.77,-467.54 229.89,-471.37 234.44,-476.7"/>
</g>
<!-- vmklib_tasks_mixins_concrete -->
<g id="node15" class="node">
<title>vmklib_tasks_mixins_concrete</title><style>.edge>path:hover{stroke-width:8}</style>
<ellipse fill="#7a3db8" stroke="black" cx="76.52" cy="-236.05" rx="38.37" ry="39.7"/>
<text text-anchor="middle" x="76.52" y="-251.05" font-family="Helvetica,sans-Serif" font-size="10.00" fill="#ffffff">vmklib.</text>
<text text-anchor="middle" x="76.52" y="-239.05" font-family="Helvetica,sans-Serif" font-size="10.00" fill="#ffffff">tasks.</text>
<text text-anchor="middle" x="76.52" y="-227.05" font-family="Helvetica,sans-Serif" font-size="10.00" fill="#ffffff">mixins.</text>
<text text-anchor="middle" x="76.52" y="-215.05" font-family="Helvetica,sans-Serif" font-size="10.00" fill="#ffffff">concrete</text>
</g>
<!-- vcorelib&#45;&gt;vmklib_tasks_mixins_concrete -->
<g id="edge5" class="edge">
<title>vcorelib&#45;&gt;vmklib_tasks_mixins_concrete</title><style>.edge>path:hover{stroke-width:8}</style>
<path fill="none" stroke="black" d="M247.56,-578.18C229.89,-562.91 204.72,-538.93 204.52,-526.07"/>
<path fill="none" stroke="black" d="M204.52,-525.07C204.21,-506.08 190.31,-505.89 181.52,-489.07 145.11,-419.42 111.81,-334.26 92.87,-282.91"/>
<polygon fill="#10f9f9" stroke="black" points="96.12,-281.6 89.39,-273.42 89.55,-284.01 96.12,-281.6"/>
</g>
<!-- vmklib_tasks_venv -->
<g id="node17" class="node">
<title>vmklib_tasks_venv</title><style>.edge>path:hover{stroke-width:8}</style>
<ellipse fill="#4c2e6b" stroke="black" cx="421.52" cy="-31.11" rx="33.13" ry="31.23"/>
<text text-anchor="middle" x="421.52" y="-40.11" font-family="Helvetica,sans-Serif" font-size="10.00" fill="#ffffff">vmklib.</text>
<text text-anchor="middle" x="421.52" y="-28.11" font-family="Helvetica,sans-Serif" font-size="10.00" fill="#ffffff">tasks.</text>
<text text-anchor="middle" x="421.52" y="-16.11" font-family="Helvetica,sans-Serif" font-size="10.00" fill="#ffffff">venv</text>
</g>
<!-- vcorelib&#45;&gt;vmklib_tasks_venv -->
<g id="edge6" class="edge">
<title>vcorelib&#45;&gt;vmklib_tasks_venv</title><style>.edge>path:hover{stroke-width:8}</style>
<path fill="none" stroke="black" d="M204.52,-525.07C203.98,-473.56 397.57,-525.96 433.52,-489.07 478.97,-442.42 452.52,-408.89 452.52,-343.76 452.52,-343.76 452.52,-343.76 452.52,-235.05 452.52,-177.55 440.21,-111.93 431.1,-71.26"/>
<polygon fill="#10f9f9" stroke="black" points="434.5,-70.44 428.86,-61.47 427.68,-72 434.5,-70.44"/>
</g>
<!-- vcorelib_dict -->
<g id="node4" class="node">
<title>vcorelib_dict</title><style>.edge>path:hover{stroke-width:8}</style>
<ellipse fill="#47c2c2" stroke="black" cx="41.52" cy="-678.29" rx="41.24" ry="18"/>
<text text-anchor="middle" x="41.52" y="-675.29" font-family="Helvetica,sans-Serif" font-size="10.00" fill="#000000">vcorelib.dict</text>
</g>
<!-- vcorelib_task -->
<g id="node6" class="node">
<title>vcorelib_task</title><style>.edge>path:hover{stroke-width:8}</style>
<ellipse fill="#18dddd" stroke="black" cx="76.52" cy="-593.18" rx="43.08" ry="18"/>
<text text-anchor="middle" x="76.52" y="-590.18" font-family="Helvetica,sans-Serif" font-size="10.00" fill="#000000">vcorelib.task</text>
</g>
<!-- vcorelib_dict&#45;&gt;vcorelib_task -->
<g id="edge7" class="edge">
<title>vcorelib_dict&#45;&gt;vcorelib_task</title><style>.edge>path:hover{stroke-width:8}</style>
<path fill="none" stroke="black" d="M48.6,-660.47C53.44,-648.98 59.95,-633.53 65.46,-620.43"/>
<polygon fill="#47c2c2" stroke="black" points="68.79,-621.55 69.44,-610.97 62.34,-618.83 68.79,-621.55"/>
</g>
<!-- vcorelib_dict&#45;&gt;vmklib_tasks_venv -->
<g id="edge8" class="edge">
<title>vcorelib_dict&#45;&gt;vmklib_tasks_venv</title><style>.edge>path:hover{stroke-width:8}</style>
<path fill="none" stroke="black" d="M34.75,-660.37C24.32,-632.74 5.52,-576 5.52,-526.07 5.52,-526.07 5.52,-526.07 5.52,-448.47 5.52,-354.48 -9.24,-328.94 10.52,-237.05"/>
<path fill="none" stroke="black" d="M10.52,-235.05C22.57,-181.38 43.37,-174.24 76.52,-130.34"/>
<path fill="none" stroke="black" d="M76.52,-128.34C113.07,-79.93 294.31,-49.41 378.45,-37.64"/>
<polygon fill="#47c2c2" stroke="black" points="379.03,-41.09 388.46,-36.26 378.08,-34.16 379.03,-41.09"/>
</g>
<!-- vcorelib_paths -->
<g id="node5" class="node">
<title>vcorelib_paths</title><style>.edge>path:hover{stroke-width:8}</style>
<ellipse fill="#40bfc0" stroke="black" cx="574.52" cy="-593.18" rx="46.95" ry="18"/>
<text text-anchor="middle" x="574.52" y="-590.18" font-family="Helvetica,sans-Serif" font-size="10.00" fill="#000000">vcorelib.paths</text>
</g>
<!-- vcorelib_paths&#45;&gt;vmklib_resources -->
<g id="edge9" class="edge">
<title>vcorelib_paths&#45;&gt;vmklib_resources</title><style>.edge>path:hover{stroke-width:8}</style>
<path fill="none" stroke="black" d="M579.19,-575.08C582.05,-560.87 583.61,-540.69 574.52,-526.07"/>
<path fill="none" stroke="black" d="M574.52,-525.07C544.05,-476.1 370.88,-510.93 317.52,-489.07 309.44,-485.76 301.48,-480.91 294.31,-475.75"/>
<polygon fill="#40bfc0" stroke="black" points="296.37,-472.92 286.29,-469.64 292.12,-478.49 296.37,-472.92"/>
</g>
<!-- vcorelib_paths&#45;&gt;vmklib_tasks_venv -->
<g id="edge10" class="edge">
<title>vcorelib_paths&#45;&gt;vmklib_tasks_venv</title><style>.edge>path:hover{stroke-width:8}</style>
<path fill="none" stroke="black" d="M574.52,-525.07C531.95,-456.65 574.52,-424.34 574.52,-343.76 574.52,-343.76 574.52,-343.76 574.52,-235.05 574.52,-173.65 591.45,-148.01 555.52,-98.23 533.76,-68.08 494.37,-50.97 463.91,-41.75"/>
<polygon fill="#40bfc0" stroke="black" points="464.54,-38.28 453.96,-38.91 462.62,-45.02 464.54,-38.28"/>
</g>
<!-- vcorelib_task&#45;&gt;vmklib_app -->
<g id="edge11" class="edge">
<title>vcorelib_task&#45;&gt;vmklib_app</title><style>.edge>path:hover{stroke-width:8}</style>
<path fill="none" stroke="black" d="M81.52,-448.47C109.59,-371.32 178,-412.37 250.52,-373.87 256.59,-370.65 262.92,-366.94 268.92,-363.26"/>
<polygon fill="#18dddd" stroke="black" points="270.8,-366.21 277.4,-357.93 267.07,-360.28 270.8,-366.21"/>
</g>
<!-- vcorelib_task&#45;&gt;vmklib_tasks_mixins_concrete -->
<g id="edge12" class="edge">
<title>vcorelib_task&#45;&gt;vmklib_tasks_mixins_concrete</title><style>.edge>path:hover{stroke-width:8}</style>
<path fill="none" stroke="black" d="M43.52,-341.76C39.91,-320.87 45.66,-298.37 53.33,-279.6"/>
<polygon fill="#18dddd" stroke="black" points="56.54,-281 57.34,-270.43 50.12,-278.19 56.54,-281"/>
</g>
<!-- vcorelib_task&#45;&gt;vmklib_tasks_venv -->
<g id="edge13" class="edge">
<title>vcorelib_task&#45;&gt;vmklib_tasks_venv</title><style>.edge>path:hover{stroke-width:8}</style>
<path fill="none" stroke="black" d="M73.81,-574.96C70.22,-547.62 66.03,-493.04 81.52,-450.47"/>
<path fill="none" stroke="black" d="M81.52,-448.47C101.74,-403.28 51.94,-392.54 43.52,-343.76"/>
<path fill="none" stroke="black" d="M43.52,-341.76C35.21,-293.68 0.26,-284.75 10.52,-237.05"/>
</g>
<!-- vcorelib_task_manager -->
<g id="node7" class="node">
<title>vcorelib_task_manager</title><style>.edge>path:hover{stroke-width:8}</style>
<ellipse fill="#3db8b8" stroke="black" cx="176.52" cy="-593.18" rx="39.44" ry="31.23"/>
<text text-anchor="middle" x="176.52" y="-602.18" font-family="Helvetica,sans-Serif" font-size="10.00" fill="#000000">vcorelib.</text>
<text text-anchor="middle" x="176.52" y="-590.18" font-family="Helvetica,sans-Serif" font-size="10.00" fill="#000000">task.</text>
<text text-anchor="middle" x="176.52" y="-578.18" font-family="Helvetica,sans-Serif" font-size="10.00" fill="#000000">manager</text>
</g>
<!-- vcorelib_task_manager&#45;&gt;vmklib_app -->
<g id="edge14" class="edge">
<title>vcorelib_task_manager&#45;&gt;vmklib_app</title><style>.edge>path:hover{stroke-width:8}</style>
<path fill="none" stroke="black" d="M166.52,-525.07C161.82,-489.81 180.07,-482.51 195.52,-450.47"/>
<path fill="none" stroke="black" d="M195.52,-448.47C203.82,-431.25 202.48,-424.73 214.52,-409.87 229.34,-391.57 250.1,-375.17 267.28,-363.28"/>
<polygon fill="#3db8b8" stroke="black" points="269.54,-365.98 275.88,-357.49 265.63,-360.17 269.54,-365.98"/>
</g>
<!-- vcorelib_task_manager&#45;&gt;vmklib_tasks_venv -->
<g id="edge15" class="edge">
<title>vcorelib_task_manager&#45;&gt;vmklib_tasks_venv</title><style>.edge>path:hover{stroke-width:8}</style>
<path fill="none" stroke="black" d="M171.76,-562.26C170.02,-550.94 168.09,-537.92 166.52,-526.07"/>
<path fill="none" stroke="black" d="M166.52,-525.07C157.5,-457.32 144.77,-441.93 138.52,-373.87 135.99,-346.33 137.78,-339.29 138.52,-311.65 139.41,-278.46 153.73,-268.3 142.52,-237.05"/>
<path fill="none" stroke="black" d="M142.52,-235.05C135.29,-217.35 133.31,-212.87 123.52,-196.45 105.05,-165.49 54.79,-159.11 76.52,-130.34"/>
</g>
<!-- vcorelib_task_subprocess -->
<g id="node8" class="node">
<title>vcorelib_task_subprocess</title><style>.edge>path:hover{stroke-width:8}</style>
<ellipse fill="#53b6b6" stroke="black" cx="194.52" cy="-342.76" rx="47.45" ry="31.23"/>
<text text-anchor="middle" x="194.52" y="-351.76" font-family="Helvetica,sans-Serif" font-size="10.00" fill="#000000">vcorelib.</text>
<text text-anchor="middle" x="194.52" y="-339.76" font-family="Helvetica,sans-Serif" font-size="10.00" fill="#000000">task.</text>
<text text-anchor="middle" x="194.52" y="-327.76" font-family="Helvetica,sans-Serif" font-size="10.00" fill="#000000">subprocess</text>
</g>
<!-- vcorelib_task_subprocess&#45;&gt;vmklib_tasks_venv -->
<g id="edge16" class="edge">
<title>vcorelib_task_subprocess&#45;&gt;vmklib_tasks_venv</title><style>.edge>path:hover{stroke-width:8}</style>
<path fill="none" stroke="black" d="M178.07,-313.22C166.77,-292.6 152.11,-263.8 142.52,-237.05"/>
</g>
<!-- vcorelib_task_subprocess_run -->
<g id="node9" class="node">
<title>vcorelib_task_subprocess_run</title><style>.edge>path:hover{stroke-width:8}</style>
<ellipse fill="#49acac" stroke="black" cx="375.52" cy="-449.47" rx="49.38" ry="39.7"/>
<text text-anchor="middle" x="375.52" y="-464.47" font-family="Helvetica,sans-Serif" font-size="10.00" fill="#000000">vcorelib.</text>
<text text-anchor="middle" x="375.52" y="-452.47" font-family="Helvetica,sans-Serif" font-size="10.00" fill="#000000">task.</text>
<text text-anchor="middle" x="375.52" y="-440.47" font-family="Helvetica,sans-Serif" font-size="10.00" fill="#000000">subprocess.</text>
<text text-anchor="middle" x="375.52" y="-428.47" font-family="Helvetica,sans-Serif" font-size="10.00" fill="#000000">run</text>
</g>
<!-- vcorelib_task_subprocess_run&#45;&gt;vmklib_tasks_venv -->
<g id="edge17" class="edge">
<title>vcorelib_task_subprocess_run&#45;&gt;vmklib_tasks_venv</title><style>.edge>path:hover{stroke-width:8}</style>
<path fill="none" stroke="black" d="M372.28,-409.89C371.42,-389.99 371.64,-365.41 375.52,-343.76"/>
</g>
<!-- vmklib___main__ -->
<g id="node10" class="node">
<title>vmklib___main__</title><style>.edge>path:hover{stroke-width:8}</style>
<ellipse fill="#7a49ac" stroke="black" cx="260.52" cy="-129.34" rx="42.24" ry="22.76"/>
<text text-anchor="middle" x="260.52" y="-132.34" font-family="Helvetica,sans-Serif" font-size="10.00" fill="#ffffff">vmklib.</text>
<text text-anchor="middle" x="260.52" y="-120.34" font-family="Helvetica,sans-Serif" font-size="10.00" fill="#ffffff">__main__</text>
</g>
<!-- vmklib_entry -->
<g id="node12" class="node">
<title>vmklib_entry</title><style>.edge>path:hover{stroke-width:8}</style>
<ellipse fill="#7a3db8" stroke="black" cx="279.52" cy="-236.05" rx="41.9" ry="18"/>
<text text-anchor="middle" x="279.52" y="-233.05" font-family="Helvetica,sans-Serif" font-size="10.00" fill="#ffffff">vmklib.entry</text>
</g>
<!-- vmklib_app&#45;&gt;vmklib_entry -->
<g id="edge18" class="edge">
<title>vmklib_app&#45;&gt;vmklib_entry</title><style>.edge>path:hover{stroke-width:8}</style>
<path fill="none" stroke="black" d="M295.38,-324.47C292.39,-308 287.85,-282.97 284.39,-263.9"/>
<polygon fill="#6b35a1" stroke="black" points="287.82,-263.23 282.6,-254.02 280.94,-264.48 287.82,-263.23"/>
</g>
<!-- vmklib_entry&#45;&gt;vmklib___main__ -->
<g id="edge19" class="edge">
<title>vmklib_entry&#45;&gt;vmklib___main__</title><style>.edge>path:hover{stroke-width:8}</style>
<path fill="none" stroke="black" d="M276.38,-217.76C273.64,-202.63 269.58,-180.29 266.26,-161.97"/>
<polygon fill="#7a3db8" stroke="black" points="269.68,-161.23 264.45,-152.01 262.79,-162.48 269.68,-161.23"/>
</g>
<!-- vmklib_resources&#45;&gt;vmklib_app -->
<g id="edge20" class="edge">
<title>vmklib_resources&#45;&gt;vmklib_app</title><style>.edge>path:hover{stroke-width:8}</style>
<path fill="none" stroke="black" d="M272.27,-427.03C277.44,-410.62 284.6,-387.91 290.14,-370.35"/>
<polygon fill="#752fbc" stroke="black" points="293.51,-371.28 293.18,-360.69 286.84,-369.17 293.51,-371.28"/>
</g>
<!-- vmklib_resources&#45;&gt;vmklib_tasks_venv -->
<g id="edge21" class="edge">
<title>vmklib_resources&#45;&gt;vmklib_tasks_venv</title><style>.edge>path:hover{stroke-width:8}</style>
<path fill="none" stroke="black" d="M289.83,-430.88C320.97,-407.53 371.42,-366.6 375.52,-343.76"/>
<path fill="none" stroke="black" d="M375.52,-341.76C394.72,-234.61 305.73,-197.88 349.52,-98.23 357.11,-80.95 371.68,-66.21 385.75,-55.06"/>
<polygon fill="#752fbc" stroke="black" points="388.03,-57.73 393.91,-48.92 383.82,-52.14 388.03,-57.73"/>
</g>
<!-- vmklib_tasks_mixins -->
<g id="node14" class="node">
<title>vmklib_tasks_mixins</title><style>.edge>path:hover{stroke-width:8}</style>
<ellipse fill="#8547c2" stroke="black" cx="391.52" cy="-129.34" rx="33.13" ry="31.23"/>
<text text-anchor="middle" x="391.52" y="-138.34" font-family="Helvetica,sans-Serif" font-size="10.00" fill="#ffffff">vmklib.</text>
<text text-anchor="middle" x="391.52" y="-126.34" font-family="Helvetica,sans-Serif" font-size="10.00" fill="#ffffff">tasks.</text>
<text text-anchor="middle" x="391.52" y="-114.34" font-family="Helvetica,sans-Serif" font-size="10.00" fill="#ffffff">mixins</text>
</g>
<!-- vmklib_tasks_mixins&#45;&gt;vmklib_tasks_venv -->
<g id="edge22" class="edge">
<title>vmklib_tasks_mixins&#45;&gt;vmklib_tasks_venv</title><style>.edge>path:hover{stroke-width:8}</style>
<path fill="none" stroke="black" d="M400.6,-99.21C403.39,-90.26 406.5,-80.26 409.46,-70.78"/>
<polygon fill="#8547c2" stroke="black" points="412.83,-71.73 412.47,-61.15 406.15,-69.65 412.83,-71.73"/>
</g>
<!-- vmklib_tasks_mixins_concrete&#45;&gt;vmklib_tasks_venv -->
<g id="edge23" class="edge">
<title>vmklib_tasks_mixins_concrete&#45;&gt;vmklib_tasks_venv</title><style>.edge>path:hover{stroke-width:8}</style>
<path fill="none" stroke="black" d="M66.21,-197.88C62.5,-176.11 62.22,-149.27 76.52,-130.34"/>
</g>
<!-- vmklib_tasks_python -->
<g id="node16" class="node">
<title>vmklib_tasks_python</title><style>.edge>path:hover{stroke-width:8}</style>
<ellipse fill="#8547c2" stroke="black" cx="513.52" cy="-129.34" rx="33.13" ry="31.23"/>
<text text-anchor="middle" x="513.52" y="-138.34" font-family="Helvetica,sans-Serif" font-size="10.00" fill="#ffffff">vmklib.</text>
<text text-anchor="middle" x="513.52" y="-126.34" font-family="Helvetica,sans-Serif" font-size="10.00" fill="#ffffff">tasks.</text>
<text text-anchor="middle" x="513.52" y="-114.34" font-family="Helvetica,sans-Serif" font-size="10.00" fill="#ffffff">python</text>
</g>
<!-- vmklib_tasks_python&#45;&gt;vmklib_tasks_venv -->
<g id="edge24" class="edge">
<title>vmklib_tasks_python&#45;&gt;vmklib_tasks_venv</title><style>.edge>path:hover{stroke-width:8}</style>
<path fill="none" stroke="black" d="M491.71,-105.53C479.43,-92.69 463.93,-76.47 450.62,-62.55"/>
<polygon fill="#8547c2" stroke="black" points="452.92,-59.9 443.48,-55.09 447.86,-64.73 452.92,-59.9"/>
</g>
</g>
</svg>
