<?xml version="1.0" encoding="UTF-8" standalone="no"?>
<!DOCTYPE svg PUBLIC "-//W3C//DTD SVG 1.1//EN"
 "http://www.w3.org/Graphics/SVG/1.1/DTD/svg11.dtd">
<!-- Generated by graphviz version 3.0.1~dev.20220405.0544 (20220405.0544)
 -->
<!-- Title: G Pages: 1 -->
<svg width="1467pt" height="695pt"
 viewBox="0.00 0.00 1467.10 695.04" xmlns="http://www.w3.org/2000/svg" xmlns:xlink="http://www.w3.org/1999/xlink">
<g id="graph0" class="graph" transform="scale(1 1) rotate(0) translate(4 691.04)">
<title>G</title><style>.edge>path:hover{stroke-width:8}</style>
<polygon fill="white" stroke="transparent" points="-4,4 -4,-691.04 1463.1,-691.04 1463.1,4 -4,4"/>
<!-- __main__ -->
<g id="node1" class="node">
<title>__main__</title><style>.edge>path:hover{stroke-width:8}</style>
<ellipse fill="#6b2e2e" stroke="black" cx="49.06" cy="-669.04" rx="36.07" ry="18"/>
<text text-anchor="middle" x="49.06" y="-666.04" font-family="Helvetica,sans-Serif" font-size="10.00" fill="#ffffff">__main__</text>
</g>
<!-- pkg_resources -->
<g id="node2" class="node">
<title>pkg_resources</title><style>.edge>path:hover{stroke-width:8}</style>
<ellipse fill="#7ab83d" stroke="black" cx="49.06" cy="-597.04" rx="49.13" ry="18"/>
<text text-anchor="middle" x="49.06" y="-594.04" font-family="Helvetica,sans-Serif" font-size="10.00" fill="#000000">pkg_resources</text>
</g>
<!-- __main__&#45;&gt;pkg_resources -->
<g id="edge1" class="edge">
<title>__main__&#45;&gt;pkg_resources</title><style>.edge>path:hover{stroke-width:8}</style>
<path fill="none" stroke="black" d="M49.06,-650.74C49.06,-643.02 49.06,-633.75 49.06,-625.15"/>
<polygon fill="#6b2e2e" stroke="black" points="52.56,-625.14 49.06,-615.14 45.56,-625.14 52.56,-625.14"/>
</g>
<!-- vmklib_resources -->
<g id="node13" class="node">
<title>vmklib_resources</title><style>.edge>path:hover{stroke-width:8}</style>
<ellipse fill="#753ab0" stroke="black" cx="88.06" cy="-405.22" rx="42.22" ry="22.76"/>
<text text-anchor="middle" x="88.06" y="-408.22" font-family="Helvetica,sans-Serif" font-size="10.00" fill="#ffffff">vmklib.</text>
<text text-anchor="middle" x="88.06" y="-396.22" font-family="Helvetica,sans-Serif" font-size="10.00" fill="#ffffff">resources</text>
</g>
<!-- pkg_resources&#45;&gt;vmklib_resources -->
<g id="edge2" class="edge">
<title>pkg_resources&#45;&gt;vmklib_resources</title><style>.edge>path:hover{stroke-width:8}</style>
<path fill="none" stroke="black" d="M67.59,-580.28C85.25,-563.31 108.81,-534.66 106.06,-504.44"/>
<path fill="none" stroke="black" d="M106.06,-502.44C104.08,-480.59 99.52,-456.31 95.48,-437.6"/>
<polygon fill="#7ab83d" stroke="black" points="98.9,-436.84 93.32,-427.84 92.07,-438.36 98.9,-436.84"/>
</g>
<!-- vcorelib -->
<g id="node3" class="node">
<title>vcorelib</title><style>.edge>path:hover{stroke-width:8}</style>
<ellipse fill="#10f9f9" stroke="black" cx="938.06" cy="-597.04" rx="30.19" ry="18"/>
<text text-anchor="middle" x="938.06" y="-594.04" font-family="Helvetica,sans-Serif" font-size="10.00" fill="#000000">vcorelib</text>
</g>
<!-- vmklib_app -->
<g id="node11" class="node">
<title>vmklib_app</title><style>.edge>path:hover{stroke-width:8}</style>
<ellipse fill="#6b35a1" stroke="black" cx="130.06" cy="-269.99" rx="38.23" ry="18"/>
<text text-anchor="middle" x="130.06" y="-266.99" font-family="Helvetica,sans-Serif" font-size="10.00" fill="#ffffff">vmklib.app</text>
</g>
<!-- vcorelib&#45;&gt;vmklib_app -->
<g id="edge3" class="edge">
<title>vcorelib&#45;&gt;vmklib_app</title><style>.edge>path:hover{stroke-width:8}</style>
<path fill="none" stroke="black" d="M179.06,-502.44C145.33,-474.55 171.04,-448.02 158.06,-406.22"/>
<path fill="none" stroke="black" d="M158.06,-404.22C150.47,-379.75 155.74,-372.09 158.06,-346.59"/>
</g>
<!-- vcorelib&#45;&gt;vmklib_resources -->
<g id="edge4" class="edge">
<title>vcorelib&#45;&gt;vmklib_resources</title><style>.edge>path:hover{stroke-width:8}</style>
<path fill="none" stroke="black" d="M907.79,-595.19C792.8,-591.72 383.3,-577.18 258.06,-543.04 220.36,-532.76 209.18,-529.34 179.06,-504.44"/>
<path fill="none" stroke="black" d="M179.06,-502.44C153.88,-481.62 128.61,-454.25 111.11,-434.03"/>
<polygon fill="#10f9f9" stroke="black" points="113.73,-431.71 104.57,-426.39 108.41,-436.26 113.73,-431.71"/>
</g>
<!-- vmklib_tasks_mixins_concrete -->
<g id="node15" class="node">
<title>vmklib_tasks_mixins_concrete</title><style>.edge>path:hover{stroke-width:8}</style>
<ellipse fill="#7523c8" stroke="black" cx="1060.06" cy="-269.99" rx="38.37" ry="39.7"/>
<text text-anchor="middle" x="1060.06" y="-284.99" font-family="Helvetica,sans-Serif" font-size="10.00" fill="#ffffff">vmklib.</text>
<text text-anchor="middle" x="1060.06" y="-272.99" font-family="Helvetica,sans-Serif" font-size="10.00" fill="#ffffff">tasks.</text>
<text text-anchor="middle" x="1060.06" y="-260.99" font-family="Helvetica,sans-Serif" font-size="10.00" fill="#ffffff">mixins.</text>
<text text-anchor="middle" x="1060.06" y="-248.99" font-family="Helvetica,sans-Serif" font-size="10.00" fill="#ffffff">concrete</text>
</g>
<!-- vcorelib&#45;&gt;vmklib_tasks_mixins_concrete -->
<g id="edge5" class="edge">
<title>vcorelib&#45;&gt;vmklib_tasks_mixins_concrete</title><style>.edge>path:hover{stroke-width:8}</style>
<path fill="none" stroke="black" d="M966.43,-590.54C1008.43,-581.8 1084.14,-563.64 1102.06,-543.04 1142.58,-496.46 1143.46,-465.45 1126.06,-406.22"/>
<path fill="none" stroke="black" d="M1126.06,-404.22C1115.57,-363.14 1059.33,-387.95 1050.06,-346.59"/>
</g>
<!-- vmklib_tasks_python_build -->
<g id="node17" class="node">
<title>vmklib_tasks_python_build</title><style>.edge>path:hover{stroke-width:8}</style>
<ellipse fill="#573479" stroke="black" cx="810.06" cy="-39.6" rx="34.52" ry="39.7"/>
<text text-anchor="middle" x="810.06" y="-54.6" font-family="Helvetica,sans-Serif" font-size="10.00" fill="#ffffff">vmklib.</text>
<text text-anchor="middle" x="810.06" y="-42.6" font-family="Helvetica,sans-Serif" font-size="10.00" fill="#ffffff">tasks.</text>
<text text-anchor="middle" x="810.06" y="-30.6" font-family="Helvetica,sans-Serif" font-size="10.00" fill="#ffffff">python.</text>
<text text-anchor="middle" x="810.06" y="-18.6" font-family="Helvetica,sans-Serif" font-size="10.00" fill="#ffffff">build</text>
</g>
<!-- vcorelib&#45;&gt;vmklib_tasks_python_build -->
<g id="edge6" class="edge">
<title>vcorelib&#45;&gt;vmklib_tasks_python_build</title><style>.edge>path:hover{stroke-width:8}</style>
<path fill="none" stroke="black" d="M908.44,-593C825.49,-583.91 593.31,-554.48 538.06,-504.44"/>
<path fill="none" stroke="black" d="M538.06,-502.44C534.17,-498.91 383.91,-160.59 386.06,-155.79"/>
</g>
<!-- vmklib_tasks_python_lint -->
<g id="node18" class="node">
<title>vmklib_tasks_python_lint</title><style>.edge>path:hover{stroke-width:8}</style>
<ellipse fill="#6b35a1" stroke="black" cx="323.06" cy="-154.79" rx="34.52" ry="39.7"/>
<text text-anchor="middle" x="323.06" y="-169.79" font-family="Helvetica,sans-Serif" font-size="10.00" fill="#ffffff">vmklib.</text>
<text text-anchor="middle" x="323.06" y="-157.79" font-family="Helvetica,sans-Serif" font-size="10.00" fill="#ffffff">tasks.</text>
<text text-anchor="middle" x="323.06" y="-145.79" font-family="Helvetica,sans-Serif" font-size="10.00" fill="#ffffff">python.</text>
<text text-anchor="middle" x="323.06" y="-133.79" font-family="Helvetica,sans-Serif" font-size="10.00" fill="#ffffff">lint</text>
</g>
<!-- vcorelib&#45;&gt;vmklib_tasks_python_lint -->
<g id="edge7" class="edge">
<title>vcorelib&#45;&gt;vmklib_tasks_python_lint</title><style>.edge>path:hover{stroke-width:8}</style>
<path fill="none" stroke="black" d="M196.06,-345.59C198.2,-328.2 257.94,-244.33 294.72,-194.08"/>
<polygon fill="#10f9f9" stroke="black" points="297.76,-195.85 300.85,-185.72 292.11,-191.71 297.76,-195.85"/>
</g>
<!-- vmklib_tasks_python_package -->
<g id="node19" class="node">
<title>vmklib_tasks_python_package</title><style>.edge>path:hover{stroke-width:8}</style>
<ellipse fill="#573479" stroke="black" cx="1126.06" cy="-39.6" rx="38.1" ry="39.7"/>
<text text-anchor="middle" x="1126.06" y="-54.6" font-family="Helvetica,sans-Serif" font-size="10.00" fill="#ffffff">vmklib.</text>
<text text-anchor="middle" x="1126.06" y="-42.6" font-family="Helvetica,sans-Serif" font-size="10.00" fill="#ffffff">tasks.</text>
<text text-anchor="middle" x="1126.06" y="-30.6" font-family="Helvetica,sans-Serif" font-size="10.00" fill="#ffffff">python.</text>
<text text-anchor="middle" x="1126.06" y="-18.6" font-family="Helvetica,sans-Serif" font-size="10.00" fill="#ffffff">package</text>
</g>
<!-- vcorelib&#45;&gt;vmklib_tasks_python_package -->
<g id="edge8" class="edge">
<title>vcorelib&#45;&gt;vmklib_tasks_python_package</title><style>.edge>path:hover{stroke-width:8}</style>
<path fill="none" stroke="black" d="M1126.06,-404.22C1098.74,-297.24 1110.71,-265.13 1126.06,-155.79"/>
</g>
<!-- vmklib_tasks_python_sa -->
<g id="node20" class="node">
<title>vmklib_tasks_python_sa</title><style>.edge>path:hover{stroke-width:8}</style>
<ellipse fill="#613a88" stroke="black" cx="323.06" cy="-39.6" rx="34.52" ry="39.7"/>
<text text-anchor="middle" x="323.06" y="-54.6" font-family="Helvetica,sans-Serif" font-size="10.00" fill="#ffffff">vmklib.</text>
<text text-anchor="middle" x="323.06" y="-42.6" font-family="Helvetica,sans-Serif" font-size="10.00" fill="#ffffff">tasks.</text>
<text text-anchor="middle" x="323.06" y="-30.6" font-family="Helvetica,sans-Serif" font-size="10.00" fill="#ffffff">python.</text>
<text text-anchor="middle" x="323.06" y="-18.6" font-family="Helvetica,sans-Serif" font-size="10.00" fill="#ffffff">sa</text>
</g>
<!-- vcorelib&#45;&gt;vmklib_tasks_python_sa -->
<g id="edge9" class="edge">
<title>vcorelib&#45;&gt;vmklib_tasks_python_sa</title><style>.edge>path:hover{stroke-width:8}</style>
<path fill="none" stroke="black" d="M179.06,-502.44C152.21,-480.24 191.07,-381.07 196.06,-346.59"/>
<path fill="none" stroke="black" d="M196.06,-345.59C204.84,-313.62 195.33,-304.14 196.06,-270.99"/>
<path fill="none" stroke="black" d="M196.06,-268.99C197.33,-211.21 238.76,-209.52 260.06,-155.79"/>
<path fill="none" stroke="black" d="M260.06,-153.79C270.15,-128.37 284.87,-101.55 297.55,-80.4"/>
<polygon fill="#10f9f9" stroke="black" points="300.63,-82.07 302.84,-71.71 294.65,-78.43 300.63,-82.07"/>
</g>
<!-- vmklib_tasks_python_test -->
<g id="node21" class="node">
<title>vmklib_tasks_python_test</title><style>.edge>path:hover{stroke-width:8}</style>
<ellipse fill="#6b4096" stroke="black" cx="639.06" cy="-154.79" rx="34.52" ry="39.7"/>
<text text-anchor="middle" x="639.06" y="-169.79" font-family="Helvetica,sans-Serif" font-size="10.00" fill="#ffffff">vmklib.</text>
<text text-anchor="middle" x="639.06" y="-157.79" font-family="Helvetica,sans-Serif" font-size="10.00" fill="#ffffff">tasks.</text>
<text text-anchor="middle" x="639.06" y="-145.79" font-family="Helvetica,sans-Serif" font-size="10.00" fill="#ffffff">python.</text>
<text text-anchor="middle" x="639.06" y="-133.79" font-family="Helvetica,sans-Serif" font-size="10.00" fill="#ffffff">test</text>
</g>
<!-- vcorelib&#45;&gt;vmklib_tasks_python_test -->
<g id="edge10" class="edge">
<title>vcorelib&#45;&gt;vmklib_tasks_python_test</title><style>.edge>path:hover{stroke-width:8}</style>
<path fill="none" stroke="black" d="M538.06,-502.44C493.76,-466.97 640.85,-327.51 646.06,-270.99"/>
</g>
<!-- vmklib_tasks_python_yaml -->
<g id="node22" class="node">
<title>vmklib_tasks_python_yaml</title><style>.edge>path:hover{stroke-width:8}</style>
<ellipse fill="#6b4096" stroke="black" cx="849.06" cy="-154.79" rx="34.52" ry="39.7"/>
<text text-anchor="middle" x="849.06" y="-169.79" font-family="Helvetica,sans-Serif" font-size="10.00" fill="#ffffff">vmklib.</text>
<text text-anchor="middle" x="849.06" y="-157.79" font-family="Helvetica,sans-Serif" font-size="10.00" fill="#ffffff">tasks.</text>
<text text-anchor="middle" x="849.06" y="-145.79" font-family="Helvetica,sans-Serif" font-size="10.00" fill="#ffffff">python.</text>
<text text-anchor="middle" x="849.06" y="-133.79" font-family="Helvetica,sans-Serif" font-size="10.00" fill="#ffffff">yaml</text>
</g>
<!-- vcorelib&#45;&gt;vmklib_tasks_python_yaml -->
<g id="edge11" class="edge">
<title>vcorelib&#45;&gt;vmklib_tasks_python_yaml</title><style>.edge>path:hover{stroke-width:8}</style>
<path fill="none" stroke="black" d="M937.95,-578.75C937.27,-552.92 933.92,-503.09 919.06,-463.84 896.99,-405.54 842.06,-408.93 842.06,-346.59"/>
</g>
<!-- vmklib_tasks_venv -->
<g id="node23" class="node">
<title>vmklib_tasks_venv</title><style>.edge>path:hover{stroke-width:8}</style>
<ellipse fill="#4c2e6b" stroke="black" cx="1215.06" cy="-39.6" rx="33.13" ry="31.23"/>
<text text-anchor="middle" x="1215.06" y="-48.6" font-family="Helvetica,sans-Serif" font-size="10.00" fill="#ffffff">vmklib.</text>
<text text-anchor="middle" x="1215.06" y="-36.6" font-family="Helvetica,sans-Serif" font-size="10.00" fill="#ffffff">tasks.</text>
<text text-anchor="middle" x="1215.06" y="-24.6" font-family="Helvetica,sans-Serif" font-size="10.00" fill="#ffffff">venv</text>
</g>
<!-- vcorelib&#45;&gt;vmklib_tasks_venv -->
<g id="edge12" class="edge">
<title>vcorelib&#45;&gt;vmklib_tasks_venv</title><style>.edge>path:hover{stroke-width:8}</style>
<path fill="none" stroke="black" d="M967.71,-592.93C1007.65,-587.68 1079.87,-574.38 1133.06,-543.04 1237.98,-481.22 1244.91,-439.13 1324.06,-346.59"/>
</g>
<!-- vcorelib_dict -->
<g id="node4" class="node">
<title>vcorelib_dict</title><style>.edge>path:hover{stroke-width:8}</style>
<ellipse fill="#3bcece" stroke="black" cx="1096.06" cy="-669.04" rx="41.24" ry="18"/>
<text text-anchor="middle" x="1096.06" y="-666.04" font-family="Helvetica,sans-Serif" font-size="10.00" fill="#000000">vcorelib.dict</text>
</g>
<!-- vcorelib_task -->
<g id="node6" class="node">
<title>vcorelib_task</title><style>.edge>path:hover{stroke-width:8}</style>
<ellipse fill="#06efef" stroke="black" cx="1096.06" cy="-597.04" rx="43.08" ry="18"/>
<text text-anchor="middle" x="1096.06" y="-594.04" font-family="Helvetica,sans-Serif" font-size="10.00" fill="#000000">vcorelib.task</text>
</g>
<!-- vcorelib_dict&#45;&gt;vcorelib_task -->
<g id="edge13" class="edge">
<title>vcorelib_dict&#45;&gt;vcorelib_task</title><style>.edge>path:hover{stroke-width:8}</style>
<path fill="none" stroke="black" d="M1096.06,-650.74C1096.06,-643.02 1096.06,-633.75 1096.06,-625.15"/>
<polygon fill="#3bcece" stroke="black" points="1099.56,-625.14 1096.06,-615.14 1092.56,-625.14 1099.56,-625.14"/>
</g>
<!-- vcorelib_task_manager -->
<g id="node7" class="node">
<title>vcorelib_task_manager</title><style>.edge>path:hover{stroke-width:8}</style>
<ellipse fill="#05e5e5" stroke="black" cx="471.06" cy="-503.44" rx="39.44" ry="31.23"/>
<text text-anchor="middle" x="471.06" y="-512.44" font-family="Helvetica,sans-Serif" font-size="10.00" fill="#000000">vcorelib.</text>
<text text-anchor="middle" x="471.06" y="-500.44" font-family="Helvetica,sans-Serif" font-size="10.00" fill="#000000">task.</text>
<text text-anchor="middle" x="471.06" y="-488.44" font-family="Helvetica,sans-Serif" font-size="10.00" fill="#000000">manager</text>
</g>
<!-- vcorelib_dict&#45;&gt;vcorelib_task_manager -->
<g id="edge14" class="edge">
<title>vcorelib_dict&#45;&gt;vcorelib_task_manager</title><style>.edge>path:hover{stroke-width:8}</style>
<path fill="none" stroke="black" d="M1055.45,-664.93C959.22,-656.37 711.36,-627.19 524.06,-543.04 517.79,-540.22 511.52,-536.58 505.6,-532.66"/>
<polygon fill="#3bcece" stroke="black" points="507.43,-529.66 497.23,-526.78 503.41,-535.39 507.43,-529.66"/>
</g>
<!-- vcorelib_dict&#45;&gt;vmklib_tasks_venv -->
<g id="edge15" class="edge">
<title>vcorelib_dict&#45;&gt;vmklib_tasks_venv</title><style>.edge>path:hover{stroke-width:8}</style>
<path fill="none" stroke="black" d="M1134.75,-662.45C1196.25,-651.4 1315.5,-620.7 1376.06,-543.04 1414.03,-494.35 1386.6,-466.47 1400.06,-406.22"/>
</g>
<!-- vcorelib_paths -->
<g id="node5" class="node">
<title>vcorelib_paths</title><style>.edge>path:hover{stroke-width:8}</style>
<ellipse fill="#40bfc0" stroke="black" cx="163.06" cy="-597.04" rx="46.95" ry="18"/>
<text text-anchor="middle" x="163.06" y="-594.04" font-family="Helvetica,sans-Serif" font-size="10.00" fill="#000000">vcorelib.paths</text>
</g>
<!-- vcorelib_paths&#45;&gt;vmklib_resources -->
<g id="edge16" class="edge">
<title>vcorelib_paths&#45;&gt;vmklib_resources</title><style>.edge>path:hover{stroke-width:8}</style>
<path fill="none" stroke="black" d="M146.47,-579.97C130.63,-562.96 108.79,-534.47 106.06,-504.44"/>
</g>
<!-- vcorelib_paths&#45;&gt;vmklib_tasks_mixins_concrete -->
<g id="edge17" class="edge">
<title>vcorelib_paths&#45;&gt;vmklib_tasks_mixins_concrete</title><style>.edge>path:hover{stroke-width:8}</style>
<path fill="none" stroke="black" d="M209.7,-595.07C390.86,-591.06 1039.32,-574.58 1069.06,-543.04 1091.35,-519.41 1052.53,-357.62 1050.06,-346.59"/>
<path fill="none" stroke="black" d="M1050.06,-345.59C1047.79,-336.86 1047.47,-327.41 1048.22,-318.27"/>
<polygon fill="#40bfc0" stroke="black" points="1051.72,-318.49 1049.46,-308.14 1044.77,-317.64 1051.72,-318.49"/>
</g>
<!-- vcorelib_task&#45;&gt;vmklib_app -->
<g id="edge18" class="edge">
<title>vcorelib_task&#45;&gt;vmklib_app</title><style>.edge>path:hover{stroke-width:8}</style>
<path fill="none" stroke="black" d="M1056.76,-589.65C1033.62,-586.08 1003.74,-581.81 977.06,-579.04 820.36,-562.78 384.3,-614.99 272.06,-504.44"/>
<path fill="none" stroke="black" d="M272.06,-502.44C224.83,-455.91 177.72,-469.54 158.06,-406.22"/>
</g>
<!-- vcorelib_task&#45;&gt;vmklib_tasks_mixins_concrete -->
<g id="edge19" class="edge">
<title>vcorelib_task&#45;&gt;vmklib_tasks_mixins_concrete</title><style>.edge>path:hover{stroke-width:8}</style>
<path fill="none" stroke="black" d="M1088.06,-345.59C1079.88,-338.54 1074.08,-328.86 1069.98,-318.8"/>
<polygon fill="#06efef" stroke="black" points="1073.19,-317.37 1066.54,-309.12 1066.59,-319.71 1073.19,-317.37"/>
</g>
<!-- vcorelib_task&#45;&gt;vmklib_tasks_python_build -->
<g id="edge20" class="edge">
<title>vcorelib_task&#45;&gt;vmklib_tasks_python_build</title><style>.edge>path:hover{stroke-width:8}</style>
<path fill="none" stroke="black" d="M1056.35,-589.79C953.62,-573.35 684.8,-528.51 652.06,-504.44"/>
<path fill="none" stroke="black" d="M652.06,-502.44C511.91,-399.38 494.21,-256.94 595.06,-115.2 633.64,-60.98 714.49,-45.82 765.32,-41.78"/>
<polygon fill="#06efef" stroke="black" points="765.63,-45.27 775.37,-41.1 765.15,-38.28 765.63,-45.27"/>
</g>
<!-- vcorelib_task&#45;&gt;vmklib_tasks_python_lint -->
<g id="edge21" class="edge">
<title>vcorelib_task&#45;&gt;vmklib_tasks_python_lint</title><style>.edge>path:hover{stroke-width:8}</style>
<path fill="none" stroke="black" d="M272.06,-502.44C248.03,-478.77 280.68,-461.14 286.06,-427.84 298.68,-349.82 310.48,-258.74 317.22,-204.25"/>
<polygon fill="#06efef" stroke="black" points="320.71,-204.53 318.46,-194.18 313.76,-203.68 320.71,-204.53"/>
</g>
<!-- vcorelib_task&#45;&gt;vmklib_tasks_python_package -->
<g id="edge22" class="edge">
<title>vcorelib_task&#45;&gt;vmklib_tasks_python_package</title><style>.edge>path:hover{stroke-width:8}</style>
<path fill="none" stroke="black" d="M1139.43,-596.4C1191.22,-594.76 1278.35,-585.23 1338.06,-543.04 1354.56,-531.38 1352.01,-521.96 1362.06,-504.44"/>
<path fill="none" stroke="black" d="M1362.06,-502.44C1400.4,-435.59 1286.06,-423.65 1286.06,-346.59 1286.06,-346.59 1286.06,-346.59 1286.06,-268.99 1286.06,-194.95 1267.79,-173.42 1222.06,-115.2 1205.37,-93.94 1194.4,-95.78 1173.06,-79.2 1169.92,-76.75 1166.68,-74.19 1163.44,-71.6"/>
<polygon fill="#06efef" stroke="black" points="1165.43,-68.7 1155.45,-65.14 1161.03,-74.15 1165.43,-68.7"/>
</g>
<!-- vcorelib_task&#45;&gt;vmklib_tasks_python_sa -->
<g id="edge23" class="edge">
<title>vcorelib_task&#45;&gt;vmklib_tasks_python_sa</title><style>.edge>path:hover{stroke-width:8}</style>
<path fill="none" stroke="black" d="M272.06,-502.44C251.07,-485.36 195.47,-298.05 196.06,-270.99"/>
</g>
<!-- vcorelib_task&#45;&gt;vmklib_tasks_python_test -->
<g id="edge24" class="edge">
<title>vcorelib_task&#45;&gt;vmklib_tasks_python_test</title><style>.edge>path:hover{stroke-width:8}</style>
<path fill="none" stroke="black" d="M652.06,-502.44C573.67,-435.78 641.64,-373.8 646.06,-270.99"/>
</g>
<!-- vcorelib_task&#45;&gt;vmklib_tasks_python_yaml -->
<g id="edge25" class="edge">
<title>vcorelib_task&#45;&gt;vmklib_tasks_python_yaml</title><style>.edge>path:hover{stroke-width:8}</style>
<path fill="none" stroke="black" d="M1111.02,-579.71C1119.09,-569.85 1128.34,-556.6 1133.06,-543.04 1156.54,-475.63 1173.19,-445.81 1140.06,-382.59 1127.02,-357.69 1109.37,-364.93 1088.06,-346.59"/>
<path fill="none" stroke="black" d="M1088.06,-345.59C1061.5,-319.87 1043.57,-330.48 1013.06,-309.59 962.23,-274.78 911.73,-224.43 880.48,-190.93"/>
<polygon fill="#06efef" stroke="black" points="882.71,-188.18 873.35,-183.22 877.57,-192.94 882.71,-188.18"/>
</g>
<!-- vcorelib_task&#45;&gt;vmklib_tasks_venv -->
<g id="edge26" class="edge">
<title>vcorelib_task&#45;&gt;vmklib_tasks_venv</title><style>.edge>path:hover{stroke-width:8}</style>
<path fill="none" stroke="black" d="M1362.06,-502.44C1387.87,-464.38 1391.49,-451.39 1400.06,-406.22"/>
<path fill="none" stroke="black" d="M1400.06,-404.22C1424.11,-277.46 1501.63,-220.48 1427.06,-115.2 1388.96,-61.39 1308.79,-46.11 1258.69,-41.95"/>
<polygon fill="#06efef" stroke="black" points="1258.7,-38.44 1248.48,-41.21 1258.2,-45.42 1258.7,-38.44"/>
</g>
<!-- vcorelib_task_manager&#45;&gt;vmklib_app -->
<g id="edge27" class="edge">
<title>vcorelib_task_manager&#45;&gt;vmklib_app</title><style>.edge>path:hover{stroke-width:8}</style>
<path fill="none" stroke="black" d="M434.65,-491.23C397.87,-478.94 340.31,-457.03 296.06,-427.84 251.91,-398.72 248.52,-381.9 210.06,-345.59 191.32,-327.88 169.95,-307.97 154.02,-293.18"/>
<polygon fill="#05e5e5" stroke="black" points="156.38,-290.6 146.67,-286.36 151.62,-295.73 156.38,-290.6"/>
</g>
<!-- vcorelib_task_manager&#45;&gt;vmklib_tasks_python_build -->
<g id="edge28" class="edge">
<title>vcorelib_task_manager&#45;&gt;vmklib_tasks_python_build</title><style>.edge>path:hover{stroke-width:8}</style>
<path fill="none" stroke="black" d="M386.06,-268.99C379.37,-219.13 365.41,-201.67 386.06,-155.79"/>
<path fill="none" stroke="black" d="M386.06,-153.79C417.62,-83.69 662.94,-53.77 765.37,-44.24"/>
<polygon fill="#05e5e5" stroke="black" points="765.76,-47.72 775.4,-43.33 765.12,-40.75 765.76,-47.72"/>
</g>
<!-- vcorelib_task_manager&#45;&gt;vmklib_tasks_python_lint -->
<g id="edge29" class="edge">
<title>vcorelib_task_manager&#45;&gt;vmklib_tasks_python_lint</title><style>.edge>path:hover{stroke-width:8}</style>
<path fill="none" stroke="black" d="M445.43,-479.52C416.2,-450.5 373.93,-398.03 386.06,-346.59"/>
<path fill="none" stroke="black" d="M386.06,-345.59C391.49,-312.88 390.48,-303.85 386.06,-270.99"/>
<path fill="none" stroke="black" d="M386.06,-268.99C382.3,-240.97 367.05,-213.18 352.49,-192.15"/>
<polygon fill="#05e5e5" stroke="black" points="355.22,-189.95 346.55,-183.86 349.53,-194.02 355.22,-189.95"/>
</g>
<!-- vcorelib_task_manager&#45;&gt;vmklib_tasks_python_package -->
<g id="edge30" class="edge">
<title>vcorelib_task_manager&#45;&gt;vmklib_tasks_python_package</title><style>.edge>path:hover{stroke-width:8}</style>
<path fill="none" stroke="black" d="M386.06,-345.59C391.72,-311.49 564.5,-131.34 595.06,-115.2 697.82,-60.9 738.98,-95.36 854.06,-79.2 932.6,-68.17 1023.87,-55.18 1078.2,-47.43"/>
<polygon fill="#05e5e5" stroke="black" points="1078.82,-50.88 1088.23,-46 1077.83,-43.95 1078.82,-50.88"/>
</g>
<!-- vcorelib_task_manager&#45;&gt;vmklib_tasks_python_sa -->
<g id="edge31" class="edge">
<title>vcorelib_task_manager&#45;&gt;vmklib_tasks_python_sa</title><style>.edge>path:hover{stroke-width:8}</style>
<path fill="none" stroke="black" d="M442.2,-481.99C373.42,-430.54 209.27,-290.24 260.06,-155.79"/>
</g>
<!-- vcorelib_task_manager&#45;&gt;vmklib_tasks_python_test -->
<g id="edge32" class="edge">
<title>vcorelib_task_manager&#45;&gt;vmklib_tasks_python_test</title><style>.edge>path:hover{stroke-width:8}</style>
<path fill="none" stroke="black" d="M480.51,-472.98C489.44,-447.67 504.39,-410.89 524.06,-382.59 537.52,-363.23 544.8,-361.64 562.06,-345.59 598.63,-311.59 640.41,-320.6 646.06,-270.99"/>
<path fill="none" stroke="black" d="M646.06,-268.99C646.43,-247.78 645.25,-224.38 643.75,-204.38"/>
<polygon fill="#05e5e5" stroke="black" points="647.23,-203.96 642.95,-194.27 640.25,-204.51 647.23,-203.96"/>
</g>
<!-- vcorelib_task_manager&#45;&gt;vmklib_tasks_python_yaml -->
<g id="edge33" class="edge">
<title>vcorelib_task_manager&#45;&gt;vmklib_tasks_python_yaml</title><style>.edge>path:hover{stroke-width:8}</style>
<path fill="none" stroke="black" d="M499.08,-481.36C507.06,-475.55 515.82,-469.33 524.06,-463.84 558.46,-440.94 821.48,-306.82 842.06,-270.99"/>
<path fill="none" stroke="black" d="M842.06,-268.99C849.26,-248.58 851.57,-224.82 851.86,-204.36"/>
<polygon fill="#05e5e5" stroke="black" points="855.36,-204.3 851.84,-194.3 848.36,-204.31 855.36,-204.3"/>
</g>
<!-- vcorelib_task_manager&#45;&gt;vmklib_tasks_venv -->
<g id="edge34" class="edge">
<title>vcorelib_task_manager&#45;&gt;vmklib_tasks_venv</title><style>.edge>path:hover{stroke-width:8}</style>
<path fill="none" stroke="black" d="M496.75,-479.81C504.97,-473.69 514.45,-467.69 524.06,-463.84 703.87,-391.81 792.94,-510.67 956.06,-406.22"/>
<path fill="none" stroke="black" d="M956.06,-404.22C1005.38,-372.64 1018.95,-365.37 1074.06,-345.59 1140.63,-321.69 1185.07,-364.96 1229.06,-309.59 1282.02,-242.92 1252.57,-135.02 1231.14,-78.26"/>
<polygon fill="#05e5e5" stroke="black" points="1234.28,-76.66 1227.39,-68.61 1227.75,-79.2 1234.28,-76.66"/>
</g>
<!-- vcorelib_task_subprocess -->
<g id="node8" class="node">
<title>vcorelib_task_subprocess</title><style>.edge>path:hover{stroke-width:8}</style>
<ellipse fill="#16f3f3" stroke="black" cx="1013.06" cy="-503.44" rx="47.45" ry="31.23"/>
<text text-anchor="middle" x="1013.06" y="-512.44" font-family="Helvetica,sans-Serif" font-size="10.00" fill="#000000">vcorelib.</text>
<text text-anchor="middle" x="1013.06" y="-500.44" font-family="Helvetica,sans-Serif" font-size="10.00" fill="#000000">task.</text>
<text text-anchor="middle" x="1013.06" y="-488.44" font-family="Helvetica,sans-Serif" font-size="10.00" fill="#000000">subprocess</text>
</g>
<!-- vcorelib_task_subprocess&#45;&gt;vmklib_tasks_python_build -->
<g id="edge35" class="edge">
<title>vcorelib_task_subprocess&#45;&gt;vmklib_tasks_python_build</title><style>.edge>path:hover{stroke-width:8}</style>
<path fill="none" stroke="black" d="M918.06,-404.22C838,-303.15 950.59,-230.58 893.06,-115.2 883.13,-95.26 865.38,-78.19 848.83,-65.43"/>
<polygon fill="#16f3f3" stroke="black" points="850.46,-62.28 840.34,-59.15 846.31,-67.91 850.46,-62.28"/>
</g>
<!-- vcorelib_task_subprocess&#45;&gt;vmklib_tasks_python_lint -->
<g id="edge36" class="edge">
<title>vcorelib_task_subprocess&#45;&gt;vmklib_tasks_python_lint</title><style>.edge>path:hover{stroke-width:8}</style>
<path fill="none" stroke="black" d="M974.37,-485.29C941.57,-470.56 893.4,-448.5 852.06,-427.84 752.77,-378.21 729.82,-362.19 632.06,-309.59 566.71,-274.42 553.38,-259.38 485.06,-230.39 436.54,-209.8 418.62,-219.1 372.06,-194.39 367.46,-191.95 362.85,-189.06 358.41,-185.98"/>
<polygon fill="#16f3f3" stroke="black" points="360.24,-182.98 350.11,-179.88 356.1,-188.62 360.24,-182.98"/>
</g>
<!-- vcorelib_task_subprocess&#45;&gt;vmklib_tasks_python_package -->
<g id="edge37" class="edge">
<title>vcorelib_task_subprocess&#45;&gt;vmklib_tasks_python_package</title><style>.edge>path:hover{stroke-width:8}</style>
<path fill="none" stroke="black" d="M999.97,-473.16C973.21,-408.36 920.69,-251.05 994.06,-155.79"/>
</g>
<!-- vcorelib_task_subprocess&#45;&gt;vmklib_tasks_python_test -->
<g id="edge38" class="edge">
<title>vcorelib_task_subprocess&#45;&gt;vmklib_tasks_python_test</title><style>.edge>path:hover{stroke-width:8}</style>
<path fill="none" stroke="black" d="M978.91,-481.55C956.77,-467.43 927.75,-447.77 904.06,-427.84 812.21,-350.58 716.98,-245.63 669.63,-191.44"/>
<polygon fill="#16f3f3" stroke="black" points="672.21,-189.07 663,-183.82 666.93,-193.66 672.21,-189.07"/>
</g>
<!-- vcorelib_task_subprocess&#45;&gt;vmklib_tasks_python_yaml -->
<g id="edge39" class="edge">
<title>vcorelib_task_subprocess&#45;&gt;vmklib_tasks_python_yaml</title><style>.edge>path:hover{stroke-width:8}</style>
<path fill="none" stroke="black" d="M985.64,-477.73C965.73,-459.09 938.76,-432.35 918.06,-406.22"/>
<path fill="none" stroke="black" d="M918.06,-404.22C891.74,-370.99 842.06,-388.98 842.06,-346.59"/>
</g>
<!-- vcorelib_task_subprocess&#45;&gt;vmklib_tasks_venv -->
<g id="edge40" class="edge">
<title>vcorelib_task_subprocess&#45;&gt;vmklib_tasks_venv</title><style>.edge>path:hover{stroke-width:8}</style>
<path fill="none" stroke="black" d="M1028.46,-473.9C1045.17,-445.88 1074.57,-404.27 1112.06,-382.59 1194.8,-334.74 1273.85,-427.91 1324.06,-346.59"/>
<path fill="none" stroke="black" d="M1324.06,-345.59C1378.3,-258.08 1347.34,-206.65 1300.06,-115.2 1289.06,-93.91 1269.23,-75.97 1251.49,-63.02"/>
<polygon fill="#16f3f3" stroke="black" points="1253.2,-59.94 1243,-57.07 1249.18,-65.67 1253.2,-59.94"/>
</g>
<!-- vcorelib_task_subprocess_run -->
<g id="node9" class="node">
<title>vcorelib_task_subprocess_run</title><style>.edge>path:hover{stroke-width:8}</style>
<ellipse fill="#0ce9e9" stroke="black" cx="861.06" cy="-503.44" rx="49.38" ry="39.7"/>
<text text-anchor="middle" x="861.06" y="-518.44" font-family="Helvetica,sans-Serif" font-size="10.00" fill="#000000">vcorelib.</text>
<text text-anchor="middle" x="861.06" y="-506.44" font-family="Helvetica,sans-Serif" font-size="10.00" fill="#000000">task.</text>
<text text-anchor="middle" x="861.06" y="-494.44" font-family="Helvetica,sans-Serif" font-size="10.00" fill="#000000">subprocess.</text>
<text text-anchor="middle" x="861.06" y="-482.44" font-family="Helvetica,sans-Serif" font-size="10.00" fill="#000000">run</text>
</g>
<!-- vcorelib_task_subprocess_run&#45;&gt;vmklib_tasks_python_build -->
<g id="edge41" class="edge">
<title>vcorelib_task_subprocess_run&#45;&gt;vmklib_tasks_python_build</title><style>.edge>path:hover{stroke-width:8}</style>
<path fill="none" stroke="black" d="M690.06,-404.22C638.73,-363.04 738.58,-168.05 786.47,-81.8"/>
<polygon fill="#0ce9e9" stroke="black" points="789.52,-83.5 791.35,-73.07 783.41,-80.09 789.52,-83.5"/>
</g>
<!-- vcorelib_task_subprocess_run&#45;&gt;vmklib_tasks_python_lint -->
<g id="edge42" class="edge">
<title>vcorelib_task_subprocess_run&#45;&gt;vmklib_tasks_python_lint</title><style>.edge>path:hover{stroke-width:8}</style>
<path fill="none" stroke="black" d="M817.57,-484.04C787.38,-470.41 746.86,-450.35 714.06,-427.84 702.23,-419.72 702.67,-413.1 690.06,-406.22"/>
<path fill="none" stroke="black" d="M690.06,-404.22C615.53,-363.51 594.94,-356.36 524.06,-309.59 453.32,-262.9 439.14,-246.22 372.06,-194.39 367.94,-191.2 363.63,-187.85 359.36,-184.51"/>
<polygon fill="#0ce9e9" stroke="black" points="361.26,-181.55 351.24,-178.13 356.94,-187.06 361.26,-181.55"/>
</g>
<!-- vcorelib_task_subprocess_run&#45;&gt;vmklib_tasks_python_package -->
<g id="edge43" class="edge">
<title>vcorelib_task_subprocess_run&#45;&gt;vmklib_tasks_python_package</title><style>.edge>path:hover{stroke-width:8}</style>
<path fill="none" stroke="black" d="M866.96,-463.91C879.3,-394.8 913.64,-248.38 994.06,-155.79"/>
<path fill="none" stroke="black" d="M994.06,-153.79C1019.68,-119.42 1057.48,-88.36 1086.08,-67.51"/>
<polygon fill="#0ce9e9" stroke="black" points="1088.17,-70.31 1094.26,-61.63 1084.09,-64.62 1088.17,-70.31"/>
</g>
<!-- vcorelib_task_subprocess_run&#45;&gt;vmklib_tasks_python_test -->
<g id="edge44" class="edge">
<title>vcorelib_task_subprocess_run&#45;&gt;vmklib_tasks_python_test</title><style>.edge>path:hover{stroke-width:8}</style>
<path fill="none" stroke="black" d="M820.89,-480.32C796.42,-463.71 769.25,-438.34 766.06,-406.22"/>
<path fill="none" stroke="black" d="M766.06,-404.22C758.21,-324.91 644.7,-350.67 646.06,-270.99"/>
</g>
<!-- vcorelib_task_subprocess_run&#45;&gt;vmklib_tasks_python_yaml -->
<g id="edge45" class="edge">
<title>vcorelib_task_subprocess_run&#45;&gt;vmklib_tasks_python_yaml</title><style>.edge>path:hover{stroke-width:8}</style>
<path fill="none" stroke="black" d="M766.06,-404.22C761.88,-362.03 842.06,-388.98 842.06,-346.59"/>
<path fill="none" stroke="black" d="M842.06,-345.59C842.06,-312.43 825.55,-299.74 842.06,-270.99"/>
</g>
<!-- vcorelib_task_subprocess_run&#45;&gt;vmklib_tasks_venv -->
<g id="edge46" class="edge">
<title>vcorelib_task_subprocess_run&#45;&gt;vmklib_tasks_venv</title><style>.edge>path:hover{stroke-width:8}</style>
<path fill="none" stroke="black" d="M887.18,-469.27C904.79,-448.75 929.57,-423.18 956.06,-406.22"/>
</g>
<!-- vmklib___main__ -->
<g id="node10" class="node">
<title>vmklib___main__</title><style>.edge>path:hover{stroke-width:8}</style>
<ellipse fill="#7a49ac" stroke="black" cx="130.06" cy="-39.6" rx="42.24" ry="22.76"/>
<text text-anchor="middle" x="130.06" y="-42.6" font-family="Helvetica,sans-Serif" font-size="10.00" fill="#ffffff">vmklib.</text>
<text text-anchor="middle" x="130.06" y="-30.6" font-family="Helvetica,sans-Serif" font-size="10.00" fill="#ffffff">__main__</text>
</g>
<!-- vmklib_entry -->
<g id="node12" class="node">
<title>vmklib_entry</title><style>.edge>path:hover{stroke-width:8}</style>
<ellipse fill="#7a3db8" stroke="black" cx="130.06" cy="-154.79" rx="41.9" ry="18"/>
<text text-anchor="middle" x="130.06" y="-151.79" font-family="Helvetica,sans-Serif" font-size="10.00" fill="#ffffff">vmklib.entry</text>
</g>
<!-- vmklib_app&#45;&gt;vmklib_entry -->
<g id="edge47" class="edge">
<title>vmklib_app&#45;&gt;vmklib_entry</title><style>.edge>path:hover{stroke-width:8}</style>
<path fill="none" stroke="black" d="M130.06,-251.8C130.06,-233.6 130.06,-204.6 130.06,-183.24"/>
<polygon fill="#6b35a1" stroke="black" points="133.56,-183.15 130.06,-173.15 126.56,-183.15 133.56,-183.15"/>
</g>
<!-- vmklib_entry&#45;&gt;vmklib___main__ -->
<g id="edge48" class="edge">
<title>vmklib_entry&#45;&gt;vmklib___main__</title><style>.edge>path:hover{stroke-width:8}</style>
<path fill="none" stroke="black" d="M130.06,-136.6C130.06,-119.75 130.06,-93.64 130.06,-72.9"/>
<polygon fill="#7a3db8" stroke="black" points="133.56,-72.62 130.06,-62.62 126.56,-72.62 133.56,-72.62"/>
</g>
<!-- vmklib_resources&#45;&gt;vmklib_app -->
<g id="edge49" class="edge">
<title>vmklib_resources&#45;&gt;vmklib_app</title><style>.edge>path:hover{stroke-width:8}</style>
<path fill="none" stroke="black" d="M120.89,-390.89C138.18,-381.51 156.21,-366.97 158.06,-346.59"/>
<path fill="none" stroke="black" d="M158.06,-345.59C159.63,-328.46 153.07,-310.38 145.91,-296.31"/>
<polygon fill="#753ab0" stroke="black" points="148.83,-294.35 140.95,-287.26 142.69,-297.72 148.83,-294.35"/>
</g>
<!-- vmklib_tasks_mixins -->
<g id="node14" class="node">
<title>vmklib_tasks_mixins</title><style>.edge>path:hover{stroke-width:8}</style>
<ellipse fill="#852fdb" stroke="black" cx="1187.06" cy="-269.99" rx="33.13" ry="31.23"/>
<text text-anchor="middle" x="1187.06" y="-278.99" font-family="Helvetica,sans-Serif" font-size="10.00" fill="#ffffff">vmklib.</text>
<text text-anchor="middle" x="1187.06" y="-266.99" font-family="Helvetica,sans-Serif" font-size="10.00" fill="#ffffff">tasks.</text>
<text text-anchor="middle" x="1187.06" y="-254.99" font-family="Helvetica,sans-Serif" font-size="10.00" fill="#ffffff">mixins</text>
</g>
<!-- vmklib_tasks_mixins&#45;&gt;vmklib_tasks_python_build -->
<g id="edge50" class="edge">
<title>vmklib_tasks_mixins&#45;&gt;vmklib_tasks_python_build</title><style>.edge>path:hover{stroke-width:8}</style>
<path fill="none" stroke="black" d="M1164.69,-246.85C1149.75,-232.04 1129.68,-212.1 1112.06,-194.39 1095.08,-177.33 1091.04,-172.86 1074.06,-155.79"/>
</g>
<!-- vmklib_tasks_mixins&#45;&gt;vmklib_tasks_python_package -->
<g id="edge51" class="edge">
<title>vmklib_tasks_mixins&#45;&gt;vmklib_tasks_python_package</title><style>.edge>path:hover{stroke-width:8}</style>
<path fill="none" stroke="black" d="M1196.58,-239.91C1203.01,-217.18 1210.01,-184.71 1208.06,-155.79"/>
<path fill="none" stroke="black" d="M1208.06,-153.79C1205.89,-121.52 1183.75,-92.17 1163.03,-71.45"/>
<polygon fill="#852fdb" stroke="black" points="1165.43,-68.9 1155.79,-64.49 1160.57,-73.94 1165.43,-68.9"/>
</g>
<!-- vmklib_tasks_mixins&#45;&gt;vmklib_tasks_venv -->
<g id="edge52" class="edge">
<title>vmklib_tasks_mixins&#45;&gt;vmklib_tasks_venv</title><style>.edge>path:hover{stroke-width:8}</style>
<path fill="none" stroke="black" d="M1208.06,-153.79C1206.44,-129.65 1207.99,-102.6 1210.04,-81"/>
<polygon fill="#852fdb" stroke="black" points="1213.54,-81.18 1211.07,-70.87 1206.57,-80.46 1213.54,-81.18"/>
</g>
<!-- vmklib_tasks_mixins_concrete&#45;&gt;vmklib_tasks_python_build -->
<g id="edge53" class="edge">
<title>vmklib_tasks_mixins_concrete&#45;&gt;vmklib_tasks_python_build</title><style>.edge>path:hover{stroke-width:8}</style>
<path fill="none" stroke="black" d="M1077.3,-234.56C1087.23,-209.3 1094.17,-176.01 1074.06,-155.79"/>
<path fill="none" stroke="black" d="M1074.06,-153.79C1012.53,-91.91 911.76,-61.74 854.15,-48.84"/>
<polygon fill="#7523c8" stroke="black" points="854.77,-45.39 844.26,-46.7 853.29,-52.24 854.77,-45.39"/>
</g>
<!-- vmklib_tasks_mixins_concrete&#45;&gt;vmklib_tasks_python_package -->
<g id="edge54" class="edge">
<title>vmklib_tasks_mixins_concrete&#45;&gt;vmklib_tasks_python_package</title><style>.edge>path:hover{stroke-width:8}</style>
<path fill="none" stroke="black" d="M1085.71,-239.75C1102.31,-218.23 1121.64,-187.33 1126.06,-155.79"/>
<path fill="none" stroke="black" d="M1126.06,-153.79C1129.01,-132.83 1129.47,-109.47 1129.03,-89.43"/>
<polygon fill="#7523c8" stroke="black" points="1132.52,-89.18 1128.72,-79.29 1125.52,-89.39 1132.52,-89.18"/>
</g>
<!-- vmklib_tasks_mixins_concrete&#45;&gt;vmklib_tasks_venv -->
<g id="edge55" class="edge">
<title>vmklib_tasks_mixins_concrete&#45;&gt;vmklib_tasks_venv</title><style>.edge>path:hover{stroke-width:8}</style>
<path fill="none" stroke="black" d="M1090.38,-245.37C1106.54,-231.71 1125.94,-213.47 1140.06,-194.39 1166.73,-158.36 1188.01,-111.37 1201,-78.86"/>
<polygon fill="#7523c8" stroke="black" points="1204.37,-79.86 1204.76,-69.27 1197.85,-77.3 1204.37,-79.86"/>
</g>
<!-- vmklib_tasks_python -->
<g id="node16" class="node">
<title>vmklib_tasks_python</title><style>.edge>path:hover{stroke-width:8}</style>
<ellipse fill="#853bce" stroke="black" cx="1385.06" cy="-154.79" rx="33.13" ry="31.23"/>
<text text-anchor="middle" x="1385.06" y="-163.79" font-family="Helvetica,sans-Serif" font-size="10.00" fill="#ffffff">vmklib.</text>
<text text-anchor="middle" x="1385.06" y="-151.79" font-family="Helvetica,sans-Serif" font-size="10.00" fill="#ffffff">tasks.</text>
<text text-anchor="middle" x="1385.06" y="-139.79" font-family="Helvetica,sans-Serif" font-size="10.00" fill="#ffffff">python</text>
</g>
<!-- vmklib_tasks_python&#45;&gt;vmklib_tasks_venv -->
<g id="edge56" class="edge">
<title>vmklib_tasks_python&#45;&gt;vmklib_tasks_venv</title><style>.edge>path:hover{stroke-width:8}</style>
<path fill="none" stroke="black" d="M1361.19,-133.08C1353.93,-127.09 1345.82,-120.69 1338.06,-115.2 1310.29,-95.52 1277.24,-75.66 1252.39,-61.38"/>
<polygon fill="#853bce" stroke="black" points="1254.05,-58.3 1243.63,-56.38 1250.58,-64.38 1254.05,-58.3"/>
</g>
<!-- vmklib_tasks_python_lint&#45;&gt;vmklib_tasks_python_sa -->
<g id="edge57" class="edge">
<title>vmklib_tasks_python_lint&#45;&gt;vmklib_tasks_python_sa</title><style>.edge>path:hover{stroke-width:8}</style>
<path fill="none" stroke="black" d="M323.06,-115.15C323.06,-106.96 323.06,-98.2 323.06,-89.68"/>
<polygon fill="#6b35a1" stroke="black" points="326.56,-89.45 323.06,-79.45 319.56,-89.45 326.56,-89.45"/>
</g>
</g>
</svg>
