<?xml version="1.0" encoding="UTF-8" standalone="no"?>
<!DOCTYPE svg PUBLIC "-//W3C//DTD SVG 1.1//EN"
 "http://www.w3.org/Graphics/SVG/1.1/DTD/svg11.dtd">
<!-- Generated by graphviz version 3.0.1~dev.20220405.0544 (20220405.0544)
 -->
<!-- Title: G Pages: 1 -->
<svg width="628pt" height="635pt"
 viewBox="0.00 0.00 627.54 634.87" xmlns="http://www.w3.org/2000/svg" xmlns:xlink="http://www.w3.org/1999/xlink">
<g id="graph0" class="graph" transform="scale(1 1) rotate(0) translate(4 630.87)">
<title>G</title><style>.edge>path:hover{stroke-width:8}</style>
<polygon fill="white" stroke="transparent" points="-4,4 -4,-630.87 623.54,-630.87 623.54,4 -4,4"/>
<!-- __main__ -->
<g id="node1" class="node">
<title>__main__</title><style>.edge>path:hover{stroke-width:8}</style>
<ellipse fill="#793434" stroke="black" cx="132.22" cy="-595.76" rx="36.07" ry="18"/>
<text text-anchor="middle" x="132.22" y="-592.76" font-family="Helvetica,sans-Serif" font-size="10.00" fill="#ffffff">__main__</text>
</g>
<!-- pkg_resources -->
<g id="node2" class="node">
<title>pkg_resources</title><style>.edge>path:hover{stroke-width:8}</style>
<ellipse fill="#7ab83d" stroke="black" cx="116.22" cy="-510.65" rx="49.13" ry="18"/>
<text text-anchor="middle" x="116.22" y="-507.65" font-family="Helvetica,sans-Serif" font-size="10.00" fill="#000000">pkg_resources</text>
</g>
<!-- __main__&#45;&gt;pkg_resources -->
<g id="edge1" class="edge">
<title>__main__&#45;&gt;pkg_resources</title><style>.edge>path:hover{stroke-width:8}</style>
<path fill="none" stroke="black" d="M128.91,-577.54C126.76,-566.39 123.92,-551.65 121.47,-538.93"/>
<polygon fill="#793434" stroke="black" points="124.86,-538 119.53,-528.85 117.99,-539.33 124.86,-538"/>
</g>
<!-- vmklib_app -->
<g id="node9" class="node">
<title>vmklib_app</title><style>.edge>path:hover{stroke-width:8}</style>
<ellipse fill="#663399" stroke="black" cx="253.22" cy="-401.65" rx="38.23" ry="18"/>
<text text-anchor="middle" x="253.22" y="-398.65" font-family="Helvetica,sans-Serif" font-size="10.00" fill="#ffffff">vmklib.app</text>
</g>
<!-- pkg_resources&#45;&gt;vmklib_app -->
<g id="edge2" class="edge">
<title>pkg_resources&#45;&gt;vmklib_app</title><style>.edge>path:hover{stroke-width:8}</style>
<path fill="none" stroke="black" d="M152.7,-498.5C196.92,-484.76 265.76,-462.49 267.22,-456.65"/>
<path fill="none" stroke="black" d="M267.22,-455.65C269.42,-446.89 268.06,-437.34 265.49,-428.8"/>
<polygon fill="#7ab83d" stroke="black" points="268.75,-427.53 262.04,-419.33 262.17,-429.92 268.75,-427.53"/>
</g>
<!-- vcorelib -->
<g id="node3" class="node">
<title>vcorelib</title><style>.edge>path:hover{stroke-width:8}</style>
<ellipse fill="#16f3f3" stroke="black" cx="363.22" cy="-510.65" rx="30.19" ry="18"/>
<text text-anchor="middle" x="363.22" y="-507.65" font-family="Helvetica,sans-Serif" font-size="10.00" fill="#000000">vcorelib</text>
</g>
<!-- vcorelib&#45;&gt;vmklib_app -->
<g id="edge3" class="edge">
<title>vcorelib&#45;&gt;vmklib_app</title><style>.edge>path:hover{stroke-width:8}</style>
<path fill="none" stroke="black" d="M349.44,-494.4C340.4,-484.09 328.56,-469.96 319.22,-456.65"/>
<path fill="none" stroke="black" d="M319.22,-455.65C310.03,-442.55 296.72,-431.01 284.46,-422.06"/>
<polygon fill="#16f3f3" stroke="black" points="286.4,-419.15 276.2,-416.3 282.4,-424.89 286.4,-419.15"/>
</g>
<!-- vmklib_tasks_mixins_concrete -->
<g id="node12" class="node">
<title>vmklib_tasks_mixins_concrete</title><style>.edge>path:hover{stroke-width:8}</style>
<ellipse fill="#7a3db8" stroke="black" cx="319.22" cy="-236.05" rx="38.37" ry="39.7"/>
<text text-anchor="middle" x="319.22" y="-251.05" font-family="Helvetica,sans-Serif" font-size="10.00" fill="#ffffff">vmklib.</text>
<text text-anchor="middle" x="319.22" y="-239.05" font-family="Helvetica,sans-Serif" font-size="10.00" fill="#ffffff">tasks.</text>
<text text-anchor="middle" x="319.22" y="-227.05" font-family="Helvetica,sans-Serif" font-size="10.00" fill="#ffffff">mixins.</text>
<text text-anchor="middle" x="319.22" y="-215.05" font-family="Helvetica,sans-Serif" font-size="10.00" fill="#ffffff">concrete</text>
</g>
<!-- vcorelib&#45;&gt;vmklib_tasks_mixins_concrete -->
<g id="edge4" class="edge">
<title>vcorelib&#45;&gt;vmklib_tasks_mixins_concrete</title><style>.edge>path:hover{stroke-width:8}</style>
<path fill="none" stroke="black" d="M319.22,-328.65C316.87,-314.91 316.13,-299.84 316.17,-285.96"/>
<polygon fill="#16f3f3" stroke="black" points="319.68,-285.68 316.34,-275.62 312.68,-285.56 319.68,-285.68"/>
</g>
<!-- vmklib_tasks_venv -->
<g id="node14" class="node">
<title>vmklib_tasks_venv</title><style>.edge>path:hover{stroke-width:8}</style>
<ellipse fill="#573479" stroke="black" cx="494.22" cy="-31.11" rx="33.13" ry="31.23"/>
<text text-anchor="middle" x="494.22" y="-40.11" font-family="Helvetica,sans-Serif" font-size="10.00" fill="#ffffff">vmklib.</text>
<text text-anchor="middle" x="494.22" y="-28.11" font-family="Helvetica,sans-Serif" font-size="10.00" fill="#ffffff">tasks.</text>
<text text-anchor="middle" x="494.22" y="-16.11" font-family="Helvetica,sans-Serif" font-size="10.00" fill="#ffffff">venv</text>
</g>
<!-- vcorelib&#45;&gt;vmklib_tasks_venv -->
<g id="edge5" class="edge">
<title>vcorelib&#45;&gt;vmklib_tasks_venv</title><style>.edge>path:hover{stroke-width:8}</style>
<path fill="none" stroke="black" d="M319.22,-455.65C287.31,-410.17 328.59,-385.41 319.22,-330.65"/>
<path fill="none" stroke="black" d="M319.22,-328.65C315.85,-297.34 283.39,-305.08 272.22,-275.65 248.14,-212.19 272.13,-179.22 319.22,-130.34"/>
</g>
<!-- vcorelib_dict -->
<g id="node4" class="node">
<title>vcorelib_dict</title><style>.edge>path:hover{stroke-width:8}</style>
<ellipse fill="#47c2c2" stroke="black" cx="489.22" cy="-595.76" rx="41.24" ry="18"/>
<text text-anchor="middle" x="489.22" y="-592.76" font-family="Helvetica,sans-Serif" font-size="10.00" fill="#000000">vcorelib.dict</text>
</g>
<!-- vcorelib_task -->
<g id="node6" class="node">
<title>vcorelib_task</title><style>.edge>path:hover{stroke-width:8}</style>
<ellipse fill="#24d0d0" stroke="black" cx="454.22" cy="-510.65" rx="43.08" ry="18"/>
<text text-anchor="middle" x="454.22" y="-507.65" font-family="Helvetica,sans-Serif" font-size="10.00" fill="#000000">vcorelib.task</text>
</g>
<!-- vcorelib_dict&#45;&gt;vcorelib_task -->
<g id="edge6" class="edge">
<title>vcorelib_dict&#45;&gt;vcorelib_task</title><style>.edge>path:hover{stroke-width:8}</style>
<path fill="none" stroke="black" d="M482.14,-577.94C477.3,-566.45 470.79,-550.99 465.27,-537.89"/>
<polygon fill="#47c2c2" stroke="black" points="468.4,-536.3 461.29,-528.44 461.95,-539.02 468.4,-536.3"/>
</g>
<!-- vcorelib_dict&#45;&gt;vmklib_tasks_venv -->
<g id="edge7" class="edge">
<title>vcorelib_dict&#45;&gt;vmklib_tasks_venv</title><style>.edge>path:hover{stroke-width:8}</style>
<path fill="none" stroke="black" d="M496.68,-577.69C507.23,-551.97 525.22,-501.5 525.22,-456.65 525.22,-456.65 525.22,-456.65 525.22,-235.05 525.22,-177.55 512.91,-111.93 503.8,-71.26"/>
<polygon fill="#47c2c2" stroke="black" points="507.21,-70.44 501.57,-61.47 500.38,-72 507.21,-70.44"/>
</g>
<!-- vcorelib_paths -->
<g id="node5" class="node">
<title>vcorelib_paths</title><style>.edge>path:hover{stroke-width:8}</style>
<ellipse fill="#4cb3b3" stroke="black" cx="230.22" cy="-510.65" rx="46.95" ry="18"/>
<text text-anchor="middle" x="230.22" y="-507.65" font-family="Helvetica,sans-Serif" font-size="10.00" fill="#000000">vcorelib.paths</text>
</g>
<!-- vcorelib_paths&#45;&gt;vmklib_app -->
<g id="edge8" class="edge">
<title>vcorelib_paths&#45;&gt;vmklib_app</title><style>.edge>path:hover{stroke-width:8}</style>
<path fill="none" stroke="black" d="M246.1,-493.6C254.48,-483.83 263.73,-470.58 267.22,-456.65"/>
</g>
<!-- vcorelib_task&#45;&gt;vmklib_app -->
<g id="edge9" class="edge">
<title>vcorelib_task&#45;&gt;vmklib_app</title><style>.edge>path:hover{stroke-width:8}</style>
<path fill="none" stroke="black" d="M434.09,-494.59C420.22,-484.12 401.44,-469.74 385.22,-456.65"/>
<path fill="none" stroke="black" d="M385.22,-455.65C359.39,-434.78 324.27,-421.21 296.75,-413.03"/>
<polygon fill="#24d0d0" stroke="black" points="297.56,-409.62 286.98,-410.26 295.65,-416.36 297.56,-409.62"/>
</g>
<!-- vcorelib_task&#45;&gt;vmklib_tasks_mixins_concrete -->
<g id="edge10" class="edge">
<title>vcorelib_task&#45;&gt;vmklib_tasks_mixins_concrete</title><style>.edge>path:hover{stroke-width:8}</style>
<path fill="none" stroke="black" d="M385.22,-455.65C342,-420.74 394.59,-385.41 385.22,-330.65"/>
<path fill="none" stroke="black" d="M385.22,-328.65C383.41,-306.15 369.88,-285.36 355.53,-269.29"/>
<polygon fill="#24d0d0" stroke="black" points="357.87,-266.67 348.47,-261.79 352.78,-271.47 357.87,-266.67"/>
</g>
<!-- vcorelib_task&#45;&gt;vmklib_tasks_venv -->
<g id="edge11" class="edge">
<title>vcorelib_task&#45;&gt;vmklib_tasks_venv</title><style>.edge>path:hover{stroke-width:8}</style>
<path fill="none" stroke="black" d="M385.22,-328.65C380.47,-269.48 388.26,-251.57 366.22,-196.45 352.84,-162.98 294.48,-156.56 319.22,-130.34"/>
</g>
<!-- vcorelib_task_manager -->
<g id="node7" class="node">
<title>vcorelib_task_manager</title><style>.edge>path:hover{stroke-width:8}</style>
<ellipse fill="#3db8b8" stroke="black" cx="39.22" cy="-595.76" rx="39.44" ry="31.23"/>
<text text-anchor="middle" x="39.22" y="-604.76" font-family="Helvetica,sans-Serif" font-size="10.00" fill="#000000">vcorelib.</text>
<text text-anchor="middle" x="39.22" y="-592.76" font-family="Helvetica,sans-Serif" font-size="10.00" fill="#000000">task.</text>
<text text-anchor="middle" x="39.22" y="-580.76" font-family="Helvetica,sans-Serif" font-size="10.00" fill="#000000">manager</text>
</g>
<!-- vcorelib_task_manager&#45;&gt;vmklib_app -->
<g id="edge12" class="edge">
<title>vcorelib_task_manager&#45;&gt;vmklib_app</title><style>.edge>path:hover{stroke-width:8}</style>
<path fill="none" stroke="black" d="M67.99,-574.26C74.12,-570.61 80.71,-567.17 87.22,-564.65 171.03,-532.18 228.6,-597.63 286.22,-528.65 296.48,-516.37 290.07,-508.18 286.22,-492.65 281.87,-475.09 262.83,-474.2 267.22,-456.65"/>
</g>
<!-- vcorelib_task_manager&#45;&gt;vmklib_tasks_venv -->
<g id="edge13" class="edge">
<title>vcorelib_task_manager&#45;&gt;vmklib_tasks_venv</title><style>.edge>path:hover{stroke-width:8}</style>
<path fill="none" stroke="black" d="M37.07,-564.6C33.59,-491.53 35.13,-303.24 132.22,-196.45 191.52,-131.23 258.91,-194.63 319.22,-130.34"/>
<path fill="none" stroke="black" d="M319.22,-128.34C356.88,-88.5 414.77,-61.17 453.54,-46.09"/>
<polygon fill="#3db8b8" stroke="black" points="454.85,-49.34 462.96,-42.52 452.37,-42.79 454.85,-49.34"/>
</g>
<!-- vmklib___main__ -->
<g id="node8" class="node">
<title>vmklib___main__</title><style>.edge>path:hover{stroke-width:8}</style>
<ellipse fill="#7a49ac" stroke="black" cx="183.22" cy="-236.05" rx="42.24" ry="22.76"/>
<text text-anchor="middle" x="183.22" y="-239.05" font-family="Helvetica,sans-Serif" font-size="10.00" fill="#ffffff">vmklib.</text>
<text text-anchor="middle" x="183.22" y="-227.05" font-family="Helvetica,sans-Serif" font-size="10.00" fill="#ffffff">__main__</text>
</g>
<!-- vmklib_entry -->
<g id="node10" class="node">
<title>vmklib_entry</title><style>.edge>path:hover{stroke-width:8}</style>
<ellipse fill="#7a3db8" stroke="black" cx="216.22" cy="-329.65" rx="41.9" ry="18"/>
<text text-anchor="middle" x="216.22" y="-326.65" font-family="Helvetica,sans-Serif" font-size="10.00" fill="#ffffff">vmklib.entry</text>
</g>
<!-- vmklib_app&#45;&gt;vmklib_entry -->
<g id="edge14" class="edge">
<title>vmklib_app&#45;&gt;vmklib_entry</title><style>.edge>path:hover{stroke-width:8}</style>
<path fill="none" stroke="black" d="M244.45,-384.06C240.14,-375.9 234.84,-365.87 230,-356.71"/>
<polygon fill="#663399" stroke="black" points="232.95,-354.81 225.18,-347.6 226.76,-358.08 232.95,-354.81"/>
</g>
<!-- vmklib_entry&#45;&gt;vmklib___main__ -->
<g id="edge15" class="edge">
<title>vmklib_entry&#45;&gt;vmklib___main__</title><style>.edge>path:hover{stroke-width:8}</style>
<path fill="none" stroke="black" d="M210.01,-311.42C205.62,-299.21 199.59,-282.48 194.37,-267.99"/>
<polygon fill="#7a3db8" stroke="black" points="197.59,-266.61 190.91,-258.39 191.01,-268.99 197.59,-266.61"/>
</g>
<!-- vmklib_tasks_mixins -->
<g id="node11" class="node">
<title>vmklib_tasks_mixins</title><style>.edge>path:hover{stroke-width:8}</style>
<ellipse fill="#8547c2" stroke="black" cx="464.22" cy="-129.34" rx="33.13" ry="31.23"/>
<text text-anchor="middle" x="464.22" y="-138.34" font-family="Helvetica,sans-Serif" font-size="10.00" fill="#ffffff">vmklib.</text>
<text text-anchor="middle" x="464.22" y="-126.34" font-family="Helvetica,sans-Serif" font-size="10.00" fill="#ffffff">tasks.</text>
<text text-anchor="middle" x="464.22" y="-114.34" font-family="Helvetica,sans-Serif" font-size="10.00" fill="#ffffff">mixins</text>
</g>
<!-- vmklib_tasks_mixins&#45;&gt;vmklib_tasks_venv -->
<g id="edge16" class="edge">
<title>vmklib_tasks_mixins&#45;&gt;vmklib_tasks_venv</title><style>.edge>path:hover{stroke-width:8}</style>
<path fill="none" stroke="black" d="M473.3,-99.21C476.09,-90.26 479.21,-80.26 482.17,-70.78"/>
<polygon fill="#8547c2" stroke="black" points="485.54,-71.73 485.17,-61.15 478.85,-69.65 485.54,-71.73"/>
</g>
<!-- vmklib_tasks_mixins_concrete&#45;&gt;vmklib_tasks_venv -->
<g id="edge17" class="edge">
<title>vmklib_tasks_mixins_concrete&#45;&gt;vmklib_tasks_venv</title><style>.edge>path:hover{stroke-width:8}</style>
<path fill="none" stroke="black" d="M307.78,-198.19C303.28,-175.71 302.57,-147.99 319.22,-130.34"/>
</g>
<!-- vmklib_tasks_python -->
<g id="node13" class="node">
<title>vmklib_tasks_python</title><style>.edge>path:hover{stroke-width:8}</style>
<ellipse fill="#8547c2" stroke="black" cx="586.22" cy="-129.34" rx="33.13" ry="31.23"/>
<text text-anchor="middle" x="586.22" y="-138.34" font-family="Helvetica,sans-Serif" font-size="10.00" fill="#ffffff">vmklib.</text>
<text text-anchor="middle" x="586.22" y="-126.34" font-family="Helvetica,sans-Serif" font-size="10.00" fill="#ffffff">tasks.</text>
<text text-anchor="middle" x="586.22" y="-114.34" font-family="Helvetica,sans-Serif" font-size="10.00" fill="#ffffff">python</text>
</g>
<!-- vmklib_tasks_python&#45;&gt;vmklib_tasks_venv -->
<g id="edge18" class="edge">
<title>vmklib_tasks_python&#45;&gt;vmklib_tasks_venv</title><style>.edge>path:hover{stroke-width:8}</style>
<path fill="none" stroke="black" d="M564.42,-105.53C552.13,-92.69 536.63,-76.47 523.32,-62.55"/>
<polygon fill="#8547c2" stroke="black" points="525.63,-59.9 516.19,-55.09 520.57,-64.73 525.63,-59.9"/>
</g>
</g>
</svg>
