<?xml version="1.0" encoding="UTF-8" standalone="no"?>
<!DOCTYPE svg PUBLIC "-//W3C//DTD SVG 1.1//EN"
 "http://www.w3.org/Graphics/SVG/1.1/DTD/svg11.dtd">
<!-- Generated by graphviz version 3.0.1~dev.20220405.0544 (20220405.0544)
 -->
<!-- Title: G Pages: 1 -->
<svg width="1055pt" height="767pt"
 viewBox="0.00 0.00 1054.59 767.04" xmlns="http://www.w3.org/2000/svg" xmlns:xlink="http://www.w3.org/1999/xlink">
<g id="graph0" class="graph" transform="scale(1 1) rotate(0) translate(4 763.04)">
<title>G</title><style>.edge>path:hover{stroke-width:8}</style>
<polygon fill="white" stroke="transparent" points="-4,4 -4,-763.04 1050.59,-763.04 1050.59,4 -4,4"/>
<!-- __main__ -->
<g id="node1" class="node">
<title>__main__</title><style>.edge>path:hover{stroke-width:8}</style>
<ellipse fill="#6b2e2e" stroke="black" cx="204.96" cy="-669.04" rx="36.07" ry="18"/>
<text text-anchor="middle" x="204.96" y="-666.04" font-family="Helvetica,sans-Serif" font-size="10.00" fill="#ffffff">__main__</text>
</g>
<!-- pkg_resources -->
<g id="node2" class="node">
<title>pkg_resources</title><style>.edge>path:hover{stroke-width:8}</style>
<ellipse fill="#7ab83d" stroke="black" cx="204.96" cy="-575.44" rx="49.13" ry="18"/>
<text text-anchor="middle" x="204.96" y="-572.44" font-family="Helvetica,sans-Serif" font-size="10.00" fill="#000000">pkg_resources</text>
</g>
<!-- __main__&#45;&gt;pkg_resources -->
<g id="edge1" class="edge">
<title>__main__&#45;&gt;pkg_resources</title><style>.edge>path:hover{stroke-width:8}</style>
<path fill="none" stroke="black" d="M204.96,-650.81C204.96,-637.63 204.96,-619.2 204.96,-603.98"/>
<polygon fill="#6b2e2e" stroke="black" points="208.46,-603.59 204.96,-593.59 201.46,-603.59 208.46,-603.59"/>
</g>
<!-- vmklib_resources -->
<g id="node13" class="node">
<title>vmklib_resources</title><style>.edge>path:hover{stroke-width:8}</style>
<ellipse fill="#753ab0" stroke="black" cx="172.96" cy="-440.22" rx="42.22" ry="22.76"/>
<text text-anchor="middle" x="172.96" y="-443.22" font-family="Helvetica,sans-Serif" font-size="10.00" fill="#ffffff">vmklib.</text>
<text text-anchor="middle" x="172.96" y="-431.22" font-family="Helvetica,sans-Serif" font-size="10.00" fill="#ffffff">resources</text>
</g>
<!-- pkg_resources&#45;&gt;vmklib_resources -->
<g id="edge2" class="edge">
<title>pkg_resources&#45;&gt;vmklib_resources</title><style>.edge>path:hover{stroke-width:8}</style>
<path fill="none" stroke="black" d="M209.88,-557.28C213.44,-541.14 215.93,-516.97 204.96,-499.84"/>
<path fill="none" stroke="black" d="M204.96,-498.84C199.33,-490.04 193.65,-480.19 188.66,-471.16"/>
<polygon fill="#7ab83d" stroke="black" points="191.6,-469.24 183.75,-462.12 185.45,-472.58 191.6,-469.24"/>
</g>
<!-- vcorelib -->
<g id="node3" class="node">
<title>vcorelib</title><style>.edge>path:hover{stroke-width:8}</style>
<ellipse fill="#10f9f9" stroke="black" cx="413.96" cy="-575.44" rx="30.19" ry="18"/>
<text text-anchor="middle" x="413.96" y="-572.44" font-family="Helvetica,sans-Serif" font-size="10.00" fill="#000000">vcorelib</text>
</g>
<!-- vmklib_app -->
<g id="node11" class="node">
<title>vmklib_app</title><style>.edge>path:hover{stroke-width:8}</style>
<ellipse fill="#6b35a1" stroke="black" cx="176.96" cy="-363.59" rx="38.23" ry="18"/>
<text text-anchor="middle" x="176.96" y="-360.59" font-family="Helvetica,sans-Serif" font-size="10.00" fill="#ffffff">vmklib.app</text>
</g>
<!-- vcorelib&#45;&gt;vmklib_app -->
<g id="edge3" class="edge">
<title>vcorelib&#45;&gt;vmklib_app</title><style>.edge>path:hover{stroke-width:8}</style>
<path fill="none" stroke="black" d="M242.96,-498.84C223.83,-481.81 248.13,-466.3 242.96,-441.22"/>
<path fill="none" stroke="black" d="M242.96,-439.22C238.44,-417.29 221.62,-398.46 206.09,-385.2"/>
<polygon fill="#10f9f9" stroke="black" points="208.14,-382.35 198.16,-378.78 203.74,-387.79 208.14,-382.35"/>
</g>
<!-- vcorelib&#45;&gt;vmklib_resources -->
<g id="edge4" class="edge">
<title>vcorelib&#45;&gt;vmklib_resources</title><style>.edge>path:hover{stroke-width:8}</style>
<path fill="none" stroke="black" d="M401.71,-558.95C394.66,-550.99 385.19,-541.75 374.96,-535.84 322.29,-505.46 288.38,-540.28 242.96,-499.84"/>
<path fill="none" stroke="black" d="M242.96,-498.84C230.43,-487.68 216.19,-475.82 203.84,-465.77"/>
<polygon fill="#10f9f9" stroke="black" points="206.01,-463.03 196.04,-459.46 201.61,-468.47 206.01,-463.03"/>
</g>
<!-- vmklib_tasks_mixins_concrete -->
<g id="node15" class="node">
<title>vmklib_tasks_mixins_concrete</title><style>.edge>path:hover{stroke-width:8}</style>
<ellipse fill="#6b20b6" stroke="black" cx="738.96" cy="-269.99" rx="38.37" ry="39.7"/>
<text text-anchor="middle" x="738.96" y="-284.99" font-family="Helvetica,sans-Serif" font-size="10.00" fill="#ffffff">vmklib.</text>
<text text-anchor="middle" x="738.96" y="-272.99" font-family="Helvetica,sans-Serif" font-size="10.00" fill="#ffffff">tasks.</text>
<text text-anchor="middle" x="738.96" y="-260.99" font-family="Helvetica,sans-Serif" font-size="10.00" fill="#ffffff">mixins.</text>
<text text-anchor="middle" x="738.96" y="-248.99" font-family="Helvetica,sans-Serif" font-size="10.00" fill="#ffffff">concrete</text>
</g>
<!-- vcorelib&#45;&gt;vmklib_tasks_mixins_concrete -->
<g id="edge5" class="edge">
<title>vcorelib&#45;&gt;vmklib_tasks_mixins_concrete</title><style>.edge>path:hover{stroke-width:8}</style>
<path fill="none" stroke="black" d="M584.96,-498.84C644.89,-443.86 638.88,-412.6 684.96,-345.59 692.9,-334.04 701.74,-321.65 709.92,-310.36"/>
<polygon fill="#10f9f9" stroke="black" points="712.98,-312.11 716.03,-301.96 707.31,-307.99 712.98,-312.11"/>
</g>
<!-- vmklib_tasks_python -->
<g id="node16" class="node">
<title>vmklib_tasks_python</title><style>.edge>path:hover{stroke-width:8}</style>
<ellipse fill="#702db4" stroke="black" cx="903.96" cy="-269.99" rx="33.13" ry="31.23"/>
<text text-anchor="middle" x="903.96" y="-278.99" font-family="Helvetica,sans-Serif" font-size="10.00" fill="#ffffff">vmklib.</text>
<text text-anchor="middle" x="903.96" y="-266.99" font-family="Helvetica,sans-Serif" font-size="10.00" fill="#ffffff">tasks.</text>
<text text-anchor="middle" x="903.96" y="-254.99" font-family="Helvetica,sans-Serif" font-size="10.00" fill="#ffffff">python</text>
</g>
<!-- vcorelib&#45;&gt;vmklib_tasks_python -->
<g id="edge6" class="edge">
<title>vcorelib&#45;&gt;vmklib_tasks_python</title><style>.edge>path:hover{stroke-width:8}</style>
<path fill="none" stroke="black" d="M584.96,-498.84C609.65,-479.93 620.5,-482.05 644.96,-462.84 702.62,-417.57 701.98,-389.12 760.96,-345.59 793.39,-321.66 834.55,-301.06 864.38,-287.6"/>
<polygon fill="#10f9f9" stroke="black" points="865.92,-290.75 873.64,-283.49 863.08,-284.35 865.92,-290.75"/>
</g>
<!-- vmklib_tasks_python_build -->
<g id="node17" class="node">
<title>vmklib_tasks_python_build</title><style>.edge>path:hover{stroke-width:8}</style>
<ellipse fill="#573479" stroke="black" cx="383.96" cy="-39.6" rx="34.52" ry="39.7"/>
<text text-anchor="middle" x="383.96" y="-54.6" font-family="Helvetica,sans-Serif" font-size="10.00" fill="#ffffff">vmklib.</text>
<text text-anchor="middle" x="383.96" y="-42.6" font-family="Helvetica,sans-Serif" font-size="10.00" fill="#ffffff">tasks.</text>
<text text-anchor="middle" x="383.96" y="-30.6" font-family="Helvetica,sans-Serif" font-size="10.00" fill="#ffffff">python.</text>
<text text-anchor="middle" x="383.96" y="-18.6" font-family="Helvetica,sans-Serif" font-size="10.00" fill="#ffffff">build</text>
</g>
<!-- vcorelib&#45;&gt;vmklib_tasks_python_build -->
<g id="edge7" class="edge">
<title>vcorelib&#45;&gt;vmklib_tasks_python_build</title><style>.edge>path:hover{stroke-width:8}</style>
<path fill="none" stroke="black" d="M399.63,-559.32C386.78,-545.02 368.27,-522.43 356.96,-499.84"/>
<path fill="none" stroke="black" d="M356.96,-498.84C326.28,-437.53 290.56,-432.48 280.96,-364.59"/>
<path fill="none" stroke="black" d="M280.96,-362.59C264.88,-319.86 224.35,-342.75 192.96,-309.59 179.82,-295.7 171.4,-289.94 173.96,-270.99"/>
<path fill="none" stroke="black" d="M173.96,-268.99C190.82,-144.34 364.5,-289.37 446.96,-194.39 470.04,-167.81 459.05,-148.25 446.96,-115.2 441.03,-98.98 429.85,-83.86 418.53,-71.53"/>
<polygon fill="#10f9f9" stroke="black" points="420.96,-69.01 411.51,-64.23 415.91,-73.86 420.96,-69.01"/>
</g>
<!-- vmklib_tasks_python_lint -->
<g id="node18" class="node">
<title>vmklib_tasks_python_lint</title><style>.edge>path:hover{stroke-width:8}</style>
<ellipse fill="#6b35a1" stroke="black" cx="609.96" cy="-269.99" rx="34.52" ry="39.7"/>
<text text-anchor="middle" x="609.96" y="-284.99" font-family="Helvetica,sans-Serif" font-size="10.00" fill="#ffffff">vmklib.</text>
<text text-anchor="middle" x="609.96" y="-272.99" font-family="Helvetica,sans-Serif" font-size="10.00" fill="#ffffff">tasks.</text>
<text text-anchor="middle" x="609.96" y="-260.99" font-family="Helvetica,sans-Serif" font-size="10.00" fill="#ffffff">python.</text>
<text text-anchor="middle" x="609.96" y="-248.99" font-family="Helvetica,sans-Serif" font-size="10.00" fill="#ffffff">lint</text>
</g>
<!-- vcorelib&#45;&gt;vmklib_tasks_python_lint -->
<g id="edge8" class="edge">
<title>vcorelib&#45;&gt;vmklib_tasks_python_lint</title><style>.edge>path:hover{stroke-width:8}</style>
<path fill="none" stroke="black" d="M443.1,-570.11C481.69,-562.77 549.05,-544.11 584.96,-499.84"/>
<path fill="none" stroke="black" d="M584.96,-498.84C595.78,-485.51 574.13,-479.72 570.96,-462.84 567.25,-443.07 568.36,-437.53 570.96,-417.59 575.45,-383.25 585.62,-345.51 594.45,-316.92"/>
<polygon fill="#10f9f9" stroke="black" points="597.84,-317.8 597.5,-307.21 591.16,-315.7 597.84,-317.8"/>
</g>
<!-- vmklib_tasks_python_package -->
<g id="node19" class="node">
<title>vmklib_tasks_python_package</title><style>.edge>path:hover{stroke-width:8}</style>
<ellipse fill="#573479" stroke="black" cx="292.96" cy="-39.6" rx="38.1" ry="39.7"/>
<text text-anchor="middle" x="292.96" y="-54.6" font-family="Helvetica,sans-Serif" font-size="10.00" fill="#ffffff">vmklib.</text>
<text text-anchor="middle" x="292.96" y="-42.6" font-family="Helvetica,sans-Serif" font-size="10.00" fill="#ffffff">tasks.</text>
<text text-anchor="middle" x="292.96" y="-30.6" font-family="Helvetica,sans-Serif" font-size="10.00" fill="#ffffff">python.</text>
<text text-anchor="middle" x="292.96" y="-18.6" font-family="Helvetica,sans-Serif" font-size="10.00" fill="#ffffff">package</text>
</g>
<!-- vcorelib&#45;&gt;vmklib_tasks_python_package -->
<g id="edge9" class="edge">
<title>vcorelib&#45;&gt;vmklib_tasks_python_package</title><style>.edge>path:hover{stroke-width:8}</style>
<path fill="none" stroke="black" d="M242.96,-439.22C234.39,-397.63 248.95,-379.91 223.96,-345.59 204.75,-319.2 183.54,-332.15 159.96,-309.59 145.37,-295.62 133.91,-291.09 135.96,-270.99"/>
<path fill="none" stroke="black" d="M135.96,-268.99C138.19,-248.91 143.04,-241.42 159.96,-230.39 255.48,-168.13 339.21,-280.49 413.96,-194.39 437.04,-167.81 432.63,-145.04 413.96,-115.2 394.57,-84.19 370.75,-98.94 339.96,-79.2 336.61,-77.05 333.22,-74.69 329.89,-72.24"/>
<polygon fill="#10f9f9" stroke="black" points="331.81,-69.3 321.74,-66 327.55,-74.86 331.81,-69.3"/>
</g>
<!-- vmklib_tasks_python_sa -->
<g id="node20" class="node">
<title>vmklib_tasks_python_sa</title><style>.edge>path:hover{stroke-width:8}</style>
<ellipse fill="#613a88" stroke="black" cx="609.96" cy="-154.79" rx="34.52" ry="39.7"/>
<text text-anchor="middle" x="609.96" y="-169.79" font-family="Helvetica,sans-Serif" font-size="10.00" fill="#ffffff">vmklib.</text>
<text text-anchor="middle" x="609.96" y="-157.79" font-family="Helvetica,sans-Serif" font-size="10.00" fill="#ffffff">tasks.</text>
<text text-anchor="middle" x="609.96" y="-145.79" font-family="Helvetica,sans-Serif" font-size="10.00" fill="#ffffff">python.</text>
<text text-anchor="middle" x="609.96" y="-133.79" font-family="Helvetica,sans-Serif" font-size="10.00" fill="#ffffff">sa</text>
</g>
<!-- vcorelib&#45;&gt;vmklib_tasks_python_sa -->
<g id="edge10" class="edge">
<title>vcorelib&#45;&gt;vmklib_tasks_python_sa</title><style>.edge>path:hover{stroke-width:8}</style>
<path fill="none" stroke="black" d="M280.96,-362.59C274.38,-316.02 292.59,-293.36 333.96,-270.99"/>
</g>
<!-- vmklib_tasks_python_test -->
<g id="node21" class="node">
<title>vmklib_tasks_python_test</title><style>.edge>path:hover{stroke-width:8}</style>
<ellipse fill="#6b4096" stroke="black" cx="396.96" cy="-269.99" rx="34.52" ry="39.7"/>
<text text-anchor="middle" x="396.96" y="-284.99" font-family="Helvetica,sans-Serif" font-size="10.00" fill="#ffffff">vmklib.</text>
<text text-anchor="middle" x="396.96" y="-272.99" font-family="Helvetica,sans-Serif" font-size="10.00" fill="#ffffff">tasks.</text>
<text text-anchor="middle" x="396.96" y="-260.99" font-family="Helvetica,sans-Serif" font-size="10.00" fill="#ffffff">python.</text>
<text text-anchor="middle" x="396.96" y="-248.99" font-family="Helvetica,sans-Serif" font-size="10.00" fill="#ffffff">test</text>
</g>
<!-- vcorelib&#45;&gt;vmklib_tasks_python_test -->
<g id="edge11" class="edge">
<title>vcorelib&#45;&gt;vmklib_tasks_python_test</title><style>.edge>path:hover{stroke-width:8}</style>
<path fill="none" stroke="black" d="M356.96,-498.84C338.11,-442.23 360.29,-424.16 356.96,-364.59"/>
<path fill="none" stroke="black" d="M356.96,-362.59C356.66,-344.6 363.16,-326.17 371.01,-310.59"/>
<polygon fill="#10f9f9" stroke="black" points="374.09,-312.24 375.74,-301.78 367.92,-308.93 374.09,-312.24"/>
</g>
<!-- vmklib_tasks_python_yaml -->
<g id="node22" class="node">
<title>vmklib_tasks_python_yaml</title><style>.edge>path:hover{stroke-width:8}</style>
<ellipse fill="#6b4096" stroke="black" cx="522.96" cy="-269.99" rx="34.52" ry="39.7"/>
<text text-anchor="middle" x="522.96" y="-284.99" font-family="Helvetica,sans-Serif" font-size="10.00" fill="#ffffff">vmklib.</text>
<text text-anchor="middle" x="522.96" y="-272.99" font-family="Helvetica,sans-Serif" font-size="10.00" fill="#ffffff">tasks.</text>
<text text-anchor="middle" x="522.96" y="-260.99" font-family="Helvetica,sans-Serif" font-size="10.00" fill="#ffffff">python.</text>
<text text-anchor="middle" x="522.96" y="-248.99" font-family="Helvetica,sans-Serif" font-size="10.00" fill="#ffffff">yaml</text>
</g>
<!-- vcorelib&#45;&gt;vmklib_tasks_python_yaml -->
<g id="edge12" class="edge">
<title>vcorelib&#45;&gt;vmklib_tasks_python_yaml</title><style>.edge>path:hover{stroke-width:8}</style>
<path fill="none" stroke="black" d="M356.96,-498.84C350.21,-479.66 444.64,-361.76 456.96,-345.59 467.47,-331.81 479.86,-317.38 491.05,-304.94"/>
<polygon fill="#10f9f9" stroke="black" points="493.71,-307.22 497.84,-297.46 488.53,-302.51 493.71,-307.22"/>
</g>
<!-- vmklib_tasks_venv -->
<g id="node23" class="node">
<title>vmklib_tasks_venv</title><style>.edge>path:hover{stroke-width:8}</style>
<ellipse fill="#4c2e6b" stroke="black" cx="710.96" cy="-39.6" rx="33.13" ry="31.23"/>
<text text-anchor="middle" x="710.96" y="-48.6" font-family="Helvetica,sans-Serif" font-size="10.00" fill="#ffffff">vmklib.</text>
<text text-anchor="middle" x="710.96" y="-36.6" font-family="Helvetica,sans-Serif" font-size="10.00" fill="#ffffff">tasks.</text>
<text text-anchor="middle" x="710.96" y="-24.6" font-family="Helvetica,sans-Serif" font-size="10.00" fill="#ffffff">venv</text>
</g>
<!-- vcorelib&#45;&gt;vmklib_tasks_venv -->
<g id="edge13" class="edge">
<title>vcorelib&#45;&gt;vmklib_tasks_venv</title><style>.edge>path:hover{stroke-width:8}</style>
<path fill="none" stroke="black" d="M356.96,-362.59C356.48,-333.86 328.58,-336.99 319.96,-309.59 309.4,-276.01 297.35,-257.37 319.96,-230.39 378.83,-160.17 448.62,-247.96 522.96,-194.39 555.46,-170.98 537.33,-143.2 565.96,-115.2 595.59,-86.23 638.73,-66 670.25,-53.99"/>
<polygon fill="#10f9f9" stroke="black" points="671.47,-57.27 679.64,-50.52 669.04,-50.7 671.47,-57.27"/>
</g>
<!-- vcorelib_dict -->
<g id="node4" class="node">
<title>vcorelib_dict</title><style>.edge>path:hover{stroke-width:8}</style>
<ellipse fill="#3bcece" stroke="black" cx="569.96" cy="-741.04" rx="41.24" ry="18"/>
<text text-anchor="middle" x="569.96" y="-738.04" font-family="Helvetica,sans-Serif" font-size="10.00" fill="#000000">vcorelib.dict</text>
</g>
<!-- vcorelib_task -->
<g id="node6" class="node">
<title>vcorelib_task</title><style>.edge>path:hover{stroke-width:8}</style>
<ellipse fill="#06efef" stroke="black" cx="626.96" cy="-575.44" rx="43.08" ry="18"/>
<text text-anchor="middle" x="626.96" y="-572.44" font-family="Helvetica,sans-Serif" font-size="10.00" fill="#000000">vcorelib.task</text>
</g>
<!-- vcorelib_dict&#45;&gt;vcorelib_task -->
<g id="edge14" class="edge">
<title>vcorelib_dict&#45;&gt;vcorelib_task</title><style>.edge>path:hover{stroke-width:8}</style>
<path fill="none" stroke="black" d="M611.17,-738.15C724.87,-732.41 1035.09,-712.83 1040.96,-670.04"/>
<path fill="none" stroke="black" d="M1040.96,-668.04C1052.02,-587.49 754.1,-646.1 678.96,-615.04 669.4,-611.09 659.99,-604.99 651.86,-598.8"/>
<polygon fill="#3bcece" stroke="black" points="653.89,-595.93 643.9,-592.4 649.51,-601.39 653.89,-595.93"/>
</g>
<!-- vcorelib_task_manager -->
<g id="node7" class="node">
<title>vcorelib_task_manager</title><style>.edge>path:hover{stroke-width:8}</style>
<ellipse fill="#05e5e5" stroke="black" cx="98.96" cy="-575.44" rx="39.44" ry="31.23"/>
<text text-anchor="middle" x="98.96" y="-584.44" font-family="Helvetica,sans-Serif" font-size="10.00" fill="#000000">vcorelib.</text>
<text text-anchor="middle" x="98.96" y="-572.44" font-family="Helvetica,sans-Serif" font-size="10.00" fill="#000000">task.</text>
<text text-anchor="middle" x="98.96" y="-560.44" font-family="Helvetica,sans-Serif" font-size="10.00" fill="#000000">manager</text>
</g>
<!-- vcorelib_dict&#45;&gt;vcorelib_task_manager -->
<g id="edge15" class="edge">
<title>vcorelib_dict&#45;&gt;vcorelib_task_manager</title><style>.edge>path:hover{stroke-width:8}</style>
<path fill="none" stroke="black" d="M528.55,-739.35C436.71,-737.08 219.37,-727.48 159.96,-687.04 135.32,-670.26 119.65,-640.11 110.37,-615.53"/>
<polygon fill="#3bcece" stroke="black" points="113.65,-614.32 107,-606.07 107.06,-616.67 113.65,-614.32"/>
</g>
<!-- vcorelib_dict&#45;&gt;vmklib_tasks_venv -->
<g id="edge16" class="edge">
<title>vcorelib_dict&#45;&gt;vmklib_tasks_venv</title><style>.edge>path:hover{stroke-width:8}</style>
<path fill="none" stroke="black" d="M1040.96,-668.04C1051.13,-593.98 1040.96,-574.6 1040.96,-499.84 1040.96,-499.84 1040.96,-499.84 1040.96,-268.99 1040.96,-199.81 1063.78,-166.13 1016.96,-115.2 981.76,-76.89 829.8,-54.31 754.13,-45.25"/>
<polygon fill="#3bcece" stroke="black" points="754.31,-41.74 743.97,-44.06 753.5,-48.7 754.31,-41.74"/>
</g>
<!-- vcorelib_paths -->
<g id="node5" class="node">
<title>vcorelib_paths</title><style>.edge>path:hover{stroke-width:8}</style>
<ellipse fill="#40bfc0" stroke="black" cx="318.96" cy="-575.44" rx="46.95" ry="18"/>
<text text-anchor="middle" x="318.96" y="-572.44" font-family="Helvetica,sans-Serif" font-size="10.00" fill="#000000">vcorelib.paths</text>
</g>
<!-- vcorelib_paths&#45;&gt;vmklib_resources -->
<g id="edge17" class="edge">
<title>vcorelib_paths&#45;&gt;vmklib_resources</title><style>.edge>path:hover{stroke-width:8}</style>
<path fill="none" stroke="black" d="M297.59,-559.35C287.21,-552.12 274.52,-543.41 262.96,-535.84 237.58,-519.23 221.32,-525.39 204.96,-499.84"/>
</g>
<!-- vcorelib_paths&#45;&gt;vmklib_tasks_mixins_concrete -->
<g id="edge18" class="edge">
<title>vcorelib_paths&#45;&gt;vmklib_tasks_mixins_concrete</title><style>.edge>path:hover{stroke-width:8}</style>
<path fill="none" stroke="black" d="M320.78,-557.45C323.3,-540.93 329.23,-515.9 342.96,-498.84 392.25,-437.61 602.57,-334.62 695.05,-291.23"/>
<polygon fill="#40bfc0" stroke="black" points="696.57,-294.38 704.15,-286.98 693.6,-288.04 696.57,-294.38"/>
</g>
<!-- vcorelib_task&#45;&gt;vmklib_app -->
<g id="edge19" class="edge">
<title>vcorelib_task&#45;&gt;vmklib_app</title><style>.edge>path:hover{stroke-width:8}</style>
<path fill="none" stroke="black" d="M585.71,-569.8C535.99,-562.41 452.03,-543.97 394.96,-499.84"/>
<path fill="none" stroke="black" d="M394.96,-498.84C333.58,-451.37 254.53,-406.21 210.46,-382.28"/>
<polygon fill="#06efef" stroke="black" points="212.07,-379.18 201.61,-377.51 208.75,-385.34 212.07,-379.18"/>
</g>
<!-- vcorelib_task&#45;&gt;vmklib_tasks_mixins_concrete -->
<g id="edge20" class="edge">
<title>vcorelib_task&#45;&gt;vmklib_tasks_mixins_concrete</title><style>.edge>path:hover{stroke-width:8}</style>
<path fill="none" stroke="black" d="M646.44,-559.39C656.09,-552.08 667.99,-543.3 678.96,-535.84 704.05,-518.79 727.62,-528.71 736.96,-499.84"/>
<path fill="none" stroke="black" d="M736.96,-498.84C756.25,-439.23 752.44,-366.17 746.73,-319.11"/>
<polygon fill="#06efef" stroke="black" points="750.2,-318.66 745.45,-309.19 743.25,-319.56 750.2,-318.66"/>
</g>
<!-- vcorelib_task&#45;&gt;vmklib_tasks_python -->
<g id="edge21" class="edge">
<title>vcorelib_task&#45;&gt;vmklib_tasks_python</title><style>.edge>path:hover{stroke-width:8}</style>
<path fill="none" stroke="black" d="M774.96,-439.22C810.35,-372.79 906.88,-437.12 926.96,-364.59"/>
<path fill="none" stroke="black" d="M926.96,-362.59C931.94,-344.62 927.96,-324.55 922,-307.78"/>
<polygon fill="#06efef" stroke="black" points="925.2,-306.38 918.31,-298.34 918.68,-308.92 925.2,-306.38"/>
</g>
<!-- vcorelib_task&#45;&gt;vmklib_tasks_python_build -->
<g id="edge22" class="edge">
<title>vcorelib_task&#45;&gt;vmklib_tasks_python_build</title><style>.edge>path:hover{stroke-width:8}</style>
<path fill="none" stroke="black" d="M318.96,-362.59C308.59,-354.63 306.57,-351.6 294.96,-345.59 252.27,-323.48 228.9,-341.52 192.96,-309.59 178.67,-296.89 171.6,-289.96 173.96,-270.99"/>
</g>
<!-- vcorelib_task&#45;&gt;vmklib_tasks_python_lint -->
<g id="edge23" class="edge">
<title>vcorelib_task&#45;&gt;vmklib_tasks_python_lint</title><style>.edge>path:hover{stroke-width:8}</style>
<path fill="none" stroke="black" d="M622.96,-498.84C603.81,-439.42 603.31,-366.82 605.76,-319.78"/>
<polygon fill="#06efef" stroke="black" points="609.26,-319.75 606.35,-309.56 602.27,-319.34 609.26,-319.75"/>
</g>
<!-- vcorelib_task&#45;&gt;vmklib_tasks_python_package -->
<g id="edge24" class="edge">
<title>vcorelib_task&#45;&gt;vmklib_tasks_python_package</title><style>.edge>path:hover{stroke-width:8}</style>
<path fill="none" stroke="black" d="M394.96,-498.84C374.22,-483.82 400.81,-466.15 394.96,-441.22"/>
<path fill="none" stroke="black" d="M394.96,-439.22C389.56,-416.17 337.75,-378.99 318.96,-364.59"/>
<path fill="none" stroke="black" d="M318.96,-362.59C308.59,-354.63 306.8,-351.14 294.96,-345.59 238.74,-319.23 209.86,-346.55 159.96,-309.59 143.73,-297.56 133.88,-291.08 135.96,-270.99"/>
</g>
<!-- vcorelib_task&#45;&gt;vmklib_tasks_python_sa -->
<g id="edge25" class="edge">
<title>vcorelib_task&#45;&gt;vmklib_tasks_python_sa</title><style>.edge>path:hover{stroke-width:8}</style>
<path fill="none" stroke="black" d="M394.96,-362.59C400.3,-331.86 423.84,-335.66 440.96,-309.59 462.39,-276.96 450.9,-257.53 478.96,-230.39 507.58,-202.73 526.83,-214.87 560.96,-194.39 565.43,-191.71 569.95,-188.67 574.35,-185.51"/>
<polygon fill="#06efef" stroke="black" points="576.7,-188.12 582.6,-179.32 572.5,-182.52 576.7,-188.12"/>
</g>
<!-- vcorelib_task&#45;&gt;vmklib_tasks_python_test -->
<g id="edge26" class="edge">
<title>vcorelib_task&#45;&gt;vmklib_tasks_python_test</title><style>.edge>path:hover{stroke-width:8}</style>
<path fill="none" stroke="black" d="M394.96,-439.22C387.4,-406.92 389.29,-397.27 394.96,-364.59"/>
<path fill="none" stroke="black" d="M394.96,-362.59C397.35,-348.85 398.33,-333.78 398.6,-319.9"/>
<polygon fill="#06efef" stroke="black" points="402.1,-319.59 398.67,-309.56 395.1,-319.54 402.1,-319.59"/>
</g>
<!-- vcorelib_task&#45;&gt;vmklib_tasks_python_yaml -->
<g id="edge27" class="edge">
<title>vcorelib_task&#45;&gt;vmklib_tasks_python_yaml</title><style>.edge>path:hover{stroke-width:8}</style>
<path fill="none" stroke="black" d="M628.82,-557.29C629.85,-541.8 629.79,-518.61 622.96,-499.84"/>
<path fill="none" stroke="black" d="M622.96,-498.84C616.71,-481.64 610.94,-479.32 602.96,-462.84 579.11,-413.59 555.44,-355.37 540.11,-316.08"/>
<polygon fill="#06efef" stroke="black" points="543.28,-314.58 536.4,-306.52 536.76,-317.11 543.28,-314.58"/>
</g>
<!-- vcorelib_task&#45;&gt;vmklib_tasks_venv -->
<g id="edge28" class="edge">
<title>vcorelib_task&#45;&gt;vmklib_tasks_venv</title><style>.edge>path:hover{stroke-width:8}</style>
<path fill="none" stroke="black" d="M646.15,-558.94C655.73,-551.53 667.66,-542.79 678.96,-535.84 709.44,-517.11 726.63,-526.07 750.96,-499.84 770.11,-479.2 761.72,-466.06 774.96,-441.22"/>
<path fill="none" stroke="black" d="M774.96,-439.22C862.66,-331.27 775.95,-151.17 732.52,-75.63"/>
<polygon fill="#06efef" stroke="black" points="735.52,-73.82 727.45,-66.94 729.47,-77.35 735.52,-73.82"/>
</g>
<!-- vcorelib_task_manager&#45;&gt;vmklib_app -->
<g id="edge29" class="edge">
<title>vcorelib_task_manager&#45;&gt;vmklib_app</title><style>.edge>path:hover{stroke-width:8}</style>
<path fill="none" stroke="black" d="M102.96,-439.22C108.76,-416.1 127.91,-397.14 145.27,-384.12"/>
<polygon fill="#05e5e5" stroke="black" points="147.46,-386.86 153.59,-378.21 143.41,-381.15 147.46,-386.86"/>
</g>
<!-- vcorelib_task_manager&#45;&gt;vmklib_tasks_python_build -->
<g id="edge30" class="edge">
<title>vcorelib_task_manager&#45;&gt;vmklib_tasks_python_build</title><style>.edge>path:hover{stroke-width:8}</style>
<path fill="none" stroke="black" d="M292.96,-153.79C309.83,-144.79 300.97,-130.84 311.96,-115.2 322.78,-99.81 336.76,-84.55 349.52,-71.89"/>
<polygon fill="#05e5e5" stroke="black" points="352.13,-74.23 356.86,-64.75 347.25,-69.21 352.13,-74.23"/>
</g>
<!-- vcorelib_task_manager&#45;&gt;vmklib_tasks_python_lint -->
<g id="edge31" class="edge">
<title>vcorelib_task_manager&#45;&gt;vmklib_tasks_python_lint</title><style>.edge>path:hover{stroke-width:8}</style>
<path fill="none" stroke="black" d="M110.96,-362.59C117.96,-353.67 119.55,-350.06 129.96,-345.59 309,-268.61 387.99,-386.71 566.96,-309.59 570.39,-308.11 573.73,-306.25 576.93,-304.15"/>
<polygon fill="#05e5e5" stroke="black" points="579.12,-306.88 585.06,-298.11 574.95,-301.26 579.12,-306.88"/>
</g>
<!-- vcorelib_task_manager&#45;&gt;vmklib_tasks_python_package -->
<g id="edge32" class="edge">
<title>vcorelib_task_manager&#45;&gt;vmklib_tasks_python_package</title><style>.edge>path:hover{stroke-width:8}</style>
<path fill="none" stroke="black" d="M96.23,-544.31C94.61,-516.97 94.3,-475.78 102.96,-441.22"/>
<path fill="none" stroke="black" d="M102.96,-439.22C112.97,-407.39 90.37,-390.83 110.96,-364.59"/>
<path fill="none" stroke="black" d="M110.96,-362.59C141.05,-324.24 39.73,-351.56 14.96,-309.59 -2.93,-279.28 -6.46,-258.32 14.96,-230.39 92.82,-128.89 179.68,-215.23 292.96,-155.79"/>
<path fill="none" stroke="black" d="M292.96,-153.79C304.58,-147.59 304.03,-116.85 300.87,-88.97"/>
<polygon fill="#05e5e5" stroke="black" points="304.33,-88.37 299.61,-78.88 297.38,-89.24 304.33,-88.37"/>
</g>
<!-- vcorelib_task_manager&#45;&gt;vmklib_tasks_python_sa -->
<g id="edge33" class="edge">
<title>vcorelib_task_manager&#45;&gt;vmklib_tasks_python_sa</title><style>.edge>path:hover{stroke-width:8}</style>
<path fill="none" stroke="black" d="M110.96,-362.59C158.77,-301.66 206.17,-341 276.96,-309.59 304.93,-297.18 307.05,-285.54 333.96,-270.99"/>
<path fill="none" stroke="black" d="M333.96,-268.99C350.78,-259.9 337.65,-241.85 352.96,-230.39 428.08,-174.19 475.27,-232.59 560.96,-194.39 565.78,-192.24 570.55,-189.51 575.1,-186.5"/>
<polygon fill="#05e5e5" stroke="black" points="577.46,-189.11 583.55,-180.44 573.38,-183.42 577.46,-189.11"/>
</g>
<!-- vcorelib_task_manager&#45;&gt;vmklib_tasks_python_test -->
<g id="edge34" class="edge">
<title>vcorelib_task_manager&#45;&gt;vmklib_tasks_python_test</title><style>.edge>path:hover{stroke-width:8}</style>
<path fill="none" stroke="black" d="M110.96,-362.59C177.59,-277.67 249.21,-353.15 347.96,-309.59 352.79,-307.46 357.56,-304.74 362.11,-301.73"/>
<polygon fill="#05e5e5" stroke="black" points="364.48,-304.35 370.57,-295.68 360.4,-298.66 364.48,-304.35"/>
</g>
<!-- vcorelib_task_manager&#45;&gt;vmklib_tasks_python_yaml -->
<g id="edge35" class="edge">
<title>vcorelib_task_manager&#45;&gt;vmklib_tasks_python_yaml</title><style>.edge>path:hover{stroke-width:8}</style>
<path fill="none" stroke="black" d="M110.96,-362.59C117.96,-353.67 119.63,-350.23 129.96,-345.59 256.87,-288.52 307.14,-347.72 440.96,-309.59 455.21,-305.53 470.07,-299.23 483.16,-292.9"/>
<polygon fill="#05e5e5" stroke="black" points="484.97,-295.91 492.35,-288.31 481.84,-289.65 484.97,-295.91"/>
</g>
<!-- vcorelib_task_manager&#45;&gt;vmklib_tasks_venv -->
<g id="edge36" class="edge">
<title>vcorelib_task_manager&#45;&gt;vmklib_tasks_venv</title><style>.edge>path:hover{stroke-width:8}</style>
<path fill="none" stroke="black" d="M292.96,-153.79C309.83,-144.79 296.73,-126.75 311.96,-115.2 340.2,-93.77 570.44,-59.95 667.78,-46.45"/>
<polygon fill="#05e5e5" stroke="black" points="668.45,-49.89 677.87,-45.06 667.49,-42.96 668.45,-49.89"/>
</g>
<!-- vcorelib_task_subprocess -->
<g id="node8" class="node">
<title>vcorelib_task_subprocess</title><style>.edge>path:hover{stroke-width:8}</style>
<ellipse fill="#10f9f9" stroke="black" cx="926.96" cy="-575.44" rx="47.45" ry="31.23"/>
<text text-anchor="middle" x="926.96" y="-584.44" font-family="Helvetica,sans-Serif" font-size="10.00" fill="#000000">vcorelib.</text>
<text text-anchor="middle" x="926.96" y="-572.44" font-family="Helvetica,sans-Serif" font-size="10.00" fill="#000000">task.</text>
<text text-anchor="middle" x="926.96" y="-560.44" font-family="Helvetica,sans-Serif" font-size="10.00" fill="#000000">subprocess</text>
</g>
<!-- vcorelib_task_subprocess&#45;&gt;vmklib_tasks_mixins_concrete -->
<g id="edge37" class="edge">
<title>vcorelib_task_subprocess&#45;&gt;vmklib_tasks_mixins_concrete</title><style>.edge>path:hover{stroke-width:8}</style>
<path fill="none" stroke="black" d="M930.8,-544.12C931.58,-530.35 931.12,-514.01 926.96,-499.84"/>
<path fill="none" stroke="black" d="M926.96,-498.84C913.78,-453.94 823.82,-357.24 773.28,-305.43"/>
<polygon fill="#10f9f9" stroke="black" points="775.62,-302.81 766.12,-298.12 770.62,-307.71 775.62,-302.81"/>
</g>
<!-- vcorelib_task_subprocess&#45;&gt;vmklib_tasks_python -->
<g id="edge38" class="edge">
<title>vcorelib_task_subprocess&#45;&gt;vmklib_tasks_python</title><style>.edge>path:hover{stroke-width:8}</style>
<path fill="none" stroke="black" d="M926.96,-498.84C919.75,-474.27 923,-466.52 926.96,-441.22"/>
</g>
<!-- vcorelib_task_subprocess&#45;&gt;vmklib_tasks_python_build -->
<g id="edge39" class="edge">
<title>vcorelib_task_subprocess&#45;&gt;vmklib_tasks_python_build</title><style>.edge>path:hover{stroke-width:8}</style>
<path fill="none" stroke="black" d="M1002.96,-268.99C994.98,-219.32 1033.87,-195.49 1002.96,-155.79"/>
<path fill="none" stroke="black" d="M1002.96,-153.79C983.02,-128.18 971.52,-126.15 940.96,-115.2 826.17,-74.05 789.83,-95.38 668.96,-79.2 583.7,-67.78 484.13,-54.25 428.12,-46.62"/>
<polygon fill="#10f9f9" stroke="black" points="428.56,-43.15 418.18,-45.27 427.61,-50.08 428.56,-43.15"/>
</g>
<!-- vcorelib_task_subprocess&#45;&gt;vmklib_tasks_python_lint -->
<g id="edge40" class="edge">
<title>vcorelib_task_subprocess&#45;&gt;vmklib_tasks_python_lint</title><style>.edge>path:hover{stroke-width:8}</style>
<path fill="none" stroke="black" d="M774.96,-362.59C754.84,-344.76 692.72,-312.16 650.72,-291.04"/>
<polygon fill="#10f9f9" stroke="black" points="652.06,-287.8 641.56,-286.46 648.93,-294.06 652.06,-287.8"/>
</g>
<!-- vcorelib_task_subprocess&#45;&gt;vmklib_tasks_python_package -->
<g id="edge41" class="edge">
<title>vcorelib_task_subprocess&#45;&gt;vmklib_tasks_python_package</title><style>.edge>path:hover{stroke-width:8}</style>
<path fill="none" stroke="black" d="M942.15,-545.91C968.75,-492.54 1019.46,-373.68 1002.96,-270.99"/>
<path fill="none" stroke="black" d="M1002.96,-268.99C995.81,-222.9 984.45,-191.75 724.96,-115.2 560.13,-66.57 498.89,-144.6 339.96,-79.2 336.06,-77.59 332.24,-75.55 328.55,-73.24"/>
<polygon fill="#10f9f9" stroke="black" points="330.47,-70.31 320.26,-67.47 326.47,-76.05 330.47,-70.31"/>
</g>
<!-- vcorelib_task_subprocess&#45;&gt;vmklib_tasks_python_test -->
<g id="edge42" class="edge">
<title>vcorelib_task_subprocess&#45;&gt;vmklib_tasks_python_test</title><style>.edge>path:hover{stroke-width:8}</style>
<path fill="none" stroke="black" d="M911.77,-545.94C887.5,-502.5 836.42,-419.03 774.96,-364.59"/>
<path fill="none" stroke="black" d="M774.96,-362.59C664.35,-287.57 606.3,-350.17 478.96,-309.59 464.97,-305.13 450.28,-298.79 437.26,-292.53"/>
<polygon fill="#10f9f9" stroke="black" points="438.63,-289.3 428.11,-288.02 435.53,-295.58 438.63,-289.3"/>
</g>
<!-- vcorelib_task_subprocess&#45;&gt;vmklib_tasks_python_yaml -->
<g id="edge43" class="edge">
<title>vcorelib_task_subprocess&#45;&gt;vmklib_tasks_python_yaml</title><style>.edge>path:hover{stroke-width:8}</style>
<path fill="none" stroke="black" d="M774.96,-362.59C703.23,-299.04 650.52,-354.68 565.96,-309.59 562.67,-307.83 559.43,-305.77 556.29,-303.53"/>
<polygon fill="#10f9f9" stroke="black" points="558.3,-300.66 548.26,-297.28 554,-306.18 558.3,-300.66"/>
</g>
<!-- vcorelib_task_subprocess&#45;&gt;vmklib_tasks_venv -->
<g id="edge44" class="edge">
<title>vcorelib_task_subprocess&#45;&gt;vmklib_tasks_venv</title><style>.edge>path:hover{stroke-width:8}</style>
<path fill="none" stroke="black" d="M1002.96,-153.79C990.55,-137.85 995.13,-127.31 978.96,-115.2 911.46,-64.63 811.35,-48.34 754.52,-43.09"/>
<polygon fill="#10f9f9" stroke="black" points="754.69,-39.59 744.43,-42.23 754.1,-46.57 754.69,-39.59"/>
</g>
<!-- vcorelib_task_subprocess_run -->
<g id="node9" class="node">
<title>vcorelib_task_subprocess_run</title><style>.edge>path:hover{stroke-width:8}</style>
<ellipse fill="#06efef" stroke="black" cx="736.96" cy="-575.44" rx="49.38" ry="39.7"/>
<text text-anchor="middle" x="736.96" y="-590.44" font-family="Helvetica,sans-Serif" font-size="10.00" fill="#000000">vcorelib.</text>
<text text-anchor="middle" x="736.96" y="-578.44" font-family="Helvetica,sans-Serif" font-size="10.00" fill="#000000">task.</text>
<text text-anchor="middle" x="736.96" y="-566.44" font-family="Helvetica,sans-Serif" font-size="10.00" fill="#000000">subprocess.</text>
<text text-anchor="middle" x="736.96" y="-554.44" font-family="Helvetica,sans-Serif" font-size="10.00" fill="#000000">run</text>
</g>
<!-- vcorelib_task_subprocess_run&#45;&gt;vmklib_tasks_mixins_concrete -->
<g id="edge45" class="edge">
<title>vcorelib_task_subprocess_run&#45;&gt;vmklib_tasks_mixins_concrete</title><style>.edge>path:hover{stroke-width:8}</style>
<path fill="none" stroke="black" d="M732.45,-535.78C732.26,-524 733.3,-511.18 736.96,-499.84"/>
</g>
<!-- vcorelib_task_subprocess_run&#45;&gt;vmklib_tasks_python -->
<g id="edge46" class="edge">
<title>vcorelib_task_subprocess_run&#45;&gt;vmklib_tasks_python</title><style>.edge>path:hover{stroke-width:8}</style>
<path fill="none" stroke="black" d="M783.76,-562.2C836.52,-545.21 916.39,-508.68 926.96,-441.22"/>
<path fill="none" stroke="black" d="M926.96,-439.22C931.33,-406.34 918.11,-396.55 926.96,-364.59"/>
</g>
<!-- vcorelib_task_subprocess_run&#45;&gt;vmklib_tasks_python_build -->
<g id="edge47" class="edge">
<title>vcorelib_task_subprocess_run&#45;&gt;vmklib_tasks_python_build</title><style>.edge>path:hover{stroke-width:8}</style>
<path fill="none" stroke="black" d="M758.14,-539.41C779.39,-501.92 810.57,-439.94 821.96,-381.59 846.12,-257.92 825.3,-191.41 724.96,-115.2 678.57,-79.96 509.5,-55.57 428.21,-45.61"/>
<polygon fill="#06efef" stroke="black" points="428.62,-42.14 418.27,-44.41 427.78,-49.09 428.62,-42.14"/>
</g>
<!-- vcorelib_task_subprocess_run&#45;&gt;vmklib_tasks_python_lint -->
<g id="edge48" class="edge">
<title>vcorelib_task_subprocess_run&#45;&gt;vmklib_tasks_python_lint</title><style>.edge>path:hover{stroke-width:8}</style>
<path fill="none" stroke="black" d="M622.96,-362.59C615.15,-350.1 611.27,-334.79 609.5,-320.3"/>
<polygon fill="#06efef" stroke="black" points="612.95,-319.59 608.56,-309.94 605.98,-320.22 612.95,-319.59"/>
</g>
<!-- vcorelib_task_subprocess_run&#45;&gt;vmklib_tasks_python_package -->
<g id="edge49" class="edge">
<title>vcorelib_task_subprocess_run&#45;&gt;vmklib_tasks_python_package</title><style>.edge>path:hover{stroke-width:8}</style>
<path fill="none" stroke="black" d="M622.96,-362.59C607.8,-339.9 646.83,-335.93 653.96,-309.59 676.56,-226.2 711.47,-179.67 653.96,-115.2 607.21,-62.78 404.63,-106.6 339.96,-79.2 336.08,-77.55 332.27,-75.48 328.59,-73.15"/>
<polygon fill="#06efef" stroke="black" points="330.51,-70.22 320.31,-67.35 326.49,-75.96 330.51,-70.22"/>
</g>
<!-- vcorelib_task_subprocess_run&#45;&gt;vmklib_tasks_python_test -->
<g id="edge50" class="edge">
<title>vcorelib_task_subprocess_run&#45;&gt;vmklib_tasks_python_test</title><style>.edge>path:hover{stroke-width:8}</style>
<path fill="none" stroke="black" d="M719.1,-538.41C697.67,-495.99 660.01,-423.82 622.96,-364.59"/>
<path fill="none" stroke="black" d="M622.96,-362.59C585.06,-305.89 541.87,-335.91 478.96,-309.59 465.41,-303.92 450.84,-297.25 437.8,-291.07"/>
<polygon fill="#06efef" stroke="black" points="439.14,-287.83 428.61,-286.67 436.12,-294.14 439.14,-287.83"/>
</g>
<!-- vcorelib_task_subprocess_run&#45;&gt;vmklib_tasks_python_yaml -->
<g id="edge51" class="edge">
<title>vcorelib_task_subprocess_run&#45;&gt;vmklib_tasks_python_yaml</title><style>.edge>path:hover{stroke-width:8}</style>
<path fill="none" stroke="black" d="M622.96,-362.59C621.76,-360.66 585.72,-327.82 557.24,-302"/>
<polygon fill="#06efef" stroke="black" points="559.58,-299.4 549.82,-295.28 554.88,-304.59 559.58,-299.4"/>
</g>
<!-- vcorelib_task_subprocess_run&#45;&gt;vmklib_tasks_venv -->
<g id="edge52" class="edge">
<title>vcorelib_task_subprocess_run&#45;&gt;vmklib_tasks_venv</title><style>.edge>path:hover{stroke-width:8}</style>
<path fill="none" stroke="black" d="M781.74,-558.46C848.14,-533.35 964.96,-483.22 964.96,-441.22 964.96,-441.22 964.96,-441.22 964.96,-362.59 964.96,-270.68 1004.37,-238.83 964.96,-155.79"/>
</g>
<!-- vmklib___main__ -->
<g id="node10" class="node">
<title>vmklib___main__</title><style>.edge>path:hover{stroke-width:8}</style>
<ellipse fill="#7a49ac" stroke="black" cx="362.96" cy="-154.79" rx="42.24" ry="22.76"/>
<text text-anchor="middle" x="362.96" y="-157.79" font-family="Helvetica,sans-Serif" font-size="10.00" fill="#ffffff">vmklib.</text>
<text text-anchor="middle" x="362.96" y="-145.79" font-family="Helvetica,sans-Serif" font-size="10.00" fill="#ffffff">__main__</text>
</g>
<!-- vmklib_entry -->
<g id="node12" class="node">
<title>vmklib_entry</title><style>.edge>path:hover{stroke-width:8}</style>
<ellipse fill="#7a3db8" stroke="black" cx="65.96" cy="-269.99" rx="41.9" ry="18"/>
<text text-anchor="middle" x="65.96" y="-266.99" font-family="Helvetica,sans-Serif" font-size="10.00" fill="#ffffff">vmklib.entry</text>
</g>
<!-- vmklib_app&#45;&gt;vmklib_entry -->
<g id="edge53" class="edge">
<title>vmklib_app&#45;&gt;vmklib_entry</title><style>.edge>path:hover{stroke-width:8}</style>
<path fill="none" stroke="black" d="M158.63,-347.46C140.67,-332.64 113.08,-309.87 92.67,-293.03"/>
<polygon fill="#6b35a1" stroke="black" points="94.63,-290.11 84.69,-286.44 90.18,-295.51 94.63,-290.11"/>
</g>
<!-- vmklib_entry&#45;&gt;vmklib___main__ -->
<g id="edge54" class="edge">
<title>vmklib_entry&#45;&gt;vmklib___main__</title><style>.edge>path:hover{stroke-width:8}</style>
<path fill="none" stroke="black" d="M84.01,-253.7C94.47,-245.6 108.25,-236.16 121.96,-230.39 199.19,-197.94 229.74,-226.84 306.96,-194.39 315.76,-190.7 324.58,-185.49 332.53,-180.09"/>
<polygon fill="#7a3db8" stroke="black" points="334.66,-182.87 340.78,-174.23 330.6,-177.17 334.66,-182.87"/>
</g>
<!-- vmklib_resources&#45;&gt;vmklib_app -->
<g id="edge55" class="edge">
<title>vmklib_resources&#45;&gt;vmklib_app</title><style>.edge>path:hover{stroke-width:8}</style>
<path fill="none" stroke="black" d="M174.14,-417.23C174.57,-409.25 175.06,-400.13 175.51,-391.76"/>
<polygon fill="#753ab0" stroke="black" points="179.01,-391.86 176.05,-381.69 172.02,-391.48 179.01,-391.86"/>
</g>
<!-- vmklib_tasks_mixins -->
<g id="node14" class="node">
<title>vmklib_tasks_mixins</title><style>.edge>path:hover{stroke-width:8}</style>
<ellipse fill="#852fdb" stroke="black" cx="234.96" cy="-269.99" rx="33.13" ry="31.23"/>
<text text-anchor="middle" x="234.96" y="-278.99" font-family="Helvetica,sans-Serif" font-size="10.00" fill="#ffffff">vmklib.</text>
<text text-anchor="middle" x="234.96" y="-266.99" font-family="Helvetica,sans-Serif" font-size="10.00" fill="#ffffff">tasks.</text>
<text text-anchor="middle" x="234.96" y="-254.99" font-family="Helvetica,sans-Serif" font-size="10.00" fill="#ffffff">mixins</text>
</g>
<!-- vmklib_tasks_mixins&#45;&gt;vmklib_tasks_python_build -->
<g id="edge56" class="edge">
<title>vmklib_tasks_mixins&#45;&gt;vmklib_tasks_python_build</title><style>.edge>path:hover{stroke-width:8}</style>
<path fill="none" stroke="black" d="M508.96,-153.79C527.67,-108.95 469.6,-74.68 426.43,-56.12"/>
<polygon fill="#852fdb" stroke="black" points="427.5,-52.78 416.93,-52.18 424.82,-59.24 427.5,-52.78"/>
</g>
<!-- vmklib_tasks_mixins&#45;&gt;vmklib_tasks_python_package -->
<g id="edge57" class="edge">
<title>vmklib_tasks_mixins&#45;&gt;vmklib_tasks_python_package</title><style>.edge>path:hover{stroke-width:8}</style>
<path fill="none" stroke="black" d="M257.25,-246.77C264.59,-240.58 273.14,-234.45 281.96,-230.39 365.19,-192.07 409.08,-245.75 484.96,-194.39 501.69,-183.07 501.19,-174.44 508.96,-155.79"/>
<path fill="none" stroke="black" d="M508.96,-153.79C521.46,-123.84 476.32,-129.04 446.96,-115.2 401.58,-93.79 383.85,-103.52 339.96,-79.2 336.33,-77.18 332.7,-74.87 329.16,-72.41"/>
<polygon fill="#852fdb" stroke="black" points="331.22,-69.58 321.1,-66.44 327.06,-75.21 331.22,-69.58"/>
</g>
<!-- vmklib_tasks_mixins&#45;&gt;vmklib_tasks_venv -->
<g id="edge58" class="edge">
<title>vmklib_tasks_mixins&#45;&gt;vmklib_tasks_venv</title><style>.edge>path:hover{stroke-width:8}</style>
<path fill="none" stroke="black" d="M508.96,-153.79C516.74,-135.15 517.59,-128.3 532.96,-115.2 572.65,-81.38 629.85,-61.12 668.61,-50.42"/>
<polygon fill="#852fdb" stroke="black" points="669.77,-53.73 678.54,-47.78 667.97,-46.97 669.77,-53.73"/>
</g>
<!-- vmklib_tasks_mixins_concrete&#45;&gt;vmklib_tasks_python_build -->
<g id="edge59" class="edge">
<title>vmklib_tasks_mixins_concrete&#45;&gt;vmklib_tasks_python_build</title><style>.edge>path:hover{stroke-width:8}</style>
<path fill="none" stroke="black" d="M710.96,-153.79C698.14,-138.18 703.31,-127.06 686.96,-115.2 608.68,-58.37 492.19,-44.52 428.88,-41.35"/>
<polygon fill="#6b20b6" stroke="black" points="428.96,-37.85 418.81,-40.91 428.65,-44.84 428.96,-37.85"/>
</g>
<!-- vmklib_tasks_mixins_concrete&#45;&gt;vmklib_tasks_python_package -->
<g id="edge60" class="edge">
<title>vmklib_tasks_mixins_concrete&#45;&gt;vmklib_tasks_python_package</title><style>.edge>path:hover{stroke-width:8}</style>
<path fill="none" stroke="black" d="M737.65,-230.39C734.99,-206.57 728.11,-176.68 710.96,-155.79"/>
<path fill="none" stroke="black" d="M710.96,-153.79C698.14,-138.18 704.09,-125.91 686.96,-115.2 555.51,-32.97 483.05,-138.93 339.96,-79.2 336.07,-77.57 332.25,-75.51 328.57,-73.2"/>
<polygon fill="#6b20b6" stroke="black" points="330.49,-70.27 320.28,-67.41 326.48,-76.01 330.49,-70.27"/>
</g>
<!-- vmklib_tasks_mixins_concrete&#45;&gt;vmklib_tasks_venv -->
<g id="edge61" class="edge">
<title>vmklib_tasks_mixins_concrete&#45;&gt;vmklib_tasks_venv</title><style>.edge>path:hover{stroke-width:8}</style>
<path fill="none" stroke="black" d="M710.96,-153.79C694.27,-133.46 695.03,-103.44 699.56,-79.42"/>
<polygon fill="#6b20b6" stroke="black" points="703.01,-80.05 701.7,-69.54 696.17,-78.58 703.01,-80.05"/>
</g>
<!-- vmklib_tasks_python&#45;&gt;vmklib_tasks_venv -->
<g id="edge62" class="edge">
<title>vmklib_tasks_python&#45;&gt;vmklib_tasks_venv</title><style>.edge>path:hover{stroke-width:8}</style>
<path fill="none" stroke="black" d="M928.02,-248.45C951.21,-226.02 980.66,-188.87 964.96,-155.79"/>
<path fill="none" stroke="black" d="M964.96,-153.79C956.3,-135.54 956.87,-127.65 940.96,-115.2 885.41,-71.72 803.68,-53.18 754.08,-45.57"/>
<polygon fill="#702db4" stroke="black" points="754.41,-42.08 744.01,-44.1 753.4,-49.01 754.41,-42.08"/>
</g>
<!-- vmklib_tasks_python_lint&#45;&gt;vmklib_tasks_python_sa -->
<g id="edge63" class="edge">
<title>vmklib_tasks_python_lint&#45;&gt;vmklib_tasks_python_sa</title><style>.edge>path:hover{stroke-width:8}</style>
<path fill="none" stroke="black" d="M609.96,-230.35C609.96,-222.15 609.96,-213.4 609.96,-204.87"/>
<polygon fill="#6b35a1" stroke="black" points="613.46,-204.64 609.96,-194.64 606.46,-204.64 613.46,-204.64"/>
</g>
</g>
</svg>
