<?xml version="1.0" encoding="UTF-8" standalone="no"?>
<!DOCTYPE svg PUBLIC "-//W3C//DTD SVG 1.1//EN"
 "http://www.w3.org/Graphics/SVG/1.1/DTD/svg11.dtd">
<!-- Generated by graphviz version 3.0.1~dev.20220405.0544 (20220405.0544)
 -->
<!-- Title: G Pages: 1 -->
<svg width="905pt" height="695pt"
 viewBox="0.00 0.00 905.29 695.04" xmlns="http://www.w3.org/2000/svg" xmlns:xlink="http://www.w3.org/1999/xlink">
<g id="graph0" class="graph" transform="scale(1 1) rotate(0) translate(4 691.04)">
<title>G</title><style>.edge>path:hover{stroke-width:8}</style>
<polygon fill="white" stroke="transparent" points="-4,4 -4,-691.04 901.29,-691.04 901.29,4 -4,4"/>
<!-- __main__ -->
<g id="node1" class="node">
<title>__main__</title><style>.edge>path:hover{stroke-width:8}</style>
<ellipse fill="#6b2e2e" stroke="black" cx="49.06" cy="-669.04" rx="36.07" ry="18"/>
<text text-anchor="middle" x="49.06" y="-666.04" font-family="Helvetica,sans-Serif" font-size="10.00" fill="#ffffff">__main__</text>
</g>
<!-- pkg_resources -->
<g id="node2" class="node">
<title>pkg_resources</title><style>.edge>path:hover{stroke-width:8}</style>
<ellipse fill="#7ab83d" stroke="black" cx="49.06" cy="-597.04" rx="49.13" ry="18"/>
<text text-anchor="middle" x="49.06" y="-594.04" font-family="Helvetica,sans-Serif" font-size="10.00" fill="#000000">pkg_resources</text>
</g>
<!-- __main__&#45;&gt;pkg_resources -->
<g id="edge1" class="edge">
<title>__main__&#45;&gt;pkg_resources</title><style>.edge>path:hover{stroke-width:8}</style>
<path fill="none" stroke="black" d="M49.06,-650.74C49.06,-643.02 49.06,-633.75 49.06,-625.15"/>
<polygon fill="#6b2e2e" stroke="black" points="52.56,-625.14 49.06,-615.14 45.56,-625.14 52.56,-625.14"/>
</g>
<!-- vmklib_resources -->
<g id="node13" class="node">
<title>vmklib_resources</title><style>.edge>path:hover{stroke-width:8}</style>
<ellipse fill="#753ab0" stroke="black" cx="124.06" cy="-405.22" rx="42.22" ry="22.76"/>
<text text-anchor="middle" x="124.06" y="-408.22" font-family="Helvetica,sans-Serif" font-size="10.00" fill="#ffffff">vmklib.</text>
<text text-anchor="middle" x="124.06" y="-396.22" font-family="Helvetica,sans-Serif" font-size="10.00" fill="#ffffff">resources</text>
</g>
<!-- pkg_resources&#45;&gt;vmklib_resources -->
<g id="edge2" class="edge">
<title>pkg_resources&#45;&gt;vmklib_resources</title><style>.edge>path:hover{stroke-width:8}</style>
<path fill="none" stroke="black" d="M66.86,-580.21C83.84,-563.4 107.23,-535.07 110.06,-504.44"/>
<path fill="none" stroke="black" d="M110.06,-502.44C112.06,-480.84 115.58,-456.68 118.59,-437.97"/>
<polygon fill="#7ab83d" stroke="black" points="122.07,-438.36 120.24,-427.92 115.17,-437.22 122.07,-438.36"/>
</g>
<!-- vcorelib -->
<g id="node3" class="node">
<title>vcorelib</title><style>.edge>path:hover{stroke-width:8}</style>
<ellipse fill="#10f9f9" stroke="black" cx="286.06" cy="-597.04" rx="30.19" ry="18"/>
<text text-anchor="middle" x="286.06" y="-594.04" font-family="Helvetica,sans-Serif" font-size="10.00" fill="#000000">vcorelib</text>
</g>
<!-- vmklib_app -->
<g id="node11" class="node">
<title>vmklib_app</title><style>.edge>path:hover{stroke-width:8}</style>
<ellipse fill="#6b35a1" stroke="black" cx="166.06" cy="-269.99" rx="38.23" ry="18"/>
<text text-anchor="middle" x="166.06" y="-266.99" font-family="Helvetica,sans-Serif" font-size="10.00" fill="#ffffff">vmklib.app</text>
</g>
<!-- vcorelib&#45;&gt;vmklib_app -->
<g id="edge3" class="edge">
<title>vcorelib&#45;&gt;vmklib_app</title><style>.edge>path:hover{stroke-width:8}</style>
<path fill="none" stroke="black" d="M148.06,-502.44C128.23,-459.39 192.14,-453.58 194.06,-406.22"/>
<path fill="none" stroke="black" d="M194.06,-404.22C195.1,-378.62 191.74,-372.09 194.06,-346.59"/>
</g>
<!-- vcorelib&#45;&gt;vmklib_resources -->
<g id="edge4" class="edge">
<title>vcorelib&#45;&gt;vmklib_resources</title><style>.edge>path:hover{stroke-width:8}</style>
<path fill="none" stroke="black" d="M259.68,-588.06C225.87,-576.17 169.12,-550.15 148.06,-504.44"/>
<path fill="none" stroke="black" d="M148.06,-502.44C138.64,-481.99 132.58,-457.32 128.91,-438.08"/>
<polygon fill="#10f9f9" stroke="black" points="132.32,-437.24 127.11,-428.01 125.43,-438.47 132.32,-437.24"/>
</g>
<!-- vmklib_tasks_mixins_concrete -->
<g id="node15" class="node">
<title>vmklib_tasks_mixins_concrete</title><style>.edge>path:hover{stroke-width:8}</style>
<ellipse fill="#752fbc" stroke="black" cx="298.06" cy="-269.99" rx="38.37" ry="39.7"/>
<text text-anchor="middle" x="298.06" y="-284.99" font-family="Helvetica,sans-Serif" font-size="10.00" fill="#ffffff">vmklib.</text>
<text text-anchor="middle" x="298.06" y="-272.99" font-family="Helvetica,sans-Serif" font-size="10.00" fill="#ffffff">tasks.</text>
<text text-anchor="middle" x="298.06" y="-260.99" font-family="Helvetica,sans-Serif" font-size="10.00" fill="#ffffff">mixins.</text>
<text text-anchor="middle" x="298.06" y="-248.99" font-family="Helvetica,sans-Serif" font-size="10.00" fill="#ffffff">concrete</text>
</g>
<!-- vcorelib&#45;&gt;vmklib_tasks_mixins_concrete -->
<g id="edge5" class="edge">
<title>vcorelib&#45;&gt;vmklib_tasks_mixins_concrete</title><style>.edge>path:hover{stroke-width:8}</style>
<path fill="none" stroke="black" d="M262.06,-502.44C254.33,-460.23 265.62,-448.9 270.06,-406.22"/>
</g>
<!-- vmklib_tasks_python_lint -->
<g id="node17" class="node">
<title>vmklib_tasks_python_lint</title><style>.edge>path:hover{stroke-width:8}</style>
<ellipse fill="#6b4096" stroke="black" cx="515.06" cy="-154.79" rx="34.52" ry="39.7"/>
<text text-anchor="middle" x="515.06" y="-169.79" font-family="Helvetica,sans-Serif" font-size="10.00" fill="#ffffff">vmklib.</text>
<text text-anchor="middle" x="515.06" y="-157.79" font-family="Helvetica,sans-Serif" font-size="10.00" fill="#ffffff">tasks.</text>
<text text-anchor="middle" x="515.06" y="-145.79" font-family="Helvetica,sans-Serif" font-size="10.00" fill="#ffffff">python.</text>
<text text-anchor="middle" x="515.06" y="-133.79" font-family="Helvetica,sans-Serif" font-size="10.00" fill="#ffffff">lint</text>
</g>
<!-- vcorelib&#45;&gt;vmklib_tasks_python_lint -->
<g id="edge6" class="edge">
<title>vcorelib&#45;&gt;vmklib_tasks_python_lint</title><style>.edge>path:hover{stroke-width:8}</style>
<path fill="none" stroke="black" d="M338.06,-404.22C364.23,-315.12 437.6,-231.52 481.22,-187.69"/>
<polygon fill="#10f9f9" stroke="black" points="483.85,-190.02 488.48,-180.49 478.92,-185.05 483.85,-190.02"/>
</g>
<!-- vmklib_tasks_python_package -->
<g id="node18" class="node">
<title>vmklib_tasks_python_package</title><style>.edge>path:hover{stroke-width:8}</style>
<ellipse fill="#573479" stroke="black" cx="363.06" cy="-39.6" rx="38.1" ry="39.7"/>
<text text-anchor="middle" x="363.06" y="-54.6" font-family="Helvetica,sans-Serif" font-size="10.00" fill="#ffffff">vmklib.</text>
<text text-anchor="middle" x="363.06" y="-42.6" font-family="Helvetica,sans-Serif" font-size="10.00" fill="#ffffff">tasks.</text>
<text text-anchor="middle" x="363.06" y="-30.6" font-family="Helvetica,sans-Serif" font-size="10.00" fill="#ffffff">python.</text>
<text text-anchor="middle" x="363.06" y="-18.6" font-family="Helvetica,sans-Serif" font-size="10.00" fill="#ffffff">package</text>
</g>
<!-- vcorelib&#45;&gt;vmklib_tasks_python_package -->
<g id="edge7" class="edge">
<title>vcorelib&#45;&gt;vmklib_tasks_python_package</title><style>.edge>path:hover{stroke-width:8}</style>
<path fill="none" stroke="black" d="M280.78,-578.99C275.3,-560.73 266.89,-530.8 262.06,-504.44"/>
<path fill="none" stroke="black" d="M262.06,-502.44C249.35,-433.06 232.06,-417.13 232.06,-346.59 232.06,-346.59 232.06,-346.59 232.06,-268.99 232.06,-191.53 289.46,-116.55 328.27,-74.7"/>
<polygon fill="#10f9f9" stroke="black" points="330.96,-76.95 335.28,-67.28 325.87,-72.14 330.96,-76.95"/>
</g>
<!-- vmklib_tasks_python_yaml -->
<g id="node19" class="node">
<title>vmklib_tasks_python_yaml</title><style>.edge>path:hover{stroke-width:8}</style>
<ellipse fill="#6b4096" stroke="black" cx="602.06" cy="-154.79" rx="34.52" ry="39.7"/>
<text text-anchor="middle" x="602.06" y="-169.79" font-family="Helvetica,sans-Serif" font-size="10.00" fill="#ffffff">vmklib.</text>
<text text-anchor="middle" x="602.06" y="-157.79" font-family="Helvetica,sans-Serif" font-size="10.00" fill="#ffffff">tasks.</text>
<text text-anchor="middle" x="602.06" y="-145.79" font-family="Helvetica,sans-Serif" font-size="10.00" fill="#ffffff">python.</text>
<text text-anchor="middle" x="602.06" y="-133.79" font-family="Helvetica,sans-Serif" font-size="10.00" fill="#ffffff">yaml</text>
</g>
<!-- vcorelib&#45;&gt;vmklib_tasks_python_yaml -->
<g id="edge8" class="edge">
<title>vcorelib&#45;&gt;vmklib_tasks_python_yaml</title><style>.edge>path:hover{stroke-width:8}</style>
<path fill="none" stroke="black" d="M315.62,-592.85C370.13,-586.39 483.42,-570.02 511.06,-543.04 559.06,-496.19 586.61,-297.54 597.11,-204.38"/>
<polygon fill="#10f9f9" stroke="black" points="600.59,-204.69 598.22,-194.37 593.64,-203.92 600.59,-204.69"/>
</g>
<!-- vmklib_tasks_venv -->
<g id="node20" class="node">
<title>vmklib_tasks_venv</title><style>.edge>path:hover{stroke-width:8}</style>
<ellipse fill="#4c2e6b" stroke="black" cx="452.06" cy="-39.6" rx="33.13" ry="31.23"/>
<text text-anchor="middle" x="452.06" y="-48.6" font-family="Helvetica,sans-Serif" font-size="10.00" fill="#ffffff">vmklib.</text>
<text text-anchor="middle" x="452.06" y="-36.6" font-family="Helvetica,sans-Serif" font-size="10.00" fill="#ffffff">tasks.</text>
<text text-anchor="middle" x="452.06" y="-24.6" font-family="Helvetica,sans-Serif" font-size="10.00" fill="#ffffff">venv</text>
</g>
<!-- vcorelib&#45;&gt;vmklib_tasks_venv -->
<g id="edge9" class="edge">
<title>vcorelib&#45;&gt;vmklib_tasks_venv</title><style>.edge>path:hover{stroke-width:8}</style>
<path fill="none" stroke="black" d="M292.71,-579.39C305.26,-546.8 331.72,-472.03 338.06,-406.22"/>
<path fill="none" stroke="black" d="M338.06,-404.22C353.92,-326.54 354.71,-306.15 378.06,-230.39 394.65,-176.56 419.24,-116.25 435.46,-78.36"/>
<polygon fill="#10f9f9" stroke="black" points="438.85,-79.33 439.59,-68.76 432.42,-76.56 438.85,-79.33"/>
</g>
<!-- vcorelib_dict -->
<g id="node4" class="node">
<title>vcorelib_dict</title><style>.edge>path:hover{stroke-width:8}</style>
<ellipse fill="#3bcece" stroke="black" cx="675.06" cy="-669.04" rx="41.24" ry="18"/>
<text text-anchor="middle" x="675.06" y="-666.04" font-family="Helvetica,sans-Serif" font-size="10.00" fill="#000000">vcorelib.dict</text>
</g>
<!-- vcorelib_task -->
<g id="node6" class="node">
<title>vcorelib_task</title><style>.edge>path:hover{stroke-width:8}</style>
<ellipse fill="#06efef" stroke="black" cx="480.06" cy="-597.04" rx="43.08" ry="18"/>
<text text-anchor="middle" x="480.06" y="-594.04" font-family="Helvetica,sans-Serif" font-size="10.00" fill="#000000">vcorelib.task</text>
</g>
<!-- vcorelib_dict&#45;&gt;vcorelib_task -->
<g id="edge10" class="edge">
<title>vcorelib_dict&#45;&gt;vcorelib_task</title><style>.edge>path:hover{stroke-width:8}</style>
<path fill="none" stroke="black" d="M644.17,-656.95C610.94,-645.02 557.96,-626 521.22,-612.81"/>
<polygon fill="#3bcece" stroke="black" points="522.38,-609.51 511.79,-609.43 520.02,-616.1 522.38,-609.51"/>
</g>
<!-- vcorelib_task_manager -->
<g id="node7" class="node">
<title>vcorelib_task_manager</title><style>.edge>path:hover{stroke-width:8}</style>
<ellipse fill="#17d3d3" stroke="black" cx="765.06" cy="-503.44" rx="39.44" ry="31.23"/>
<text text-anchor="middle" x="765.06" y="-512.44" font-family="Helvetica,sans-Serif" font-size="10.00" fill="#000000">vcorelib.</text>
<text text-anchor="middle" x="765.06" y="-500.44" font-family="Helvetica,sans-Serif" font-size="10.00" fill="#000000">task.</text>
<text text-anchor="middle" x="765.06" y="-488.44" font-family="Helvetica,sans-Serif" font-size="10.00" fill="#000000">manager</text>
</g>
<!-- vcorelib_dict&#45;&gt;vcorelib_task_manager -->
<g id="edge11" class="edge">
<title>vcorelib_dict&#45;&gt;vcorelib_task_manager</title><style>.edge>path:hover{stroke-width:8}</style>
<path fill="none" stroke="black" d="M712.57,-661.4C765.99,-650.93 858.81,-628.58 870.06,-598.04"/>
<path fill="none" stroke="black" d="M870.06,-596.04C882.68,-561.8 843.98,-536.11 810.06,-520.78"/>
<polygon fill="#3bcece" stroke="black" points="811.23,-517.48 800.66,-516.74 808.46,-523.91 811.23,-517.48"/>
</g>
<!-- vcorelib_dict&#45;&gt;vmklib_tasks_venv -->
<g id="edge12" class="edge">
<title>vcorelib_dict&#45;&gt;vmklib_tasks_venv</title><style>.edge>path:hover{stroke-width:8}</style>
<path fill="none" stroke="black" d="M870.06,-596.04C908.39,-492.01 826.71,-448.63 870.06,-346.59"/>
</g>
<!-- vcorelib_paths -->
<g id="node5" class="node">
<title>vcorelib_paths</title><style>.edge>path:hover{stroke-width:8}</style>
<ellipse fill="#40bfc0" stroke="black" cx="163.06" cy="-597.04" rx="46.95" ry="18"/>
<text text-anchor="middle" x="163.06" y="-594.04" font-family="Helvetica,sans-Serif" font-size="10.00" fill="#000000">vcorelib.paths</text>
</g>
<!-- vcorelib_paths&#45;&gt;vmklib_resources -->
<g id="edge13" class="edge">
<title>vcorelib_paths&#45;&gt;vmklib_resources</title><style>.edge>path:hover{stroke-width:8}</style>
<path fill="none" stroke="black" d="M145.77,-580.05C129.28,-562.89 107.33,-534.08 110.06,-504.44"/>
</g>
<!-- vcorelib_paths&#45;&gt;vmklib_tasks_mixins_concrete -->
<g id="edge14" class="edge">
<title>vcorelib_paths&#45;&gt;vmklib_tasks_mixins_concrete</title><style>.edge>path:hover{stroke-width:8}</style>
<path fill="none" stroke="black" d="M174.81,-579.34C201.77,-540.44 266.11,-444.22 270.06,-406.22"/>
<path fill="none" stroke="black" d="M270.06,-404.22C271.3,-375.03 277.87,-342.97 284.33,-317.62"/>
<polygon fill="#40bfc0" stroke="black" points="287.73,-318.46 286.89,-307.9 280.96,-316.68 287.73,-318.46"/>
</g>
<!-- vcorelib_task&#45;&gt;vmklib_app -->
<g id="edge15" class="edge">
<title>vcorelib_task&#45;&gt;vmklib_app</title><style>.edge>path:hover{stroke-width:8}</style>
<path fill="none" stroke="black" d="M437.28,-593.86C393.67,-589.7 325.94,-577.67 279.06,-543.04 221.49,-500.5 191.16,-477.75 194.06,-406.22"/>
</g>
<!-- vcorelib_task&#45;&gt;vmklib_tasks_mixins_concrete -->
<g id="edge16" class="edge">
<title>vcorelib_task&#45;&gt;vmklib_tasks_mixins_concrete</title><style>.edge>path:hover{stroke-width:8}</style>
<path fill="none" stroke="black" d="M447.86,-584.9C386.64,-561.48 260.4,-501.31 270.06,-406.22"/>
</g>
<!-- vcorelib_task&#45;&gt;vmklib_tasks_python_lint -->
<g id="edge17" class="edge">
<title>vcorelib_task&#45;&gt;vmklib_tasks_python_lint</title><style>.edge>path:hover{stroke-width:8}</style>
<path fill="none" stroke="black" d="M505,-582.05C529.32,-566.71 564.42,-539.52 577.06,-504.44"/>
<path fill="none" stroke="black" d="M577.06,-502.44C594.56,-453.89 581.08,-317.18 558.06,-270.99"/>
<path fill="none" stroke="black" d="M558.06,-268.99C546.85,-247.82 537.1,-223.07 529.73,-202.12"/>
<polygon fill="#06efef" stroke="black" points="532.98,-200.8 526.41,-192.48 526.36,-203.08 532.98,-200.8"/>
</g>
<!-- vcorelib_task&#45;&gt;vmklib_tasks_python_package -->
<g id="edge18" class="edge">
<title>vcorelib_task&#45;&gt;vmklib_tasks_python_package</title><style>.edge>path:hover{stroke-width:8}</style>
<path fill="none" stroke="black" d="M448.27,-584.84C429.4,-576.43 406.92,-562.9 395.06,-543.04 350.02,-467.62 355.98,-200.85 360.62,-89.74"/>
<polygon fill="#06efef" stroke="black" points="364.13,-89.63 361.07,-79.48 357.14,-89.32 364.13,-89.63"/>
</g>
<!-- vcorelib_task&#45;&gt;vmklib_tasks_python_yaml -->
<g id="edge19" class="edge">
<title>vcorelib_task&#45;&gt;vmklib_tasks_python_yaml</title><style>.edge>path:hover{stroke-width:8}</style>
<path fill="none" stroke="black" d="M577.06,-502.44C602.98,-453.25 683.18,-325.47 672.06,-270.99"/>
<path fill="none" stroke="black" d="M672.06,-268.99C661.62,-242.33 644.88,-214.95 630.39,-193.8"/>
<polygon fill="#06efef" stroke="black" points="633.15,-191.63 624.55,-185.44 627.4,-195.64 633.15,-191.63"/>
</g>
<!-- vcorelib_task&#45;&gt;vmklib_tasks_venv -->
<g id="edge20" class="edge">
<title>vcorelib_task&#45;&gt;vmklib_tasks_venv</title><style>.edge>path:hover{stroke-width:8}</style>
<path fill="none" stroke="black" d="M522.98,-595.48C603.87,-593.47 774.26,-584.3 813.06,-543.04 873.16,-479.14 810.68,-431.66 832.06,-346.59"/>
</g>
<!-- vcorelib_task_manager&#45;&gt;vmklib_app -->
<g id="edge21" class="edge">
<title>vcorelib_task_manager&#45;&gt;vmklib_app</title><style>.edge>path:hover{stroke-width:8}</style>
<path fill="none" stroke="black" d="M739.53,-479.62C732.29,-473.93 724.17,-468.21 716.06,-463.84 524.33,-360.65 453.81,-388.99 251.06,-309.59 234.32,-303.03 216.12,-294.9 200.87,-287.8"/>
<polygon fill="#17d3d3" stroke="black" points="202.34,-284.63 191.8,-283.54 199.36,-290.96 202.34,-284.63"/>
</g>
<!-- vcorelib_task_manager&#45;&gt;vmklib_tasks_python_lint -->
<g id="edge22" class="edge">
<title>vcorelib_task_manager&#45;&gt;vmklib_tasks_python_lint</title><style>.edge>path:hover{stroke-width:8}</style>
<path fill="none" stroke="black" d="M749.92,-474.32C740.09,-455.4 727.41,-429.71 718.06,-406.22"/>
<path fill="none" stroke="black" d="M718.06,-404.22C698.84,-355.9 599.67,-245.91 547.4,-189.91"/>
<polygon fill="#17d3d3" stroke="black" points="549.74,-187.29 540.35,-182.38 544.63,-192.08 549.74,-187.29"/>
</g>
<!-- vcorelib_task_manager&#45;&gt;vmklib_tasks_python_package -->
<g id="edge23" class="edge">
<title>vcorelib_task_manager&#45;&gt;vmklib_tasks_python_package</title><style>.edge>path:hover{stroke-width:8}</style>
<path fill="none" stroke="black" d="M771.81,-472.63C776.73,-453.22 784.26,-427.63 794.06,-406.22"/>
<path fill="none" stroke="black" d="M794.06,-404.22C804.72,-380.93 800.55,-371.37 794.06,-346.59"/>
</g>
<!-- vcorelib_task_manager&#45;&gt;vmklib_tasks_python_yaml -->
<g id="edge24" class="edge">
<title>vcorelib_task_manager&#45;&gt;vmklib_tasks_python_yaml</title><style>.edge>path:hover{stroke-width:8}</style>
<path fill="none" stroke="black" d="M718.06,-404.22C708.6,-380.42 720.09,-372.12 718.06,-346.59"/>
</g>
<!-- vcorelib_task_manager&#45;&gt;vmklib_tasks_venv -->
<g id="edge25" class="edge">
<title>vcorelib_task_manager&#45;&gt;vmklib_tasks_venv</title><style>.edge>path:hover{stroke-width:8}</style>
<path fill="none" stroke="black" d="M794.06,-404.22C811.7,-365.67 858.12,-387.26 870.06,-346.59"/>
<path fill="none" stroke="black" d="M870.06,-345.59C899.01,-247.01 919.9,-191.47 851.06,-115.2 804.13,-63.18 589.4,-46.96 495.84,-42.31"/>
<polygon fill="#17d3d3" stroke="black" points="495.74,-38.81 485.58,-41.83 495.4,-45.8 495.74,-38.81"/>
</g>
<!-- vcorelib_task_subprocess -->
<g id="node8" class="node">
<title>vcorelib_task_subprocess</title><style>.edge>path:hover{stroke-width:8}</style>
<ellipse fill="#2fdbdb" stroke="black" cx="660.06" cy="-503.44" rx="47.45" ry="31.23"/>
<text text-anchor="middle" x="660.06" y="-512.44" font-family="Helvetica,sans-Serif" font-size="10.00" fill="#000000">vcorelib.</text>
<text text-anchor="middle" x="660.06" y="-500.44" font-family="Helvetica,sans-Serif" font-size="10.00" fill="#000000">task.</text>
<text text-anchor="middle" x="660.06" y="-488.44" font-family="Helvetica,sans-Serif" font-size="10.00" fill="#000000">subprocess</text>
</g>
<!-- vcorelib_task_subprocess&#45;&gt;vmklib_tasks_python_lint -->
<g id="edge26" class="edge">
<title>vcorelib_task_subprocess&#45;&gt;vmklib_tasks_python_lint</title><style>.edge>path:hover{stroke-width:8}</style>
<path fill="none" stroke="black" d="M662.74,-472.05C664.52,-453.08 667.09,-428.19 670.06,-406.22"/>
<path fill="none" stroke="black" d="M670.06,-404.22C680.44,-327.56 591.74,-340.63 558.06,-270.99"/>
</g>
<!-- vcorelib_task_subprocess&#45;&gt;vmklib_tasks_python_package -->
<g id="edge27" class="edge">
<title>vcorelib_task_subprocess&#45;&gt;vmklib_tasks_python_package</title><style>.edge>path:hover{stroke-width:8}</style>
<path fill="none" stroke="black" d="M685.93,-476.9C705.36,-457.62 732.56,-430.43 756.06,-406.22"/>
<path fill="none" stroke="black" d="M756.06,-404.22C766.75,-393.21 798.04,-361.4 794.06,-346.59"/>
<path fill="none" stroke="black" d="M794.06,-345.59C785.51,-313.69 751.19,-334.1 729.06,-309.59 697.59,-274.72 683.19,-143.97 646.06,-115.2 562.2,-50.2 506.97,-122.41 410.06,-79.2 406.21,-77.48 402.42,-75.36 398.76,-73"/>
<polygon fill="#2fdbdb" stroke="black" points="400.68,-70.07 390.5,-67.15 396.64,-75.79 400.68,-70.07"/>
</g>
<!-- vcorelib_task_subprocess&#45;&gt;vmklib_tasks_python_yaml -->
<g id="edge28" class="edge">
<title>vcorelib_task_subprocess&#45;&gt;vmklib_tasks_python_yaml</title><style>.edge>path:hover{stroke-width:8}</style>
<path fill="none" stroke="black" d="M670.06,-404.22C674.53,-371.18 720.7,-379.82 718.06,-346.59"/>
<path fill="none" stroke="black" d="M718.06,-345.59C717.87,-343.16 672.55,-273.38 672.06,-270.99"/>
</g>
<!-- vcorelib_task_subprocess&#45;&gt;vmklib_tasks_venv -->
<g id="edge29" class="edge">
<title>vcorelib_task_subprocess&#45;&gt;vmklib_tasks_venv</title><style>.edge>path:hover{stroke-width:8}</style>
<path fill="none" stroke="black" d="M756.06,-404.22C766.06,-393.91 768.8,-391.5 780.06,-382.59 802.11,-365.14 824.14,-373.56 832.06,-346.59"/>
<path fill="none" stroke="black" d="M832.06,-345.59C846.68,-295.8 839.52,-275.03 813.06,-230.39 799.83,-208.06 784.47,-213.65 767.06,-194.39 739.15,-163.51 750.43,-140.09 717.06,-115.2 650.35,-65.42 551.76,-48.84 495.54,-43.33"/>
<polygon fill="#2fdbdb" stroke="black" points="495.83,-39.84 485.55,-42.43 495.2,-46.82 495.83,-39.84"/>
</g>
<!-- vcorelib_task_subprocess_run -->
<g id="node9" class="node">
<title>vcorelib_task_subprocess_run</title><style>.edge>path:hover{stroke-width:8}</style>
<ellipse fill="#24d0d0" stroke="black" cx="453.06" cy="-503.44" rx="49.38" ry="39.7"/>
<text text-anchor="middle" x="453.06" y="-518.44" font-family="Helvetica,sans-Serif" font-size="10.00" fill="#000000">vcorelib.</text>
<text text-anchor="middle" x="453.06" y="-506.44" font-family="Helvetica,sans-Serif" font-size="10.00" fill="#000000">task.</text>
<text text-anchor="middle" x="453.06" y="-494.44" font-family="Helvetica,sans-Serif" font-size="10.00" fill="#000000">subprocess.</text>
<text text-anchor="middle" x="453.06" y="-482.44" font-family="Helvetica,sans-Serif" font-size="10.00" fill="#000000">run</text>
</g>
<!-- vcorelib_task_subprocess_run&#45;&gt;vmklib_tasks_python_lint -->
<g id="edge30" class="edge">
<title>vcorelib_task_subprocess_run&#45;&gt;vmklib_tasks_python_lint</title><style>.edge>path:hover{stroke-width:8}</style>
<path fill="none" stroke="black" d="M515.06,-268.99C523.18,-248.7 524.24,-224.67 522.85,-203.99"/>
<polygon fill="#24d0d0" stroke="black" points="526.32,-203.48 521.96,-193.83 519.35,-204.09 526.32,-203.48"/>
</g>
<!-- vcorelib_task_subprocess_run&#45;&gt;vmklib_tasks_python_package -->
<g id="edge31" class="edge">
<title>vcorelib_task_subprocess_run&#45;&gt;vmklib_tasks_python_package</title><style>.edge>path:hover{stroke-width:8}</style>
<path fill="none" stroke="black" d="M455.13,-463.59C457.7,-431.33 463.41,-384.6 476.06,-345.59 487.61,-310 501.17,-305.73 515.06,-270.99"/>
<path fill="none" stroke="black" d="M515.06,-268.99C525.39,-231.91 489.35,-228.26 471.06,-194.39 461.98,-177.57 460.11,-173.14 452.06,-155.79"/>
<path fill="none" stroke="black" d="M452.06,-153.79C438.47,-124.51 415.94,-95.97 396.96,-74.87"/>
<polygon fill="#24d0d0" stroke="black" points="399.48,-72.44 390.14,-67.44 394.33,-77.18 399.48,-72.44"/>
</g>
<!-- vcorelib_task_subprocess_run&#45;&gt;vmklib_tasks_python_yaml -->
<g id="edge32" class="edge">
<title>vcorelib_task_subprocess_run&#45;&gt;vmklib_tasks_python_yaml</title><style>.edge>path:hover{stroke-width:8}</style>
<path fill="none" stroke="black" d="M515.06,-268.99C527.19,-238.65 549.9,-209.55 569.07,-188.45"/>
<polygon fill="#24d0d0" stroke="black" points="571.7,-190.76 575.95,-181.05 566.58,-185.99 571.7,-190.76"/>
</g>
<!-- vcorelib_task_subprocess_run&#45;&gt;vmklib_tasks_venv -->
<g id="edge33" class="edge">
<title>vcorelib_task_subprocess_run&#45;&gt;vmklib_tasks_venv</title><style>.edge>path:hover{stroke-width:8}</style>
<path fill="none" stroke="black" d="M452.06,-153.79C441.52,-131.07 441.47,-102.91 444.09,-80.36"/>
<polygon fill="#24d0d0" stroke="black" points="447.56,-80.82 445.45,-70.44 440.62,-79.87 447.56,-80.82"/>
</g>
<!-- vmklib___main__ -->
<g id="node10" class="node">
<title>vmklib___main__</title><style>.edge>path:hover{stroke-width:8}</style>
<ellipse fill="#7a49ac" stroke="black" cx="162.06" cy="-39.6" rx="42.24" ry="22.76"/>
<text text-anchor="middle" x="162.06" y="-42.6" font-family="Helvetica,sans-Serif" font-size="10.00" fill="#ffffff">vmklib.</text>
<text text-anchor="middle" x="162.06" y="-30.6" font-family="Helvetica,sans-Serif" font-size="10.00" fill="#ffffff">__main__</text>
</g>
<!-- vmklib_entry -->
<g id="node12" class="node">
<title>vmklib_entry</title><style>.edge>path:hover{stroke-width:8}</style>
<ellipse fill="#7a3db8" stroke="black" cx="162.06" cy="-154.79" rx="41.9" ry="18"/>
<text text-anchor="middle" x="162.06" y="-151.79" font-family="Helvetica,sans-Serif" font-size="10.00" fill="#ffffff">vmklib.entry</text>
</g>
<!-- vmklib_app&#45;&gt;vmklib_entry -->
<g id="edge34" class="edge">
<title>vmklib_app&#45;&gt;vmklib_entry</title><style>.edge>path:hover{stroke-width:8}</style>
<path fill="none" stroke="black" d="M165.46,-251.8C164.81,-233.6 163.79,-204.6 163.03,-183.24"/>
<polygon fill="#6b35a1" stroke="black" points="166.53,-183.02 162.68,-173.15 159.53,-183.27 166.53,-183.02"/>
</g>
<!-- vmklib_entry&#45;&gt;vmklib___main__ -->
<g id="edge35" class="edge">
<title>vmklib_entry&#45;&gt;vmklib___main__</title><style>.edge>path:hover{stroke-width:8}</style>
<path fill="none" stroke="black" d="M162.06,-136.6C162.06,-119.75 162.06,-93.64 162.06,-72.9"/>
<polygon fill="#7a3db8" stroke="black" points="165.56,-72.62 162.06,-62.62 158.56,-72.62 165.56,-72.62"/>
</g>
<!-- vmklib_resources&#45;&gt;vmklib_app -->
<g id="edge36" class="edge">
<title>vmklib_resources&#45;&gt;vmklib_app</title><style>.edge>path:hover{stroke-width:8}</style>
<path fill="none" stroke="black" d="M156.89,-390.89C174.18,-381.51 192.21,-366.97 194.06,-346.59"/>
<path fill="none" stroke="black" d="M194.06,-345.59C195.63,-328.46 189.07,-310.38 181.91,-296.31"/>
<polygon fill="#753ab0" stroke="black" points="184.83,-294.35 176.95,-287.26 178.69,-297.72 184.83,-294.35"/>
</g>
<!-- vmklib_tasks_mixins -->
<g id="node14" class="node">
<title>vmklib_tasks_mixins</title><style>.edge>path:hover{stroke-width:8}</style>
<ellipse fill="#853bce" stroke="black" cx="771.06" cy="-269.99" rx="33.13" ry="31.23"/>
<text text-anchor="middle" x="771.06" y="-278.99" font-family="Helvetica,sans-Serif" font-size="10.00" fill="#ffffff">vmklib.</text>
<text text-anchor="middle" x="771.06" y="-266.99" font-family="Helvetica,sans-Serif" font-size="10.00" fill="#ffffff">tasks.</text>
<text text-anchor="middle" x="771.06" y="-254.99" font-family="Helvetica,sans-Serif" font-size="10.00" fill="#ffffff">mixins</text>
</g>
<!-- vmklib_tasks_mixins&#45;&gt;vmklib_tasks_python_package -->
<g id="edge37" class="edge">
<title>vmklib_tasks_mixins&#45;&gt;vmklib_tasks_python_package</title><style>.edge>path:hover{stroke-width:8}</style>
<path fill="none" stroke="black" d="M757.13,-241.43C741.85,-212.06 717.56,-168.12 703.06,-155.79"/>
<path fill="none" stroke="black" d="M703.06,-153.79C687.67,-140.71 696.03,-126.16 679.06,-115.2 577.76,-49.72 520.67,-127.31 410.06,-79.2 406.2,-77.51 402.39,-75.42 398.73,-73.08"/>
<polygon fill="#853bce" stroke="black" points="400.64,-70.15 390.45,-67.25 396.61,-75.87 400.64,-70.15"/>
</g>
<!-- vmklib_tasks_mixins&#45;&gt;vmklib_tasks_venv -->
<g id="edge38" class="edge">
<title>vmklib_tasks_mixins&#45;&gt;vmklib_tasks_venv</title><style>.edge>path:hover{stroke-width:8}</style>
<path fill="none" stroke="black" d="M703.06,-153.79C687.67,-140.71 694.95,-127.68 679.06,-115.2 624.4,-72.24 544.03,-53.56 495.03,-45.78"/>
<polygon fill="#853bce" stroke="black" points="495.49,-42.3 485.08,-44.28 494.44,-49.23 495.49,-42.3"/>
</g>
<!-- vmklib_tasks_mixins_concrete&#45;&gt;vmklib_tasks_python_package -->
<g id="edge39" class="edge">
<title>vmklib_tasks_mixins_concrete&#45;&gt;vmklib_tasks_python_package</title><style>.edge>path:hover{stroke-width:8}</style>
<path fill="none" stroke="black" d="M303.91,-230.6C308.22,-208.12 315.25,-179.56 326.06,-155.79"/>
<path fill="none" stroke="black" d="M326.06,-153.79C335.67,-132.69 343.96,-108.35 350.24,-87.66"/>
<polygon fill="#752fbc" stroke="black" points="353.67,-88.41 353.16,-77.83 346.96,-86.42 353.67,-88.41"/>
</g>
<!-- vmklib_tasks_mixins_concrete&#45;&gt;vmklib_tasks_venv -->
<g id="edge40" class="edge">
<title>vmklib_tasks_mixins_concrete&#45;&gt;vmklib_tasks_venv</title><style>.edge>path:hover{stroke-width:8}</style>
<path fill="none" stroke="black" d="M326.06,-153.79C334.43,-135.41 335.67,-129.37 350.06,-115.2 372.23,-93.38 385.15,-97.81 410.06,-79.2 414.02,-76.24 418.03,-72.97 421.92,-69.62"/>
<polygon fill="#752fbc" stroke="black" points="424.54,-71.97 429.69,-62.71 419.89,-66.74 424.54,-71.97"/>
</g>
<!-- vmklib_tasks_python -->
<g id="node16" class="node">
<title>vmklib_tasks_python</title><style>.edge>path:hover{stroke-width:8}</style>
<ellipse fill="#8547c2" stroke="black" cx="809.06" cy="-154.79" rx="33.13" ry="31.23"/>
<text text-anchor="middle" x="809.06" y="-163.79" font-family="Helvetica,sans-Serif" font-size="10.00" fill="#ffffff">vmklib.</text>
<text text-anchor="middle" x="809.06" y="-151.79" font-family="Helvetica,sans-Serif" font-size="10.00" fill="#ffffff">tasks.</text>
<text text-anchor="middle" x="809.06" y="-139.79" font-family="Helvetica,sans-Serif" font-size="10.00" fill="#ffffff">python</text>
</g>
<!-- vmklib_tasks_python&#45;&gt;vmklib_tasks_venv -->
<g id="edge41" class="edge">
<title>vmklib_tasks_python&#45;&gt;vmklib_tasks_venv</title><style>.edge>path:hover{stroke-width:8}</style>
<path fill="none" stroke="black" d="M786.14,-131.49C778.91,-125.46 770.57,-119.43 762.06,-115.2 673.52,-71.13 557.58,-52.23 495.6,-44.84"/>
<polygon fill="#8547c2" stroke="black" points="495.74,-41.34 485.4,-43.67 494.94,-48.29 495.74,-41.34"/>
</g>
</g>
</svg>
