<?xml version="1.0" encoding="UTF-8" standalone="no"?>
<!DOCTYPE svg PUBLIC "-//W3C//DTD SVG 1.1//EN"
 "http://www.w3.org/Graphics/SVG/1.1/DTD/svg11.dtd">
<!-- Generated by graphviz version 3.0.1~dev.20220405.0544 (20220405.0544)
 -->
<!-- Title: G Pages: 1 -->
<svg width="1523pt" height="767pt"
 viewBox="0.00 0.00 1523.09 767.04" xmlns="http://www.w3.org/2000/svg" xmlns:xlink="http://www.w3.org/1999/xlink">
<g id="graph0" class="graph" transform="scale(1 1) rotate(0) translate(4 763.04)">
<title>G</title><style>.edge>path:hover{stroke-width:8}</style>
<polygon fill="white" stroke="transparent" points="-4,4 -4,-763.04 1519.09,-763.04 1519.09,4 -4,4"/>
<!-- __main__ -->
<g id="node1" class="node">
<title>__main__</title><style>.edge>path:hover{stroke-width:8}</style>
<ellipse fill="#6b2e2e" stroke="black" cx="160.72" cy="-669.04" rx="36.07" ry="18"/>
<text text-anchor="middle" x="160.72" y="-666.04" font-family="Helvetica,sans-Serif" font-size="10.00" fill="#ffffff">__main__</text>
</g>
<!-- pkg_resources -->
<g id="node2" class="node">
<title>pkg_resources</title><style>.edge>path:hover{stroke-width:8}</style>
<ellipse fill="#7ab83d" stroke="black" cx="160.72" cy="-575.44" rx="49.13" ry="18"/>
<text text-anchor="middle" x="160.72" y="-572.44" font-family="Helvetica,sans-Serif" font-size="10.00" fill="#000000">pkg_resources</text>
</g>
<!-- __main__&#45;&gt;pkg_resources -->
<g id="edge1" class="edge">
<title>__main__&#45;&gt;pkg_resources</title><style>.edge>path:hover{stroke-width:8}</style>
<path fill="none" stroke="black" d="M160.72,-650.81C160.72,-637.63 160.72,-619.2 160.72,-603.98"/>
<polygon fill="#6b2e2e" stroke="black" points="164.22,-603.59 160.72,-593.59 157.22,-603.59 164.22,-603.59"/>
</g>
<!-- vmklib_resources -->
<g id="node13" class="node">
<title>vmklib_resources</title><style>.edge>path:hover{stroke-width:8}</style>
<ellipse fill="#753ab0" stroke="black" cx="138.72" cy="-440.22" rx="42.22" ry="22.76"/>
<text text-anchor="middle" x="138.72" y="-443.22" font-family="Helvetica,sans-Serif" font-size="10.00" fill="#ffffff">vmklib.</text>
<text text-anchor="middle" x="138.72" y="-431.22" font-family="Helvetica,sans-Serif" font-size="10.00" fill="#ffffff">resources</text>
</g>
<!-- pkg_resources&#45;&gt;vmklib_resources -->
<g id="edge2" class="edge">
<title>pkg_resources&#45;&gt;vmklib_resources</title><style>.edge>path:hover{stroke-width:8}</style>
<path fill="none" stroke="black" d="M157.89,-557.3C154.39,-536.08 148.35,-499.52 143.99,-473.09"/>
<polygon fill="#7ab83d" stroke="black" points="147.43,-472.46 142.35,-463.16 140.52,-473.6 147.43,-472.46"/>
</g>
<!-- vcorelib -->
<g id="node3" class="node">
<title>vcorelib</title><style>.edge>path:hover{stroke-width:8}</style>
<ellipse fill="#10f9f9" stroke="black" cx="461.72" cy="-575.44" rx="30.19" ry="18"/>
<text text-anchor="middle" x="461.72" y="-572.44" font-family="Helvetica,sans-Serif" font-size="10.00" fill="#000000">vcorelib</text>
</g>
<!-- vmklib_app -->
<g id="node11" class="node">
<title>vmklib_app</title><style>.edge>path:hover{stroke-width:8}</style>
<ellipse fill="#6b35a1" stroke="black" cx="180.72" cy="-363.59" rx="38.23" ry="18"/>
<text text-anchor="middle" x="180.72" y="-360.59" font-family="Helvetica,sans-Serif" font-size="10.00" fill="#ffffff">vmklib.app</text>
</g>
<!-- vcorelib&#45;&gt;vmklib_app -->
<g id="edge3" class="edge">
<title>vcorelib&#45;&gt;vmklib_app</title><style>.edge>path:hover{stroke-width:8}</style>
<path fill="none" stroke="black" d="M443.17,-560.93C398.91,-528.66 290.43,-449.16 284.72,-441.22"/>
</g>
<!-- vcorelib&#45;&gt;vmklib_resources -->
<g id="edge4" class="edge">
<title>vcorelib&#45;&gt;vmklib_resources</title><style>.edge>path:hover{stroke-width:8}</style>
<path fill="none" stroke="black" d="M444.9,-560.22C434.87,-552.26 421.62,-542.61 408.72,-535.84 403.52,-533.11 258.45,-482.7 183.16,-456.6"/>
<polygon fill="#10f9f9" stroke="black" points="184.05,-453.21 173.45,-453.24 181.76,-459.82 184.05,-453.21"/>
</g>
<!-- vmklib_tasks_mixins_concrete -->
<g id="node15" class="node">
<title>vmklib_tasks_mixins_concrete</title><style>.edge>path:hover{stroke-width:8}</style>
<ellipse fill="#6b20b6" stroke="black" cx="473.72" cy="-269.99" rx="38.37" ry="39.7"/>
<text text-anchor="middle" x="473.72" y="-284.99" font-family="Helvetica,sans-Serif" font-size="10.00" fill="#ffffff">vmklib.</text>
<text text-anchor="middle" x="473.72" y="-272.99" font-family="Helvetica,sans-Serif" font-size="10.00" fill="#ffffff">tasks.</text>
<text text-anchor="middle" x="473.72" y="-260.99" font-family="Helvetica,sans-Serif" font-size="10.00" fill="#ffffff">mixins.</text>
<text text-anchor="middle" x="473.72" y="-248.99" font-family="Helvetica,sans-Serif" font-size="10.00" fill="#ffffff">concrete</text>
</g>
<!-- vcorelib&#45;&gt;vmklib_tasks_mixins_concrete -->
<g id="edge5" class="edge">
<title>vcorelib&#45;&gt;vmklib_tasks_mixins_concrete</title><style>.edge>path:hover{stroke-width:8}</style>
<path fill="none" stroke="black" d="M398.72,-439.22C383.16,-392.2 413.87,-340.5 440.57,-306.99"/>
<polygon fill="#10f9f9" stroke="black" points="443.6,-308.83 447.24,-298.88 438.19,-304.38 443.6,-308.83"/>
</g>
<!-- vmklib_tasks_python -->
<g id="node16" class="node">
<title>vmklib_tasks_python</title><style>.edge>path:hover{stroke-width:8}</style>
<ellipse fill="#702db4" stroke="black" cx="1310.72" cy="-269.99" rx="33.13" ry="31.23"/>
<text text-anchor="middle" x="1310.72" y="-278.99" font-family="Helvetica,sans-Serif" font-size="10.00" fill="#ffffff">vmklib.</text>
<text text-anchor="middle" x="1310.72" y="-266.99" font-family="Helvetica,sans-Serif" font-size="10.00" fill="#ffffff">tasks.</text>
<text text-anchor="middle" x="1310.72" y="-254.99" font-family="Helvetica,sans-Serif" font-size="10.00" fill="#ffffff">python</text>
</g>
<!-- vcorelib&#45;&gt;vmklib_tasks_python -->
<g id="edge6" class="edge">
<title>vcorelib&#45;&gt;vmklib_tasks_python</title><style>.edge>path:hover{stroke-width:8}</style>
<path fill="none" stroke="black" d="M1006.72,-439.22C1020.06,-433.9 1017.95,-424.15 1030.72,-417.59 1128.66,-367.28 1196.27,-443.82 1272.72,-364.59"/>
<path fill="none" stroke="black" d="M1272.72,-362.59C1286.41,-348.4 1295.46,-328.57 1301.28,-311"/>
<polygon fill="#10f9f9" stroke="black" points="1304.77,-311.55 1304.34,-300.96 1298.07,-309.51 1304.77,-311.55"/>
</g>
<!-- vmklib_tasks_python_build -->
<g id="node17" class="node">
<title>vmklib_tasks_python_build</title><style>.edge>path:hover{stroke-width:8}</style>
<ellipse fill="#573479" stroke="black" cx="755.72" cy="-39.6" rx="34.52" ry="39.7"/>
<text text-anchor="middle" x="755.72" y="-54.6" font-family="Helvetica,sans-Serif" font-size="10.00" fill="#ffffff">vmklib.</text>
<text text-anchor="middle" x="755.72" y="-42.6" font-family="Helvetica,sans-Serif" font-size="10.00" fill="#ffffff">tasks.</text>
<text text-anchor="middle" x="755.72" y="-30.6" font-family="Helvetica,sans-Serif" font-size="10.00" fill="#ffffff">python.</text>
<text text-anchor="middle" x="755.72" y="-18.6" font-family="Helvetica,sans-Serif" font-size="10.00" fill="#ffffff">build</text>
</g>
<!-- vcorelib&#45;&gt;vmklib_tasks_python_build -->
<g id="edge7" class="edge">
<title>vcorelib&#45;&gt;vmklib_tasks_python_build</title><style>.edge>path:hover{stroke-width:8}</style>
<path fill="none" stroke="black" d="M452.22,-558.22C438.3,-533.72 412.52,-485.42 398.72,-441.22"/>
<path fill="none" stroke="black" d="M398.72,-439.22C359.27,-364.89 304.54,-381.43 260.72,-309.59 223.7,-248.89 185.33,-219.58 216.72,-155.79"/>
<path fill="none" stroke="black" d="M216.72,-153.79C225.05,-135.39 223.82,-126.25 240.72,-115.2 318,-64.66 600.2,-47.27 710.82,-42.31"/>
<polygon fill="#10f9f9" stroke="black" points="711.13,-45.8 720.97,-41.87 710.83,-38.8 711.13,-45.8"/>
</g>
<!-- vmklib_tasks_python_datazen -->
<g id="node18" class="node">
<title>vmklib_tasks_python_datazen</title><style>.edge>path:hover{stroke-width:8}</style>
<ellipse fill="#6b4096" stroke="black" cx="724.72" cy="-269.99" rx="36.45" ry="39.7"/>
<text text-anchor="middle" x="724.72" y="-284.99" font-family="Helvetica,sans-Serif" font-size="10.00" fill="#ffffff">vmklib.</text>
<text text-anchor="middle" x="724.72" y="-272.99" font-family="Helvetica,sans-Serif" font-size="10.00" fill="#ffffff">tasks.</text>
<text text-anchor="middle" x="724.72" y="-260.99" font-family="Helvetica,sans-Serif" font-size="10.00" fill="#ffffff">python.</text>
<text text-anchor="middle" x="724.72" y="-248.99" font-family="Helvetica,sans-Serif" font-size="10.00" fill="#ffffff">datazen</text>
</g>
<!-- vcorelib&#45;&gt;vmklib_tasks_python_datazen -->
<g id="edge8" class="edge">
<title>vcorelib&#45;&gt;vmklib_tasks_python_datazen</title><style>.edge>path:hover{stroke-width:8}</style>
<path fill="none" stroke="black" d="M588.72,-362.59C585.72,-339.81 640.58,-309.34 681.52,-289.93"/>
<polygon fill="#10f9f9" stroke="black" points="683.22,-293 690.8,-285.61 680.26,-286.66 683.22,-293"/>
</g>
<!-- vmklib_tasks_python_lint -->
<g id="node19" class="node">
<title>vmklib_tasks_python_lint</title><style>.edge>path:hover{stroke-width:8}</style>
<ellipse fill="#6b35a1" stroke="black" cx="813.72" cy="-269.99" rx="34.52" ry="39.7"/>
<text text-anchor="middle" x="813.72" y="-284.99" font-family="Helvetica,sans-Serif" font-size="10.00" fill="#ffffff">vmklib.</text>
<text text-anchor="middle" x="813.72" y="-272.99" font-family="Helvetica,sans-Serif" font-size="10.00" fill="#ffffff">tasks.</text>
<text text-anchor="middle" x="813.72" y="-260.99" font-family="Helvetica,sans-Serif" font-size="10.00" fill="#ffffff">python.</text>
<text text-anchor="middle" x="813.72" y="-248.99" font-family="Helvetica,sans-Serif" font-size="10.00" fill="#ffffff">lint</text>
</g>
<!-- vcorelib&#45;&gt;vmklib_tasks_python_lint -->
<g id="edge9" class="edge">
<title>vcorelib&#45;&gt;vmklib_tasks_python_lint</title><style>.edge>path:hover{stroke-width:8}</style>
<path fill="none" stroke="black" d="M702.72,-439.22C689.22,-412.34 743.92,-345.69 781.3,-304.81"/>
<polygon fill="#10f9f9" stroke="black" points="784.07,-306.97 788.29,-297.25 778.93,-302.22 784.07,-306.97"/>
</g>
<!-- vmklib_tasks_python_package -->
<g id="node20" class="node">
<title>vmklib_tasks_python_package</title><style>.edge>path:hover{stroke-width:8}</style>
<ellipse fill="#573479" stroke="black" cx="1127.72" cy="-39.6" rx="38.1" ry="39.7"/>
<text text-anchor="middle" x="1127.72" y="-54.6" font-family="Helvetica,sans-Serif" font-size="10.00" fill="#ffffff">vmklib.</text>
<text text-anchor="middle" x="1127.72" y="-42.6" font-family="Helvetica,sans-Serif" font-size="10.00" fill="#ffffff">tasks.</text>
<text text-anchor="middle" x="1127.72" y="-30.6" font-family="Helvetica,sans-Serif" font-size="10.00" fill="#ffffff">python.</text>
<text text-anchor="middle" x="1127.72" y="-18.6" font-family="Helvetica,sans-Serif" font-size="10.00" fill="#ffffff">package</text>
</g>
<!-- vcorelib&#45;&gt;vmklib_tasks_python_package -->
<g id="edge10" class="edge">
<title>vcorelib&#45;&gt;vmklib_tasks_python_package</title><style>.edge>path:hover{stroke-width:8}</style>
<path fill="none" stroke="black" d="M457.76,-557.47C443.89,-496.63 399.79,-289.87 426.72,-230.39 447.46,-184.61 473.25,-188.14 511.72,-155.79"/>
<path fill="none" stroke="black" d="M511.72,-153.79C532.39,-133.77 537.05,-126.01 563.72,-115.2 587.62,-105.51 947.88,-61.98 1079.8,-46.27"/>
<polygon fill="#10f9f9" stroke="black" points="1080.48,-49.72 1090,-45.06 1079.66,-42.77 1080.48,-49.72"/>
</g>
<!-- vmklib_tasks_python_sa -->
<g id="node21" class="node">
<title>vmklib_tasks_python_sa</title><style>.edge>path:hover{stroke-width:8}</style>
<ellipse fill="#613a88" stroke="black" cx="813.72" cy="-154.79" rx="34.52" ry="39.7"/>
<text text-anchor="middle" x="813.72" y="-169.79" font-family="Helvetica,sans-Serif" font-size="10.00" fill="#ffffff">vmklib.</text>
<text text-anchor="middle" x="813.72" y="-157.79" font-family="Helvetica,sans-Serif" font-size="10.00" fill="#ffffff">tasks.</text>
<text text-anchor="middle" x="813.72" y="-145.79" font-family="Helvetica,sans-Serif" font-size="10.00" fill="#ffffff">python.</text>
<text text-anchor="middle" x="813.72" y="-133.79" font-family="Helvetica,sans-Serif" font-size="10.00" fill="#ffffff">sa</text>
</g>
<!-- vcorelib&#45;&gt;vmklib_tasks_python_sa -->
<g id="edge11" class="edge">
<title>vcorelib&#45;&gt;vmklib_tasks_python_sa</title><style>.edge>path:hover{stroke-width:8}</style>
<path fill="none" stroke="black" d="M491.05,-570.25C545.64,-561.79 665.79,-539.93 759.72,-499.84"/>
<path fill="none" stroke="black" d="M759.72,-498.84C792.86,-484.7 716.49,-474.5 702.72,-441.22"/>
<path fill="none" stroke="black" d="M702.72,-439.22C679.57,-383.26 596.65,-424.62 588.72,-364.59"/>
<path fill="none" stroke="black" d="M588.72,-362.59C575.7,-263.95 702.49,-198.86 771.25,-171.09"/>
<polygon fill="#10f9f9" stroke="black" points="772.93,-174.19 780.95,-167.27 770.36,-167.68 772.93,-174.19"/>
</g>
<!-- vmklib_tasks_python_test -->
<g id="node22" class="node">
<title>vmklib_tasks_python_test</title><style>.edge>path:hover{stroke-width:8}</style>
<ellipse fill="#6b4096" stroke="black" cx="900.72" cy="-269.99" rx="34.52" ry="39.7"/>
<text text-anchor="middle" x="900.72" y="-284.99" font-family="Helvetica,sans-Serif" font-size="10.00" fill="#ffffff">vmklib.</text>
<text text-anchor="middle" x="900.72" y="-272.99" font-family="Helvetica,sans-Serif" font-size="10.00" fill="#ffffff">tasks.</text>
<text text-anchor="middle" x="900.72" y="-260.99" font-family="Helvetica,sans-Serif" font-size="10.00" fill="#ffffff">python.</text>
<text text-anchor="middle" x="900.72" y="-248.99" font-family="Helvetica,sans-Serif" font-size="10.00" fill="#ffffff">test</text>
</g>
<!-- vcorelib&#45;&gt;vmklib_tasks_python_test -->
<g id="edge12" class="edge">
<title>vcorelib&#45;&gt;vmklib_tasks_python_test</title><style>.edge>path:hover{stroke-width:8}</style>
<path fill="none" stroke="black" d="M702.72,-439.22C693.92,-418.56 840.76,-324.29 857.72,-309.59 860.54,-307.14 863.45,-304.6 866.36,-302.03"/>
<polygon fill="#10f9f9" stroke="black" points="868.86,-304.48 874.01,-295.23 864.21,-299.25 868.86,-304.48"/>
</g>
<!-- vmklib_tasks_python_yaml -->
<g id="node23" class="node">
<title>vmklib_tasks_python_yaml</title><style>.edge>path:hover{stroke-width:8}</style>
<ellipse fill="#6b4096" stroke="black" cx="1026.72" cy="-269.99" rx="34.52" ry="39.7"/>
<text text-anchor="middle" x="1026.72" y="-284.99" font-family="Helvetica,sans-Serif" font-size="10.00" fill="#ffffff">vmklib.</text>
<text text-anchor="middle" x="1026.72" y="-272.99" font-family="Helvetica,sans-Serif" font-size="10.00" fill="#ffffff">tasks.</text>
<text text-anchor="middle" x="1026.72" y="-260.99" font-family="Helvetica,sans-Serif" font-size="10.00" fill="#ffffff">python.</text>
<text text-anchor="middle" x="1026.72" y="-248.99" font-family="Helvetica,sans-Serif" font-size="10.00" fill="#ffffff">yaml</text>
</g>
<!-- vcorelib&#45;&gt;vmklib_tasks_python_yaml -->
<g id="edge13" class="edge">
<title>vcorelib&#45;&gt;vmklib_tasks_python_yaml</title><style>.edge>path:hover{stroke-width:8}</style>
<path fill="none" stroke="black" d="M759.72,-498.84C863.4,-454.6 901.99,-482.9 1006.72,-441.22"/>
<path fill="none" stroke="black" d="M1006.72,-439.22C1037.54,-426.95 988.14,-392.06 1006.72,-364.59"/>
</g>
<!-- vmklib_tasks_venv -->
<g id="node24" class="node">
<title>vmklib_tasks_venv</title><style>.edge>path:hover{stroke-width:8}</style>
<ellipse fill="#4c2e6b" stroke="black" cx="1216.72" cy="-39.6" rx="33.13" ry="31.23"/>
<text text-anchor="middle" x="1216.72" y="-48.6" font-family="Helvetica,sans-Serif" font-size="10.00" fill="#ffffff">vmklib.</text>
<text text-anchor="middle" x="1216.72" y="-36.6" font-family="Helvetica,sans-Serif" font-size="10.00" fill="#ffffff">tasks.</text>
<text text-anchor="middle" x="1216.72" y="-24.6" font-family="Helvetica,sans-Serif" font-size="10.00" fill="#ffffff">venv</text>
</g>
<!-- vcorelib&#45;&gt;vmklib_tasks_venv -->
<g id="edge14" class="edge">
<title>vcorelib&#45;&gt;vmklib_tasks_venv</title><style>.edge>path:hover{stroke-width:8}</style>
<path fill="none" stroke="black" d="M465.2,-557.42C480.73,-482.14 544.46,-181.75 577.72,-155.79"/>
</g>
<!-- vcorelib_dict -->
<g id="node4" class="node">
<title>vcorelib_dict</title><style>.edge>path:hover{stroke-width:8}</style>
<ellipse fill="#3bcece" stroke="black" cx="1473.72" cy="-741.04" rx="41.24" ry="18"/>
<text text-anchor="middle" x="1473.72" y="-738.04" font-family="Helvetica,sans-Serif" font-size="10.00" fill="#000000">vcorelib.dict</text>
</g>
<!-- vcorelib_task -->
<g id="node6" class="node">
<title>vcorelib_task</title><style>.edge>path:hover{stroke-width:8}</style>
<ellipse fill="#06efef" stroke="black" cx="1044.72" cy="-575.44" rx="43.08" ry="18"/>
<text text-anchor="middle" x="1044.72" y="-572.44" font-family="Helvetica,sans-Serif" font-size="10.00" fill="#000000">vcorelib.task</text>
</g>
<!-- vcorelib_dict&#45;&gt;vcorelib_task -->
<g id="edge15" class="edge">
<title>vcorelib_dict&#45;&gt;vcorelib_task</title><style>.edge>path:hover{stroke-width:8}</style>
<path fill="none" stroke="black" d="M1473.72,-668.04C1419.95,-603.59 1177.79,-645.89 1099.72,-615.04 1089.36,-610.94 1079.08,-604.54 1070.26,-598.11"/>
<polygon fill="#3bcece" stroke="black" points="1072.36,-595.31 1062.29,-592.01 1068.11,-600.87 1072.36,-595.31"/>
</g>
<!-- vcorelib_task_manager -->
<g id="node7" class="node">
<title>vcorelib_task_manager</title><style>.edge>path:hover{stroke-width:8}</style>
<ellipse fill="#05e5e5" stroke="black" cx="360.72" cy="-575.44" rx="39.44" ry="31.23"/>
<text text-anchor="middle" x="360.72" y="-584.44" font-family="Helvetica,sans-Serif" font-size="10.00" fill="#000000">vcorelib.</text>
<text text-anchor="middle" x="360.72" y="-572.44" font-family="Helvetica,sans-Serif" font-size="10.00" fill="#000000">task.</text>
<text text-anchor="middle" x="360.72" y="-560.44" font-family="Helvetica,sans-Serif" font-size="10.00" fill="#000000">manager</text>
</g>
<!-- vcorelib_dict&#45;&gt;vcorelib_task_manager -->
<g id="edge16" class="edge">
<title>vcorelib_dict&#45;&gt;vcorelib_task_manager</title><style>.edge>path:hover{stroke-width:8}</style>
<path fill="none" stroke="black" d="M1479.28,-723C1483.21,-707.4 1485.87,-684.6 1473.72,-670.04"/>
<path fill="none" stroke="black" d="M1473.72,-668.04C1398.82,-578.26 534.3,-650 422.72,-615.04 413.84,-612.25 404.95,-607.89 396.79,-603.08"/>
<polygon fill="#3bcece" stroke="black" points="398.59,-600.08 388.25,-597.75 394.88,-606.02 398.59,-600.08"/>
</g>
<!-- vcorelib_dict&#45;&gt;vmklib_tasks_venv -->
<g id="edge17" class="edge">
<title>vcorelib_dict&#45;&gt;vmklib_tasks_venv</title><style>.edge>path:hover{stroke-width:8}</style>
<path fill="none" stroke="black" d="M1473.72,-668.04C1468.3,-661.54 1446.32,-372.93 1447.72,-364.59"/>
</g>
<!-- vcorelib_paths -->
<g id="node5" class="node">
<title>vcorelib_paths</title><style>.edge>path:hover{stroke-width:8}</style>
<ellipse fill="#40bfc0" stroke="black" cx="46.72" cy="-575.44" rx="46.95" ry="18"/>
<text text-anchor="middle" x="46.72" y="-572.44" font-family="Helvetica,sans-Serif" font-size="10.00" fill="#000000">vcorelib.paths</text>
</g>
<!-- vcorelib_paths&#45;&gt;vmklib_resources -->
<g id="edge18" class="edge">
<title>vcorelib_paths&#45;&gt;vmklib_resources</title><style>.edge>path:hover{stroke-width:8}</style>
<path fill="none" stroke="black" d="M68.72,-498.84C75.18,-483.91 87.83,-471.64 100.63,-462.32"/>
<polygon fill="#40bfc0" stroke="black" points="102.7,-465.14 108.99,-456.62 98.76,-459.36 102.7,-465.14"/>
</g>
<!-- vcorelib_paths&#45;&gt;vmklib_tasks_mixins_concrete -->
<g id="edge19" class="edge">
<title>vcorelib_paths&#45;&gt;vmklib_tasks_mixins_concrete</title><style>.edge>path:hover{stroke-width:8}</style>
<path fill="none" stroke="black" d="M50.49,-557.44C54.19,-542.05 60.47,-518.93 68.72,-499.84"/>
<path fill="none" stroke="black" d="M68.72,-498.84C83.44,-464.8 73.31,-451.76 87.72,-417.59 102.48,-382.6 102.58,-367.31 133.72,-345.59 222.71,-283.51 354.1,-271.81 424.66,-270.37"/>
<polygon fill="#40bfc0" stroke="black" points="425.08,-273.86 435.03,-270.22 424.98,-266.86 425.08,-273.86"/>
</g>
<!-- vcorelib_task&#45;&gt;vmklib_app -->
<g id="edge20" class="edge">
<title>vcorelib_task&#45;&gt;vmklib_app</title><style>.edge>path:hover{stroke-width:8}</style>
<path fill="none" stroke="black" d="M1002.2,-572.13C918.48,-566.63 727.19,-549.29 574.72,-499.84 497.91,-474.93 488.65,-445.06 412.72,-417.59 350.11,-394.93 274.38,-379.79 226.86,-371.69"/>
<polygon fill="#06efef" stroke="black" points="227.32,-368.22 216.88,-370.02 226.16,-375.12 227.32,-368.22"/>
</g>
<!-- vcorelib_task&#45;&gt;vmklib_tasks_mixins_concrete -->
<g id="edge21" class="edge">
<title>vcorelib_task&#45;&gt;vmklib_tasks_mixins_concrete</title><style>.edge>path:hover{stroke-width:8}</style>
<path fill="none" stroke="black" d="M474.72,-362.59C462.79,-351.44 460.27,-334.49 461.53,-318.2"/>
<polygon fill="#06efef" stroke="black" points="465.02,-318.54 462.76,-308.19 458.07,-317.69 465.02,-318.54"/>
</g>
<!-- vcorelib_task&#45;&gt;vmklib_tasks_python -->
<g id="edge22" class="edge">
<title>vcorelib_task&#45;&gt;vmklib_tasks_python</title><style>.edge>path:hover{stroke-width:8}</style>
<path fill="none" stroke="black" d="M1063.41,-559.07C1103.62,-525.61 1200.53,-442.91 1272.72,-364.59"/>
</g>
<!-- vcorelib_task&#45;&gt;vmklib_tasks_python_build -->
<g id="edge23" class="edge">
<title>vcorelib_task&#45;&gt;vmklib_tasks_python_build</title><style>.edge>path:hover{stroke-width:8}</style>
<path fill="none" stroke="black" d="M1003.17,-570.17C900.52,-557.53 631.87,-511.5 474.72,-364.59"/>
<path fill="none" stroke="black" d="M474.72,-362.59C421.58,-311.85 184.74,-221.94 216.72,-155.79"/>
</g>
<!-- vcorelib_task&#45;&gt;vmklib_tasks_python_datazen -->
<g id="edge24" class="edge">
<title>vcorelib_task&#45;&gt;vmklib_tasks_python_datazen</title><style>.edge>path:hover{stroke-width:8}</style>
<path fill="none" stroke="black" d="M854.72,-498.84C829.38,-485.07 818.86,-485.27 800.72,-462.84 766.28,-420.25 745.87,-360.1 735.02,-318.56"/>
<polygon fill="#06efef" stroke="black" points="738.37,-317.52 732.52,-308.68 731.58,-319.23 738.37,-317.52"/>
</g>
<!-- vcorelib_task&#45;&gt;vmklib_tasks_python_lint -->
<g id="edge25" class="edge">
<title>vcorelib_task&#45;&gt;vmklib_tasks_python_lint</title><style>.edge>path:hover{stroke-width:8}</style>
<path fill="none" stroke="black" d="M854.72,-498.84C795.66,-464.17 797.06,-374.71 804.6,-318.75"/>
<polygon fill="#06efef" stroke="black" points="808.08,-319.12 806.06,-308.72 801.16,-318.11 808.08,-319.12"/>
</g>
<!-- vcorelib_task&#45;&gt;vmklib_tasks_python_package -->
<g id="edge26" class="edge">
<title>vcorelib_task&#45;&gt;vmklib_tasks_python_package</title><style>.edge>path:hover{stroke-width:8}</style>
<path fill="none" stroke="black" d="M1010.28,-564.56C971.03,-552.48 905.71,-529.89 854.72,-499.84"/>
<path fill="none" stroke="black" d="M854.72,-498.84C818.67,-477.6 803.24,-484.97 767.72,-462.84 680.26,-408.35 657.66,-390.41 593.72,-309.59 569.69,-279.21 481.35,-179.83 511.72,-155.79"/>
</g>
<!-- vcorelib_task&#45;&gt;vmklib_tasks_python_sa -->
<g id="edge27" class="edge">
<title>vcorelib_task&#45;&gt;vmklib_tasks_python_sa</title><style>.edge>path:hover{stroke-width:8}</style>
<path fill="none" stroke="black" d="M1047.4,-557.46C1049.2,-542.09 1050.34,-518.98 1044.72,-499.84"/>
<path fill="none" stroke="black" d="M1044.72,-498.84C1036.69,-471.49 1002.83,-408.24 992.72,-381.59 967.73,-315.66 989.07,-285.2 944.72,-230.39 921.8,-202.06 885.05,-182.48 856.3,-170.51"/>
<polygon fill="#06efef" stroke="black" points="857.48,-167.21 846.89,-166.74 854.87,-173.71 857.48,-167.21"/>
</g>
<!-- vcorelib_task&#45;&gt;vmklib_tasks_python_test -->
<g id="edge28" class="edge">
<title>vcorelib_task&#45;&gt;vmklib_tasks_python_test</title><style>.edge>path:hover{stroke-width:8}</style>
<path fill="none" stroke="black" d="M854.72,-498.84C840.31,-489.56 939.62,-379.24 930.72,-364.59"/>
<path fill="none" stroke="black" d="M930.72,-362.59C923.84,-348.7 918.02,-332.87 913.38,-318.32"/>
<polygon fill="#06efef" stroke="black" points="916.64,-317.03 910.36,-308.49 909.95,-319.08 916.64,-317.03"/>
</g>
<!-- vcorelib_task&#45;&gt;vmklib_tasks_python_yaml -->
<g id="edge29" class="edge">
<title>vcorelib_task&#45;&gt;vmklib_tasks_python_yaml</title><style>.edge>path:hover{stroke-width:8}</style>
<path fill="none" stroke="black" d="M1044.72,-498.84C1037.51,-474.27 1031.91,-463.39 1044.72,-441.22"/>
<path fill="none" stroke="black" d="M1044.72,-439.22C1075.03,-386.78 1186.53,-418.39 1158.72,-364.59"/>
<path fill="none" stroke="black" d="M1158.72,-362.59C1152.72,-350.98 1145.64,-352.77 1134.72,-345.59 1109.06,-328.7 1100.94,-327.12 1075.72,-309.59 1071.44,-306.61 1067.04,-303.39 1062.71,-300.12"/>
<polygon fill="#06efef" stroke="black" points="1064.59,-297.15 1054.53,-293.83 1060.32,-302.7 1064.59,-297.15"/>
</g>
<!-- vcorelib_task&#45;&gt;vmklib_tasks_venv -->
<g id="edge30" class="edge">
<title>vcorelib_task&#45;&gt;vmklib_tasks_venv</title><style>.edge>path:hover{stroke-width:8}</style>
<path fill="none" stroke="black" d="M1044.72,-439.22C1075.94,-385.2 1132.09,-428.93 1172.72,-381.59 1201.5,-348.06 1207.29,-184.94 1211.72,-155.79"/>
</g>
<!-- vcorelib_task_manager&#45;&gt;vmklib_app -->
<g id="edge31" class="edge">
<title>vcorelib_task_manager&#45;&gt;vmklib_app</title><style>.edge>path:hover{stroke-width:8}</style>
<path fill="none" stroke="black" d="M329.36,-556.17C311.09,-543.24 290.54,-523.93 284.72,-499.84"/>
<path fill="none" stroke="black" d="M284.72,-498.84C278.71,-473.95 299.67,-462.01 284.72,-441.22"/>
<path fill="none" stroke="black" d="M284.72,-439.22C266.94,-414.48 238.37,-394.83 215.67,-381.92"/>
<polygon fill="#05e5e5" stroke="black" points="217.12,-378.72 206.67,-376.97 213.75,-384.85 217.12,-378.72"/>
</g>
<!-- vcorelib_task_manager&#45;&gt;vmklib_tasks_python_build -->
<g id="edge32" class="edge">
<title>vcorelib_task_manager&#45;&gt;vmklib_tasks_python_build</title><style>.edge>path:hover{stroke-width:8}</style>
<path fill="none" stroke="black" d="M333.34,-552.94C315.19,-538.39 291.06,-518.51 270.72,-499.84 232.92,-465.15 229.55,-449.94 189.72,-417.59 166.76,-398.93 153.73,-403.39 133.72,-381.59 52.86,-293.48 16.05,-204.38 95.72,-115.2 136.76,-69.26 569.01,-48.04 710.89,-42.28"/>
<polygon fill="#05e5e5" stroke="black" points="711.13,-45.77 720.98,-41.87 710.85,-38.77 711.13,-45.77"/>
</g>
<!-- vcorelib_task_manager&#45;&gt;vmklib_tasks_python_datazen -->
<g id="edge33" class="edge">
<title>vcorelib_task_manager&#45;&gt;vmklib_tasks_python_datazen</title><style>.edge>path:hover{stroke-width:8}</style>
<path fill="none" stroke="black" d="M355.68,-544.41C354.57,-530.4 355.1,-513.77 360.72,-499.84"/>
<path fill="none" stroke="black" d="M360.72,-498.84C370.31,-475.09 346.8,-462.71 360.72,-441.22"/>
<path fill="none" stroke="black" d="M360.72,-439.22C393.82,-388.11 407.7,-375.52 460.72,-345.59 530.86,-305.99 623.53,-286.16 678.36,-277.25"/>
<polygon fill="#05e5e5" stroke="black" points="679.14,-280.68 688.47,-275.67 678.05,-273.76 679.14,-280.68"/>
</g>
<!-- vcorelib_task_manager&#45;&gt;vmklib_tasks_python_lint -->
<g id="edge34" class="edge">
<title>vcorelib_task_manager&#45;&gt;vmklib_tasks_python_lint</title><style>.edge>path:hover{stroke-width:8}</style>
<path fill="none" stroke="black" d="M360.72,-439.22C368.5,-427.15 372.15,-424.52 384.72,-417.59 423.64,-396.15 730.67,-330.76 769.72,-309.59 773.24,-307.68 776.72,-305.45 780.08,-303.03"/>
<polygon fill="#05e5e5" stroke="black" points="782.43,-305.64 788.18,-296.74 778.13,-300.12 782.43,-305.64"/>
</g>
<!-- vcorelib_task_manager&#45;&gt;vmklib_tasks_python_package -->
<g id="edge35" class="edge">
<title>vcorelib_task_manager&#45;&gt;vmklib_tasks_python_package</title><style>.edge>path:hover{stroke-width:8}</style>
<path fill="none" stroke="black" d="M284.72,-498.84C277.52,-469.02 321.02,-471.85 322.72,-441.22"/>
<path fill="none" stroke="black" d="M322.72,-439.22C324.41,-408.84 283.68,-339.6 278.72,-309.59 264.65,-224.35 219.78,-178.36 278.72,-115.2 318.32,-72.77 741.95,-84.59 799.72,-79.2 899.5,-69.88 1015.91,-55.3 1079.75,-46.98"/>
<polygon fill="#05e5e5" stroke="black" points="1080.44,-50.42 1089.91,-45.65 1079.54,-43.48 1080.44,-50.42"/>
</g>
<!-- vcorelib_task_manager&#45;&gt;vmklib_tasks_python_sa -->
<g id="edge36" class="edge">
<title>vcorelib_task_manager&#45;&gt;vmklib_tasks_python_sa</title><style>.edge>path:hover{stroke-width:8}</style>
<path fill="none" stroke="black" d="M322.72,-362.59C333.19,-288.57 362.89,-269.29 426.72,-230.39 441.4,-221.45 671.35,-180.6 769.68,-163.43"/>
<polygon fill="#05e5e5" stroke="black" points="770.36,-166.87 779.61,-161.7 769.16,-159.97 770.36,-166.87"/>
</g>
<!-- vcorelib_task_manager&#45;&gt;vmklib_tasks_python_test -->
<g id="edge37" class="edge">
<title>vcorelib_task_manager&#45;&gt;vmklib_tasks_python_test</title><style>.edge>path:hover{stroke-width:8}</style>
<path fill="none" stroke="black" d="M360.72,-498.84C396.03,-411.34 668.27,-378.46 756.72,-345.59 801.39,-328.99 816.77,-333.96 857.72,-309.59 860.93,-307.68 864.11,-305.51 867.21,-303.2"/>
<polygon fill="#05e5e5" stroke="black" points="869.55,-305.81 875.17,-296.82 865.17,-300.34 869.55,-305.81"/>
</g>
<!-- vcorelib_task_manager&#45;&gt;vmklib_tasks_python_yaml -->
<g id="edge38" class="edge">
<title>vcorelib_task_manager&#45;&gt;vmklib_tasks_python_yaml</title><style>.edge>path:hover{stroke-width:8}</style>
<path fill="none" stroke="black" d="M389.77,-554.09C399.88,-547.63 411.5,-540.87 422.72,-535.84 669.59,-425.29 855.17,-588.63 1006.72,-364.59"/>
<path fill="none" stroke="black" d="M1006.72,-362.59C1011.52,-348.72 1015.41,-333.27 1018.45,-319.06"/>
<polygon fill="#05e5e5" stroke="black" points="1021.94,-319.47 1020.51,-308.98 1015.08,-318.07 1021.94,-319.47"/>
</g>
<!-- vcorelib_task_manager&#45;&gt;vmklib_tasks_venv -->
<g id="edge39" class="edge">
<title>vcorelib_task_manager&#45;&gt;vmklib_tasks_venv</title><style>.edge>path:hover{stroke-width:8}</style>
<path fill="none" stroke="black" d="M322.72,-439.22C329.47,-406.74 320.18,-397.66 322.72,-364.59"/>
<path fill="none" stroke="black" d="M322.72,-362.59C327.25,-303.81 300.69,-279.23 333.72,-230.39 397.78,-135.7 453.29,-144.76 563.72,-115.2 695.11,-80.02 1049.5,-132.29 1174.72,-79.2 1179.5,-77.17 1184.08,-74.36 1188.35,-71.16"/>
<polygon fill="#05e5e5" stroke="black" points="1190.7,-73.76 1196.13,-64.66 1186.21,-68.38 1190.7,-73.76"/>
</g>
<!-- vcorelib_task_subprocess -->
<g id="node8" class="node">
<title>vcorelib_task_subprocess</title><style>.edge>path:hover{stroke-width:8}</style>
<ellipse fill="#10f9f9" stroke="black" cx="1155.72" cy="-575.44" rx="47.45" ry="31.23"/>
<text text-anchor="middle" x="1155.72" y="-584.44" font-family="Helvetica,sans-Serif" font-size="10.00" fill="#000000">vcorelib.</text>
<text text-anchor="middle" x="1155.72" y="-572.44" font-family="Helvetica,sans-Serif" font-size="10.00" fill="#000000">task.</text>
<text text-anchor="middle" x="1155.72" y="-560.44" font-family="Helvetica,sans-Serif" font-size="10.00" fill="#000000">subprocess</text>
</g>
<!-- vcorelib_task_subprocess&#45;&gt;vmklib_tasks_mixins_concrete -->
<g id="edge40" class="edge">
<title>vcorelib_task_subprocess&#45;&gt;vmklib_tasks_mixins_concrete</title><style>.edge>path:hover{stroke-width:8}</style>
<path fill="none" stroke="black" d="M1125.48,-551.31C1116.61,-545.48 1106.62,-539.76 1096.72,-535.84 1011.12,-501.95 967.79,-553.14 892.72,-499.84"/>
<path fill="none" stroke="black" d="M892.72,-498.84C764.75,-407.98 596.58,-326.76 517.9,-290.71"/>
<polygon fill="#10f9f9" stroke="black" points="519.31,-287.51 508.76,-286.54 516.4,-293.88 519.31,-287.51"/>
</g>
<!-- vcorelib_task_subprocess&#45;&gt;vmklib_tasks_python -->
<g id="edge41" class="edge">
<title>vcorelib_task_subprocess&#45;&gt;vmklib_tasks_python</title><style>.edge>path:hover{stroke-width:8}</style>
<path fill="none" stroke="black" d="M1310.72,-362.59C1308.08,-345.97 1307.63,-327.44 1308,-311.41"/>
<polygon fill="#10f9f9" stroke="black" points="1311.5,-311.41 1308.35,-301.29 1304.5,-311.17 1311.5,-311.41"/>
</g>
<!-- vcorelib_task_subprocess&#45;&gt;vmklib_tasks_python_build -->
<g id="edge42" class="edge">
<title>vcorelib_task_subprocess&#45;&gt;vmklib_tasks_python_build</title><style>.edge>path:hover{stroke-width:8}</style>
<path fill="none" stroke="black" d="M1187.11,-552.08C1195.82,-546.38 1205.44,-540.55 1214.72,-535.84 1255.37,-515.24 1276.8,-530.26 1310.72,-499.84"/>
<path fill="none" stroke="black" d="M1310.72,-498.84C1329.79,-481.74 1316.57,-466.15 1310.72,-441.22"/>
<path fill="none" stroke="black" d="M1310.72,-439.22C1304.75,-413.72 1302.99,-423.3 1172.72,-345.59 1144.7,-328.87 1131.04,-333.4 1108.72,-309.59 1082.03,-281.1 1096.99,-259.28 1070.72,-230.39 991.87,-143.68 864.13,-83.73 798.16,-56.75"/>
<polygon fill="#10f9f9" stroke="black" points="799.09,-53.35 788.5,-52.86 796.47,-59.85 799.09,-53.35"/>
</g>
<!-- vcorelib_task_subprocess&#45;&gt;vmklib_tasks_python_datazen -->
<g id="edge43" class="edge">
<title>vcorelib_task_subprocess&#45;&gt;vmklib_tasks_python_datazen</title><style>.edge>path:hover{stroke-width:8}</style>
<path fill="none" stroke="black" d="M892.72,-498.84C844.89,-463.18 919.27,-418.02 892.72,-364.59"/>
<path fill="none" stroke="black" d="M892.72,-362.59C869.04,-307.97 820.22,-341.1 769.72,-309.59 766.57,-307.62 763.41,-305.44 760.31,-303.14"/>
<polygon fill="#10f9f9" stroke="black" points="762.31,-300.27 752.28,-296.87 758,-305.78 762.31,-300.27"/>
</g>
<!-- vcorelib_task_subprocess&#45;&gt;vmklib_tasks_python_lint -->
<g id="edge44" class="edge">
<title>vcorelib_task_subprocess&#45;&gt;vmklib_tasks_python_lint</title><style>.edge>path:hover{stroke-width:8}</style>
<path fill="none" stroke="black" d="M892.72,-362.59C881.62,-340.24 863.81,-318.91 847.91,-302.46"/>
<polygon fill="#10f9f9" stroke="black" points="850.29,-299.9 840.77,-295.26 845.32,-304.83 850.29,-299.9"/>
</g>
<!-- vcorelib_task_subprocess&#45;&gt;vmklib_tasks_python_package -->
<g id="edge45" class="edge">
<title>vcorelib_task_subprocess&#45;&gt;vmklib_tasks_python_package</title><style>.edge>path:hover{stroke-width:8}</style>
<path fill="none" stroke="black" d="M1310.72,-439.22C1303.16,-406.92 1315.93,-397.35 1310.72,-364.59"/>
<path fill="none" stroke="black" d="M1310.72,-362.59C1306.01,-332.9 1285.11,-334.79 1268.72,-309.59 1219.65,-234.11 1173.31,-139.65 1147.89,-85.11"/>
<polygon fill="#10f9f9" stroke="black" points="1150.93,-83.33 1143.54,-75.73 1144.58,-86.27 1150.93,-83.33"/>
</g>
<!-- vcorelib_task_subprocess&#45;&gt;vmklib_tasks_python_test -->
<g id="edge46" class="edge">
<title>vcorelib_task_subprocess&#45;&gt;vmklib_tasks_python_test</title><style>.edge>path:hover{stroke-width:8}</style>
<path fill="none" stroke="black" d="M1144.28,-545.17C1129.36,-510.45 1100.19,-452.85 1058.72,-417.59 1011.82,-377.7 958.05,-419.76 930.72,-364.59"/>
</g>
<!-- vcorelib_task_subprocess&#45;&gt;vmklib_tasks_python_yaml -->
<g id="edge47" class="edge">
<title>vcorelib_task_subprocess&#45;&gt;vmklib_tasks_python_yaml</title><style>.edge>path:hover{stroke-width:8}</style>
<path fill="none" stroke="black" d="M1164.5,-544.63C1175.27,-502.04 1188.67,-422.53 1158.72,-364.59"/>
</g>
<!-- vcorelib_task_subprocess&#45;&gt;vmklib_tasks_venv -->
<g id="edge48" class="edge">
<title>vcorelib_task_subprocess&#45;&gt;vmklib_tasks_venv</title><style>.edge>path:hover{stroke-width:8}</style>
<path fill="none" stroke="black" d="M1310.72,-498.84C1343.42,-471.5 1444.42,-407.09 1447.72,-364.59"/>
<path fill="none" stroke="black" d="M1447.72,-362.59C1459.07,-252.7 1491.52,-202.41 1423.72,-115.2 1384.63,-64.9 1308.63,-48.48 1260.39,-43.14"/>
<polygon fill="#10f9f9" stroke="black" points="1260.55,-39.64 1250.25,-42.13 1259.86,-46.6 1260.55,-39.64"/>
</g>
<!-- vcorelib_task_subprocess_run -->
<g id="node9" class="node">
<title>vcorelib_task_subprocess_run</title><style>.edge>path:hover{stroke-width:8}</style>
<ellipse fill="#06efef" stroke="black" cx="1272.72" cy="-575.44" rx="49.38" ry="39.7"/>
<text text-anchor="middle" x="1272.72" y="-590.44" font-family="Helvetica,sans-Serif" font-size="10.00" fill="#000000">vcorelib.</text>
<text text-anchor="middle" x="1272.72" y="-578.44" font-family="Helvetica,sans-Serif" font-size="10.00" fill="#000000">task.</text>
<text text-anchor="middle" x="1272.72" y="-566.44" font-family="Helvetica,sans-Serif" font-size="10.00" fill="#000000">subprocess.</text>
<text text-anchor="middle" x="1272.72" y="-554.44" font-family="Helvetica,sans-Serif" font-size="10.00" fill="#000000">run</text>
</g>
<!-- vcorelib_task_subprocess_run&#45;&gt;vmklib_tasks_mixins_concrete -->
<g id="edge49" class="edge">
<title>vcorelib_task_subprocess_run&#45;&gt;vmklib_tasks_mixins_concrete</title><style>.edge>path:hover{stroke-width:8}</style>
<path fill="none" stroke="black" d="M1238.68,-546.49C1195.23,-510.21 1118.53,-444.12 1058.72,-381.59 1051.96,-374.51 1053.32,-369.27 1044.72,-364.59"/>
<path fill="none" stroke="black" d="M1044.72,-362.59C901.26,-283.29 841.43,-336.47 679.72,-309.59 625.34,-300.55 563.18,-288.69 521.49,-280.51"/>
<polygon fill="#06efef" stroke="black" points="522.1,-277.07 511.61,-278.57 520.74,-283.94 522.1,-277.07"/>
</g>
<!-- vcorelib_task_subprocess_run&#45;&gt;vmklib_tasks_python -->
<g id="edge50" class="edge">
<title>vcorelib_task_subprocess_run&#45;&gt;vmklib_tasks_python</title><style>.edge>path:hover{stroke-width:8}</style>
<path fill="none" stroke="black" d="M1318.59,-560.26C1346.91,-548.85 1380.95,-529.7 1397.72,-499.84"/>
<path fill="none" stroke="black" d="M1397.72,-498.84C1427.5,-445.86 1376.57,-425.17 1371.72,-364.59"/>
<path fill="none" stroke="black" d="M1371.72,-362.59C1364.48,-340.82 1350.62,-319.32 1337.93,-302.63"/>
<polygon fill="#06efef" stroke="black" points="1340.37,-300.07 1331.45,-294.36 1334.86,-304.39 1340.37,-300.07"/>
</g>
<!-- vcorelib_task_subprocess_run&#45;&gt;vmklib_tasks_python_build -->
<g id="edge51" class="edge">
<title>vcorelib_task_subprocess_run&#45;&gt;vmklib_tasks_python_build</title><style>.edge>path:hover{stroke-width:8}</style>
<path fill="none" stroke="black" d="M1371.72,-362.59C1352.99,-306.26 1392.86,-274.12 1352.72,-230.39 1304.9,-178.29 1256.42,-233.84 1197.72,-194.39 1161.94,-170.34 1177.94,-138.57 1141.72,-115.2 1085.53,-78.93 889.13,-54.47 800.15,-44.99"/>
<polygon fill="#06efef" stroke="black" points="800.41,-41.5 790.1,-43.94 799.68,-48.46 800.41,-41.5"/>
</g>
<!-- vcorelib_task_subprocess_run&#45;&gt;vmklib_tasks_python_datazen -->
<g id="edge52" class="edge">
<title>vcorelib_task_subprocess_run&#45;&gt;vmklib_tasks_python_datazen</title><style>.edge>path:hover{stroke-width:8}</style>
<path fill="none" stroke="black" d="M1044.72,-362.59C935.39,-303.1 881.82,-363.69 769.72,-309.59 766.18,-307.88 762.68,-305.81 759.31,-303.54"/>
<polygon fill="#06efef" stroke="black" points="761.32,-300.67 751.19,-297.55 757.16,-306.31 761.32,-300.67"/>
</g>
<!-- vcorelib_task_subprocess_run&#45;&gt;vmklib_tasks_python_lint -->
<g id="edge53" class="edge">
<title>vcorelib_task_subprocess_run&#45;&gt;vmklib_tasks_python_lint</title><style>.edge>path:hover{stroke-width:8}</style>
<path fill="none" stroke="black" d="M1276.86,-535.9C1277.02,-524.12 1276.08,-511.28 1272.72,-499.84"/>
<path fill="none" stroke="black" d="M1272.72,-498.84C1246.24,-408.66 1170.22,-440.18 1096.72,-381.59 1078.53,-367.09 1079.49,-356.07 1058.72,-345.59 977.31,-304.5 938.68,-349.58 856.72,-309.59 853.37,-307.95 850.08,-305.98 846.92,-303.8"/>
<polygon fill="#06efef" stroke="black" points="848.91,-300.92 838.84,-297.63 844.67,-306.48 848.91,-300.92"/>
</g>
<!-- vcorelib_task_subprocess_run&#45;&gt;vmklib_tasks_python_package -->
<g id="edge54" class="edge">
<title>vcorelib_task_subprocess_run&#45;&gt;vmklib_tasks_python_package</title><style>.edge>path:hover{stroke-width:8}</style>
<path fill="none" stroke="black" d="M1397.72,-498.84C1416.71,-474.75 1428.43,-471.01 1435.72,-441.22"/>
<path fill="none" stroke="black" d="M1435.72,-439.22C1441.4,-416.04 1399.04,-250.19 1385.72,-230.39 1321.34,-134.66 1266.24,-149.44 1174.72,-79.2 1171.56,-76.77 1168.31,-74.22 1165.07,-71.64"/>
<polygon fill="#06efef" stroke="black" points="1167.05,-68.74 1157.07,-65.19 1162.66,-74.19 1167.05,-68.74"/>
</g>
<!-- vcorelib_task_subprocess_run&#45;&gt;vmklib_tasks_python_test -->
<g id="edge55" class="edge">
<title>vcorelib_task_subprocess_run&#45;&gt;vmklib_tasks_python_test</title><style>.edge>path:hover{stroke-width:8}</style>
<path fill="none" stroke="black" d="M1272.72,-498.84C1265.51,-474.27 1285.54,-463.39 1272.72,-441.22"/>
<path fill="none" stroke="black" d="M1272.72,-439.22C1241.5,-385.2 1198.45,-413.3 1144.72,-381.59 1121.76,-368.03 1120.44,-357.78 1096.72,-345.59 1049.47,-321.3 1032.2,-328.95 982.72,-309.59 969.05,-304.24 954.44,-297.66 941.4,-291.45"/>
<polygon fill="#06efef" stroke="black" points="942.75,-288.22 932.22,-287.03 939.71,-294.52 942.75,-288.22"/>
</g>
<!-- vcorelib_task_subprocess_run&#45;&gt;vmklib_tasks_python_yaml -->
<g id="edge56" class="edge">
<title>vcorelib_task_subprocess_run&#45;&gt;vmklib_tasks_python_yaml</title><style>.edge>path:hover{stroke-width:8}</style>
<path fill="none" stroke="black" d="M1272.72,-439.22C1242.42,-386.78 1188.49,-417.32 1158.72,-364.59"/>
</g>
<!-- vcorelib_task_subprocess_run&#45;&gt;vmklib_tasks_venv -->
<g id="edge57" class="edge">
<title>vcorelib_task_subprocess_run&#45;&gt;vmklib_tasks_venv</title><style>.edge>path:hover{stroke-width:8}</style>
<path fill="none" stroke="black" d="M1435.72,-439.22C1443.71,-406.58 1445.12,-398.08 1447.72,-364.59"/>
</g>
<!-- vmklib___main__ -->
<g id="node10" class="node">
<title>vmklib___main__</title><style>.edge>path:hover{stroke-width:8}</style>
<ellipse fill="#7a49ac" stroke="black" cx="146.72" cy="-154.79" rx="42.24" ry="22.76"/>
<text text-anchor="middle" x="146.72" y="-157.79" font-family="Helvetica,sans-Serif" font-size="10.00" fill="#ffffff">vmklib.</text>
<text text-anchor="middle" x="146.72" y="-145.79" font-family="Helvetica,sans-Serif" font-size="10.00" fill="#ffffff">__main__</text>
</g>
<!-- vmklib_entry -->
<g id="node12" class="node">
<title>vmklib_entry</title><style>.edge>path:hover{stroke-width:8}</style>
<ellipse fill="#7a3db8" stroke="black" cx="146.72" cy="-269.99" rx="41.9" ry="18"/>
<text text-anchor="middle" x="146.72" y="-266.99" font-family="Helvetica,sans-Serif" font-size="10.00" fill="#ffffff">vmklib.entry</text>
</g>
<!-- vmklib_app&#45;&gt;vmklib_entry -->
<g id="edge58" class="edge">
<title>vmklib_app&#45;&gt;vmklib_entry</title><style>.edge>path:hover{stroke-width:8}</style>
<path fill="none" stroke="black" d="M174.49,-345.79C169.49,-332.31 162.37,-313.15 156.6,-297.6"/>
<polygon fill="#6b35a1" stroke="black" points="159.8,-296.15 153.04,-287.99 153.23,-298.59 159.8,-296.15"/>
</g>
<!-- vmklib_entry&#45;&gt;vmklib___main__ -->
<g id="edge59" class="edge">
<title>vmklib_entry&#45;&gt;vmklib___main__</title><style>.edge>path:hover{stroke-width:8}</style>
<path fill="none" stroke="black" d="M146.72,-251.8C146.72,-234.94 146.72,-208.84 146.72,-188.1"/>
<polygon fill="#7a3db8" stroke="black" points="150.22,-187.82 146.72,-177.82 143.22,-187.82 150.22,-187.82"/>
</g>
<!-- vmklib_resources&#45;&gt;vmklib_app -->
<g id="edge60" class="edge">
<title>vmklib_resources&#45;&gt;vmklib_app</title><style>.edge>path:hover{stroke-width:8}</style>
<path fill="none" stroke="black" d="M150.42,-418.43C155.37,-409.63 161.19,-399.29 166.4,-390.05"/>
<polygon fill="#753ab0" stroke="black" points="169.49,-391.69 171.34,-381.25 163.39,-388.25 169.49,-391.69"/>
</g>
<!-- vmklib_tasks_mixins -->
<g id="node14" class="node">
<title>vmklib_tasks_mixins</title><style>.edge>path:hover{stroke-width:8}</style>
<ellipse fill="#852fdb" stroke="black" cx="1150.72" cy="-269.99" rx="33.13" ry="31.23"/>
<text text-anchor="middle" x="1150.72" y="-278.99" font-family="Helvetica,sans-Serif" font-size="10.00" fill="#ffffff">vmklib.</text>
<text text-anchor="middle" x="1150.72" y="-266.99" font-family="Helvetica,sans-Serif" font-size="10.00" fill="#ffffff">tasks.</text>
<text text-anchor="middle" x="1150.72" y="-254.99" font-family="Helvetica,sans-Serif" font-size="10.00" fill="#ffffff">mixins</text>
</g>
<!-- vmklib_tasks_mixins&#45;&gt;vmklib_tasks_python_build -->
<g id="edge61" class="edge">
<title>vmklib_tasks_mixins&#45;&gt;vmklib_tasks_python_build</title><style>.edge>path:hover{stroke-width:8}</style>
<path fill="none" stroke="black" d="M1150.93,-238.57C1149.69,-214.2 1144.64,-180.18 1127.72,-155.79"/>
<path fill="none" stroke="black" d="M1127.72,-153.79C1116.21,-137.2 1120.25,-126.82 1103.72,-115.2 1055.01,-80.94 882.36,-55.98 800.03,-45.74"/>
<polygon fill="#852fdb" stroke="black" points="800.33,-42.25 789.98,-44.5 799.48,-49.19 800.33,-42.25"/>
</g>
<!-- vmklib_tasks_mixins&#45;&gt;vmklib_tasks_python_package -->
<g id="edge62" class="edge">
<title>vmklib_tasks_mixins&#45;&gt;vmklib_tasks_python_package</title><style>.edge>path:hover{stroke-width:8}</style>
<path fill="none" stroke="black" d="M1127.72,-153.79C1114.67,-134.98 1113.5,-109.83 1116.1,-88.02"/>
<polygon fill="#852fdb" stroke="black" points="1119.59,-88.35 1117.59,-77.95 1112.66,-87.33 1119.59,-88.35"/>
</g>
<!-- vmklib_tasks_mixins&#45;&gt;vmklib_tasks_venv -->
<g id="edge63" class="edge">
<title>vmklib_tasks_mixins&#45;&gt;vmklib_tasks_venv</title><style>.edge>path:hover{stroke-width:8}</style>
<path fill="none" stroke="black" d="M1170.22,-244.73C1186.07,-222.96 1206.62,-189.34 1211.72,-155.79"/>
<path fill="none" stroke="black" d="M1211.72,-153.79C1215.36,-129.9 1216.66,-102.86 1217.03,-81.2"/>
<polygon fill="#852fdb" stroke="black" points="1220.53,-81.08 1217.14,-71.04 1213.53,-81 1220.53,-81.08"/>
</g>
<!-- vmklib_tasks_mixins_concrete&#45;&gt;vmklib_tasks_python_build -->
<g id="edge64" class="edge">
<title>vmklib_tasks_mixins_concrete&#45;&gt;vmklib_tasks_python_build</title><style>.edge>path:hover{stroke-width:8}</style>
<path fill="none" stroke="black" d="M469.04,-230.41C467.1,-196.06 470.13,-146.53 497.72,-115.2 551.65,-53.97 652.41,-41.59 710.77,-39.89"/>
<polygon fill="#6b20b6" stroke="black" points="710.88,-43.38 720.81,-39.69 710.74,-36.39 710.88,-43.38"/>
</g>
<!-- vmklib_tasks_mixins_concrete&#45;&gt;vmklib_tasks_python_package -->
<g id="edge65" class="edge">
<title>vmklib_tasks_mixins_concrete&#45;&gt;vmklib_tasks_python_package</title><style>.edge>path:hover{stroke-width:8}</style>
<path fill="none" stroke="black" d="M485.04,-232.12C495.05,-200.05 508.54,-158.31 511.72,-155.79"/>
</g>
<!-- vmklib_tasks_mixins_concrete&#45;&gt;vmklib_tasks_venv -->
<g id="edge66" class="edge">
<title>vmklib_tasks_mixins_concrete&#45;&gt;vmklib_tasks_venv</title><style>.edge>path:hover{stroke-width:8}</style>
<path fill="none" stroke="black" d="M497.41,-238.03C517.09,-213.67 546.79,-179.93 577.72,-155.79"/>
<path fill="none" stroke="black" d="M577.72,-153.79C646.35,-100.25 683.58,-127.65 769.72,-115.2 859.15,-102.27 1092.07,-115.7 1174.72,-79.2 1179.47,-77.1 1184.03,-74.24 1188.29,-71.03"/>
<polygon fill="#6b20b6" stroke="black" points="1190.66,-73.61 1196.06,-64.5 1186.16,-68.25 1190.66,-73.61"/>
</g>
<!-- vmklib_tasks_python&#45;&gt;vmklib_tasks_venv -->
<g id="edge67" class="edge">
<title>vmklib_tasks_python&#45;&gt;vmklib_tasks_venv</title><style>.edge>path:hover{stroke-width:8}</style>
<path fill="none" stroke="black" d="M1304.12,-239.23C1296.54,-207.61 1282.67,-156.57 1263.72,-115.2 1257.36,-101.31 1248.82,-86.91 1240.76,-74.52"/>
<polygon fill="#702db4" stroke="black" points="1243.47,-72.27 1235.02,-65.88 1237.64,-76.15 1243.47,-72.27"/>
</g>
<!-- vmklib_tasks_python_lint&#45;&gt;vmklib_tasks_python_sa -->
<g id="edge68" class="edge">
<title>vmklib_tasks_python_lint&#45;&gt;vmklib_tasks_python_sa</title><style>.edge>path:hover{stroke-width:8}</style>
<path fill="none" stroke="black" d="M813.72,-230.35C813.72,-222.15 813.72,-213.4 813.72,-204.87"/>
<polygon fill="#6b35a1" stroke="black" points="817.22,-204.64 813.72,-194.64 810.22,-204.64 817.22,-204.64"/>
</g>
</g>
</svg>
