<?xml version="1.0" encoding="UTF-8" standalone="no"?>
<!DOCTYPE svg PUBLIC "-//W3C//DTD SVG 1.1//EN"
 "http://www.w3.org/Graphics/SVG/1.1/DTD/svg11.dtd">
<!-- Generated by graphviz version 3.0.1~dev.20220405.0544 (20220405.0544)
 -->
<!-- Title: G Pages: 1 -->
<svg width="191pt" height="413pt"
 viewBox="0.00 0.00 191.11 413.25" xmlns="http://www.w3.org/2000/svg" xmlns:xlink="http://www.w3.org/1999/xlink">
<g id="graph0" class="graph" transform="scale(1 1) rotate(0) translate(4 409.25)">
<title>G</title><style>.edge>path:hover{stroke-width:8}</style>
<polygon fill="white" stroke="transparent" points="-4,4 -4,-409.25 187.11,-409.25 187.11,4 -4,4"/>
<!-- __main__ -->
<g id="node1" class="node">
<title>__main__</title><style>.edge>path:hover{stroke-width:8}</style>
<ellipse fill="#964040" stroke="black" cx="49.06" cy="-387.25" rx="36.07" ry="18"/>
<text text-anchor="middle" x="49.06" y="-384.25" font-family="Helvetica,sans-Serif" font-size="10.00" fill="#ffffff">__main__</text>
</g>
<!-- pkg_resources -->
<g id="node2" class="node">
<title>pkg_resources</title><style>.edge>path:hover{stroke-width:8}</style>
<ellipse fill="#7ab83d" stroke="black" cx="49.06" cy="-315.25" rx="49.13" ry="18"/>
<text text-anchor="middle" x="49.06" y="-312.25" font-family="Helvetica,sans-Serif" font-size="10.00" fill="#000000">pkg_resources</text>
</g>
<!-- __main__&#45;&gt;pkg_resources -->
<g id="edge1" class="edge">
<title>__main__&#45;&gt;pkg_resources</title><style>.edge>path:hover{stroke-width:8}</style>
<path fill="none" stroke="black" d="M49.06,-368.95C49.06,-361.24 49.06,-351.97 49.06,-343.37"/>
<polygon fill="#964040" stroke="black" points="52.56,-343.36 49.06,-333.36 45.56,-343.36 52.56,-343.36"/>
</g>
<!-- vmklib_app -->
<g id="node5" class="node">
<title>vmklib_app</title><style>.edge>path:hover{stroke-width:8}</style>
<ellipse fill="#7a3db8" stroke="black" cx="49.06" cy="-171.25" rx="38.23" ry="18"/>
<text text-anchor="middle" x="49.06" y="-168.25" font-family="Helvetica,sans-Serif" font-size="10.00" fill="#ffffff">vmklib.app</text>
</g>
<!-- pkg_resources&#45;&gt;vmklib_app -->
<g id="edge2" class="edge">
<title>pkg_resources&#45;&gt;vmklib_app</title><style>.edge>path:hover{stroke-width:8}</style>
<path fill="none" stroke="black" d="M49.06,-297.13C49.06,-272.93 49.06,-228.47 49.06,-199.65"/>
<polygon fill="#7ab83d" stroke="black" points="52.56,-199.44 49.06,-189.44 45.56,-199.44 52.56,-199.44"/>
</g>
<!-- setuptools -->
<g id="node3" class="node">
<title>setuptools</title><style>.edge>path:hover{stroke-width:8}</style>
<ellipse fill="#40bfc0" stroke="black" cx="140.06" cy="-387.25" rx="37.07" ry="18"/>
<text text-anchor="middle" x="140.06" y="-384.25" font-family="Helvetica,sans-Serif" font-size="10.00" fill="#000000">setuptools</text>
</g>
<!-- vmklib_setup -->
<g id="node7" class="node">
<title>vmklib_setup</title><style>.edge>path:hover{stroke-width:8}</style>
<ellipse fill="#7f4cb3" stroke="black" cx="140.06" cy="-243.25" rx="43.08" ry="18"/>
<text text-anchor="middle" x="140.06" y="-240.25" font-family="Helvetica,sans-Serif" font-size="10.00" fill="#ffffff">vmklib.setup</text>
</g>
<!-- setuptools&#45;&gt;vmklib_setup -->
<g id="edge3" class="edge">
<title>setuptools&#45;&gt;vmklib_setup</title><style>.edge>path:hover{stroke-width:8}</style>
<path fill="none" stroke="black" d="M140.06,-369.13C140.06,-344.93 140.06,-300.47 140.06,-271.65"/>
<polygon fill="#40bfc0" stroke="black" points="143.56,-271.44 140.06,-261.44 136.56,-271.44 143.56,-271.44"/>
</g>
<!-- vmklib___main__ -->
<g id="node4" class="node">
<title>vmklib___main__</title><style>.edge>path:hover{stroke-width:8}</style>
<ellipse fill="#7a49ac" stroke="black" cx="49.06" cy="-22.63" rx="42.24" ry="22.76"/>
<text text-anchor="middle" x="49.06" y="-25.63" font-family="Helvetica,sans-Serif" font-size="10.00" fill="#ffffff">vmklib.</text>
<text text-anchor="middle" x="49.06" y="-13.63" font-family="Helvetica,sans-Serif" font-size="10.00" fill="#ffffff">__main__</text>
</g>
<!-- vmklib_entry -->
<g id="node6" class="node">
<title>vmklib_entry</title><style>.edge>path:hover{stroke-width:8}</style>
<ellipse fill="#7a3db8" stroke="black" cx="49.06" cy="-99.25" rx="41.9" ry="18"/>
<text text-anchor="middle" x="49.06" y="-96.25" font-family="Helvetica,sans-Serif" font-size="10.00" fill="#ffffff">vmklib.entry</text>
</g>
<!-- vmklib_app&#45;&gt;vmklib_entry -->
<g id="edge4" class="edge">
<title>vmklib_app&#45;&gt;vmklib_entry</title><style>.edge>path:hover{stroke-width:8}</style>
<path fill="none" stroke="black" d="M49.06,-152.95C49.06,-145.24 49.06,-135.97 49.06,-127.37"/>
<polygon fill="#7a3db8" stroke="black" points="52.56,-127.36 49.06,-117.36 45.56,-127.36 52.56,-127.36"/>
</g>
<!-- vmklib_entry&#45;&gt;vmklib___main__ -->
<g id="edge5" class="edge">
<title>vmklib_entry&#45;&gt;vmklib___main__</title><style>.edge>path:hover{stroke-width:8}</style>
<path fill="none" stroke="black" d="M49.06,-80.95C49.06,-73.42 49.06,-64.34 49.06,-55.66"/>
<polygon fill="#7a3db8" stroke="black" points="52.56,-55.39 49.06,-45.39 45.56,-55.39 52.56,-55.39"/>
</g>
</g>
</svg>
