<?xml version="1.0" encoding="UTF-8" standalone="no"?>
<!DOCTYPE svg PUBLIC "-//W3C//DTD SVG 1.1//EN"
 "http://www.w3.org/Graphics/SVG/1.1/DTD/svg11.dtd">
<!-- Generated by graphviz version 3.0.1~dev.20220405.0544 (20220405.0544)
 -->
<!-- Title: G Pages: 1 -->
<svg width="359pt" height="404pt"
 viewBox="0.00 0.00 358.71 404.48" xmlns="http://www.w3.org/2000/svg" xmlns:xlink="http://www.w3.org/1999/xlink">
<g id="graph0" class="graph" transform="scale(1 1) rotate(0) translate(4 400.48)">
<title>G</title><style>.edge>path:hover{stroke-width:8}</style>
<polygon fill="white" stroke="transparent" points="-4,4 -4,-400.48 354.71,-400.48 354.71,4 -4,4"/>
<!-- __main__ -->
<g id="node1" class="node">
<title>__main__</title><style>.edge>path:hover{stroke-width:8}</style>
<ellipse fill="#964040" stroke="black" cx="49.06" cy="-365.37" rx="36.07" ry="18"/>
<text text-anchor="middle" x="49.06" y="-362.37" font-family="Helvetica,sans-Serif" font-size="10.00" fill="#ffffff">__main__</text>
</g>
<!-- pkg_resources -->
<g id="node2" class="node">
<title>pkg_resources</title><style>.edge>path:hover{stroke-width:8}</style>
<ellipse fill="#7ab83d" stroke="black" cx="49.06" cy="-280.25" rx="49.13" ry="18"/>
<text text-anchor="middle" x="49.06" y="-277.25" font-family="Helvetica,sans-Serif" font-size="10.00" fill="#000000">pkg_resources</text>
</g>
<!-- __main__&#45;&gt;pkg_resources -->
<g id="edge1" class="edge">
<title>__main__&#45;&gt;pkg_resources</title><style>.edge>path:hover{stroke-width:8}</style>
<path fill="none" stroke="black" d="M49.06,-347.15C49.06,-336 49.06,-321.25 49.06,-308.54"/>
<polygon fill="#964040" stroke="black" points="52.56,-308.45 49.06,-298.45 45.56,-308.45 52.56,-308.45"/>
</g>
<!-- vmklib_app -->
<g id="node7" class="node">
<title>vmklib_app</title><style>.edge>path:hover{stroke-width:8}</style>
<ellipse fill="#7a3db8" stroke="black" cx="49.06" cy="-171.25" rx="38.23" ry="18"/>
<text text-anchor="middle" x="49.06" y="-168.25" font-family="Helvetica,sans-Serif" font-size="10.00" fill="#ffffff">vmklib.app</text>
</g>
<!-- pkg_resources&#45;&gt;vmklib_app -->
<g id="edge2" class="edge">
<title>pkg_resources&#45;&gt;vmklib_app</title><style>.edge>path:hover{stroke-width:8}</style>
<path fill="none" stroke="black" d="M49.06,-262.06C49.06,-245.22 49.06,-219.27 49.06,-199.59"/>
<polygon fill="#7ab83d" stroke="black" points="52.56,-199.4 49.06,-189.4 45.56,-199.4 52.56,-199.4"/>
</g>
<!-- vcorelib -->
<g id="node3" class="node">
<title>vcorelib</title><style>.edge>path:hover{stroke-width:8}</style>
<ellipse fill="#47c2c2" stroke="black" cx="146.06" cy="-280.25" rx="30.19" ry="18"/>
<text text-anchor="middle" x="146.06" y="-277.25" font-family="Helvetica,sans-Serif" font-size="10.00" fill="#000000">vcorelib</text>
</g>
<!-- vmklib_task -->
<g id="node9" class="node">
<title>vmklib_task</title><style>.edge>path:hover{stroke-width:8}</style>
<ellipse fill="#7546a4" stroke="black" cx="276.06" cy="-171.25" rx="39.22" ry="18"/>
<text text-anchor="middle" x="276.06" y="-168.25" font-family="Helvetica,sans-Serif" font-size="10.00" fill="#ffffff">vmklib.task</text>
</g>
<!-- vcorelib&#45;&gt;vmklib_task -->
<g id="edge3" class="edge">
<title>vcorelib&#45;&gt;vmklib_task</title><style>.edge>path:hover{stroke-width:8}</style>
<path fill="none" stroke="black" d="M170.14,-268.92C175.38,-266.7 180.9,-264.38 186.06,-262.25 225.89,-245.83 261.94,-266.96 276.06,-226.25"/>
<path fill="none" stroke="black" d="M276.06,-225.25C278.86,-217.19 279.63,-208 279.48,-199.57"/>
<polygon fill="#47c2c2" stroke="black" points="282.96,-199.21 278.87,-189.44 275.97,-199.63 282.96,-199.21"/>
</g>
<!-- vcorelib_math -->
<g id="node4" class="node">
<title>vcorelib_math</title><style>.edge>path:hover{stroke-width:8}</style>
<ellipse fill="#47c2c2" stroke="black" cx="240.06" cy="-280.25" rx="45.26" ry="18"/>
<text text-anchor="middle" x="240.06" y="-277.25" font-family="Helvetica,sans-Serif" font-size="10.00" fill="#000000">vcorelib.math</text>
</g>
<!-- vcorelib_math&#45;&gt;vmklib_task -->
<g id="edge4" class="edge">
<title>vcorelib_math&#45;&gt;vmklib_task</title><style>.edge>path:hover{stroke-width:8}</style>
<path fill="none" stroke="black" d="M254.56,-262.84C262.4,-252.96 271.4,-239.71 276.06,-226.25"/>
</g>
<!-- vcorelib_math_time -->
<g id="node5" class="node">
<title>vcorelib_math_time</title><style>.edge>path:hover{stroke-width:8}</style>
<ellipse fill="#49acac" stroke="black" cx="313.06" cy="-365.37" rx="37.79" ry="31.23"/>
<text text-anchor="middle" x="313.06" y="-374.37" font-family="Helvetica,sans-Serif" font-size="10.00" fill="#000000">vcorelib.</text>
<text text-anchor="middle" x="313.06" y="-362.37" font-family="Helvetica,sans-Serif" font-size="10.00" fill="#000000">math.</text>
<text text-anchor="middle" x="313.06" y="-350.37" font-family="Helvetica,sans-Serif" font-size="10.00" fill="#000000">time</text>
</g>
<!-- vcorelib_math_time&#45;&gt;vmklib_task -->
<g id="edge5" class="edge">
<title>vcorelib_math_time&#45;&gt;vmklib_task</title><style>.edge>path:hover{stroke-width:8}</style>
<path fill="none" stroke="black" d="M309.72,-334.32C306.88,-313.68 301.98,-285.85 294.06,-262.25 288.37,-245.3 270.2,-243.15 276.06,-226.25"/>
</g>
<!-- vmklib___main__ -->
<g id="node6" class="node">
<title>vmklib___main__</title><style>.edge>path:hover{stroke-width:8}</style>
<ellipse fill="#7a49ac" stroke="black" cx="49.06" cy="-22.63" rx="42.24" ry="22.76"/>
<text text-anchor="middle" x="49.06" y="-25.63" font-family="Helvetica,sans-Serif" font-size="10.00" fill="#ffffff">vmklib.</text>
<text text-anchor="middle" x="49.06" y="-13.63" font-family="Helvetica,sans-Serif" font-size="10.00" fill="#ffffff">__main__</text>
</g>
<!-- vmklib_entry -->
<g id="node8" class="node">
<title>vmklib_entry</title><style>.edge>path:hover{stroke-width:8}</style>
<ellipse fill="#7a3db8" stroke="black" cx="49.06" cy="-99.25" rx="41.9" ry="18"/>
<text text-anchor="middle" x="49.06" y="-96.25" font-family="Helvetica,sans-Serif" font-size="10.00" fill="#ffffff">vmklib.entry</text>
</g>
<!-- vmklib_app&#45;&gt;vmklib_entry -->
<g id="edge6" class="edge">
<title>vmklib_app&#45;&gt;vmklib_entry</title><style>.edge>path:hover{stroke-width:8}</style>
<path fill="none" stroke="black" d="M49.06,-152.95C49.06,-145.24 49.06,-135.97 49.06,-127.37"/>
<polygon fill="#7a3db8" stroke="black" points="52.56,-127.36 49.06,-117.36 45.56,-127.36 52.56,-127.36"/>
</g>
<!-- vmklib_entry&#45;&gt;vmklib___main__ -->
<g id="edge7" class="edge">
<title>vmklib_entry&#45;&gt;vmklib___main__</title><style>.edge>path:hover{stroke-width:8}</style>
<path fill="none" stroke="black" d="M49.06,-80.95C49.06,-73.42 49.06,-64.34 49.06,-55.66"/>
<polygon fill="#7a3db8" stroke="black" points="52.56,-55.39 49.06,-45.39 45.56,-55.39 52.56,-55.39"/>
</g>
</g>
</svg>
