<?xml version="1.0" encoding="UTF-8" standalone="no"?>
<!DOCTYPE svg PUBLIC "-//W3C//DTD SVG 1.1//EN"
 "http://www.w3.org/Graphics/SVG/1.1/DTD/svg11.dtd">
<!-- Generated by graphviz version 3.0.1~dev.20220405.0544 (20220405.0544)
 -->
<!-- Title: G Pages: 1 -->
<svg width="467pt" height="404pt"
 viewBox="0.00 0.00 467.29 404.48" xmlns="http://www.w3.org/2000/svg" xmlns:xlink="http://www.w3.org/1999/xlink">
<g id="graph0" class="graph" transform="scale(1 1) rotate(0) translate(4 400.48)">
<title>G</title><style>.edge>path:hover{stroke-width:8}</style>
<polygon fill="white" stroke="transparent" points="-4,4 -4,-400.48 463.29,-400.48 463.29,4 -4,4"/>
<!-- __main__ -->
<g id="node1" class="node">
<title>__main__</title><style>.edge>path:hover{stroke-width:8}</style>
<ellipse fill="#9d4343" stroke="black" cx="49.06" cy="-365.37" rx="36.07" ry="18"/>
<text text-anchor="middle" x="49.06" y="-362.37" font-family="Helvetica,sans-Serif" font-size="10.00" fill="#ffffff">__main__</text>
</g>
<!-- pkg_resources -->
<g id="node2" class="node">
<title>pkg_resources</title><style>.edge>path:hover{stroke-width:8}</style>
<ellipse fill="#7ab83d" stroke="black" cx="49.06" cy="-280.25" rx="49.13" ry="18"/>
<text text-anchor="middle" x="49.06" y="-277.25" font-family="Helvetica,sans-Serif" font-size="10.00" fill="#000000">pkg_resources</text>
</g>
<!-- __main__&#45;&gt;pkg_resources -->
<g id="edge1" class="edge">
<title>__main__&#45;&gt;pkg_resources</title><style>.edge>path:hover{stroke-width:8}</style>
<path fill="none" stroke="black" d="M49.06,-347.15C49.06,-336 49.06,-321.25 49.06,-308.54"/>
<polygon fill="#9d4343" stroke="black" points="52.56,-308.45 49.06,-298.45 45.56,-308.45 52.56,-308.45"/>
</g>
<!-- vmklib_app -->
<g id="node8" class="node">
<title>vmklib_app</title><style>.edge>path:hover{stroke-width:8}</style>
<ellipse fill="#663399" stroke="black" cx="349.06" cy="-171.25" rx="38.23" ry="18"/>
<text text-anchor="middle" x="349.06" y="-168.25" font-family="Helvetica,sans-Serif" font-size="10.00" fill="#ffffff">vmklib.app</text>
</g>
<!-- pkg_resources&#45;&gt;vmklib_app -->
<g id="edge2" class="edge">
<title>pkg_resources&#45;&gt;vmklib_app</title><style>.edge>path:hover{stroke-width:8}</style>
<path fill="none" stroke="black" d="M85.06,-267.87C92.3,-265.82 99.89,-263.83 107.06,-262.25 160.17,-250.58 320.57,-272.56 349.06,-226.25"/>
<path fill="none" stroke="black" d="M349.06,-225.25C353.78,-217.6 354.89,-208.06 354.47,-199.19"/>
<polygon fill="#7ab83d" stroke="black" points="357.95,-198.81 353.39,-189.25 350.99,-199.57 357.95,-198.81"/>
</g>
<!-- vcorelib -->
<g id="node3" class="node">
<title>vcorelib</title><style>.edge>path:hover{stroke-width:8}</style>
<ellipse fill="#2fdbdb" stroke="black" cx="146.06" cy="-280.25" rx="30.19" ry="18"/>
<text text-anchor="middle" x="146.06" y="-277.25" font-family="Helvetica,sans-Serif" font-size="10.00" fill="#000000">vcorelib</text>
</g>
<!-- vcorelib&#45;&gt;vmklib_app -->
<g id="edge3" class="edge">
<title>vcorelib&#45;&gt;vmklib_app</title><style>.edge>path:hover{stroke-width:8}</style>
<path fill="none" stroke="black" d="M169.29,-268.25C174.41,-266.07 179.86,-263.94 185.06,-262.25 256.05,-239.24 309.95,-289.81 349.06,-226.25"/>
</g>
<!-- vcorelib_paths -->
<g id="node4" class="node">
<title>vcorelib_paths</title><style>.edge>path:hover{stroke-width:8}</style>
<ellipse fill="#4cb3b3" stroke="black" cx="241.06" cy="-280.25" rx="46.95" ry="18"/>
<text text-anchor="middle" x="241.06" y="-277.25" font-family="Helvetica,sans-Serif" font-size="10.00" fill="#000000">vcorelib.paths</text>
</g>
<!-- vcorelib_paths&#45;&gt;vmklib_app -->
<g id="edge4" class="edge">
<title>vcorelib_paths&#45;&gt;vmklib_app</title><style>.edge>path:hover{stroke-width:8}</style>
<path fill="none" stroke="black" d="M274.27,-267.45C302.78,-256.56 340.58,-240.04 349.06,-226.25"/>
</g>
<!-- vcorelib_task -->
<g id="node5" class="node">
<title>vcorelib_task</title><style>.edge>path:hover{stroke-width:8}</style>
<ellipse fill="#40bfc0" stroke="black" cx="349.06" cy="-280.25" rx="43.08" ry="18"/>
<text text-anchor="middle" x="349.06" y="-277.25" font-family="Helvetica,sans-Serif" font-size="10.00" fill="#000000">vcorelib.task</text>
</g>
<!-- vcorelib_task&#45;&gt;vmklib_app -->
<g id="edge5" class="edge">
<title>vcorelib_task&#45;&gt;vmklib_app</title><style>.edge>path:hover{stroke-width:8}</style>
<path fill="none" stroke="black" d="M344.74,-262.26C342.91,-251.2 342.5,-236.91 349.06,-226.25"/>
</g>
<!-- vcorelib_task_manager -->
<g id="node6" class="node">
<title>vcorelib_task_manager</title><style>.edge>path:hover{stroke-width:8}</style>
<ellipse fill="#49acac" stroke="black" cx="420.06" cy="-365.37" rx="39.44" ry="31.23"/>
<text text-anchor="middle" x="420.06" y="-374.37" font-family="Helvetica,sans-Serif" font-size="10.00" fill="#000000">vcorelib.</text>
<text text-anchor="middle" x="420.06" y="-362.37" font-family="Helvetica,sans-Serif" font-size="10.00" fill="#000000">task.</text>
<text text-anchor="middle" x="420.06" y="-350.37" font-family="Helvetica,sans-Serif" font-size="10.00" fill="#000000">manager</text>
</g>
<!-- vcorelib_task_manager&#45;&gt;vmklib_app -->
<g id="edge6" class="edge">
<title>vcorelib_task_manager&#45;&gt;vmklib_app</title><style>.edge>path:hover{stroke-width:8}</style>
<path fill="none" stroke="black" d="M420.37,-333.98C419.24,-312.41 414.88,-283.6 401.06,-262.25 385.79,-238.66 334.33,-250.19 349.06,-226.25"/>
</g>
<!-- vmklib___main__ -->
<g id="node7" class="node">
<title>vmklib___main__</title><style>.edge>path:hover{stroke-width:8}</style>
<ellipse fill="#7a49ac" stroke="black" cx="349.06" cy="-22.63" rx="42.24" ry="22.76"/>
<text text-anchor="middle" x="349.06" y="-25.63" font-family="Helvetica,sans-Serif" font-size="10.00" fill="#ffffff">vmklib.</text>
<text text-anchor="middle" x="349.06" y="-13.63" font-family="Helvetica,sans-Serif" font-size="10.00" fill="#ffffff">__main__</text>
</g>
<!-- vmklib_entry -->
<g id="node9" class="node">
<title>vmklib_entry</title><style>.edge>path:hover{stroke-width:8}</style>
<ellipse fill="#7a3db8" stroke="black" cx="349.06" cy="-99.25" rx="41.9" ry="18"/>
<text text-anchor="middle" x="349.06" y="-96.25" font-family="Helvetica,sans-Serif" font-size="10.00" fill="#ffffff">vmklib.entry</text>
</g>
<!-- vmklib_app&#45;&gt;vmklib_entry -->
<g id="edge7" class="edge">
<title>vmklib_app&#45;&gt;vmklib_entry</title><style>.edge>path:hover{stroke-width:8}</style>
<path fill="none" stroke="black" d="M349.06,-152.95C349.06,-145.24 349.06,-135.97 349.06,-127.37"/>
<polygon fill="#663399" stroke="black" points="352.56,-127.36 349.06,-117.36 345.56,-127.36 352.56,-127.36"/>
</g>
<!-- vmklib_entry&#45;&gt;vmklib___main__ -->
<g id="edge8" class="edge">
<title>vmklib_entry&#45;&gt;vmklib___main__</title><style>.edge>path:hover{stroke-width:8}</style>
<path fill="none" stroke="black" d="M349.06,-80.95C349.06,-73.42 349.06,-64.34 349.06,-55.66"/>
<polygon fill="#7a3db8" stroke="black" points="352.56,-55.39 349.06,-45.39 345.56,-55.39 352.56,-55.39"/>
</g>
</g>
</svg>
